SplineFontDB: 3.2
FontName: EggRollExpandedItalic
FullName: Egg Roll Expanded Italic
FamilyName: Egg Roll 
Weight: Expanded
Copyright: 2019 Iconian Fonts - www.iconian.com
Version: 1.1; 2019
ItalicAngle: 0
UnderlinePosition: -175
UnderlineWidth: 50
Ascent: 800
Descent: 200
InvalidEm: 0
sfntRevision: 0x00010001
LayerCount: 2
Layer: 0 0 "Back" 1
Layer: 1 0 "Fore" 0
XUID: [1021 544 -9480482 14388861]
StyleMap: 0x0001
FSType: 0
OS2Version: 3
OS2_WeightWidthSlopeOnly: 0
OS2_UseTypoMetrics: 0
CreationTime: 1562333719
ModificationTime: 1759104319
PfmFamily: 81
TTFWeight: 700
TTFWidth: 7
LineGap: 30
VLineGap: 0
Panose: 0 0 0 0 0 0 0 0 0 0
OS2TypoAscent: 750
OS2TypoAOffset: 0
OS2TypoDescent: -170
OS2TypoDOffset: 0
OS2TypoLinegap: 30
OS2WinAscent: 882
OS2WinAOffset: 0
OS2WinDescent: 143
OS2WinDOffset: 0
HheadAscent: 882
HheadAOffset: 0
HheadDescent: -143
HheadDOffset: 0
OS2SubXSize: 100
OS2SubYSize: 100
OS2SubXOff: 0
OS2SubYOff: 140
OS2SupXSize: 100
OS2SupYSize: 100
OS2SupXOff: 0
OS2SupYOff: 140
OS2StrikeYSize: 50
OS2StrikeYPos: 250
OS2CapHeight: 706
OS2XHeight: 693
OS2Vendor: 'pyrs'
OS2CodePages: 00000001.00000000
OS2UnicodeRanges: 80000007.00000000.00000000.00000000
Lookup: 258 0 0 "'kern' Horizontal Kerning in Latin lookup 0" { "'kern' Horizontal Kerning in Latin lookup 0 subtable"  } ['kern' ('DFLT' <'dflt' > 'latn' <'dflt' > ) ]
MarkAttachClasses: 1
DEI: 91125
LangName: 1033 "" "" "Expanded Italic" "" "" "Version 1.1; 2019" "" "" "" "Daniel Zadorozny" "" "" "http://www.iconian.com"
Encoding: UnicodeBmp
UnicodeInterp: none
NameList: AGL For New Fonts
DisplaySize: -48
AntiAlias: 1
FitToEm: 0
WinInfo: 64 16 4
BeginPrivate: 3
BlueValues 15 [-12 5 697 723]
BlueScale 6 0.0375
BlueShift 2 13
EndPrivate
BeginChars: 65540 223

StartChar: exclam
Encoding: 33 33 3
Width: 250
GlyphClass: 2
Flags: W
LayerCount: 2
Fore
SplineSet
251 80 m 2
 249 72.6669921875 247.331054688 67.998046875 245.998046875 65.998046875 c 0
 244.665039062 63.998046875 243.665039062 61.6650390625 242.998046875 58.998046875 c 2
 238.498046875 49.998046875 l 2
 236.831054688 46.6650390625 232.998046875 40.33203125 226.998046875 30.9990234375 c 0
 224.331054688 28.9990234375 222.331054688 26.666015625 220.998046875 23.9990234375 c 0
 219.665039062 21.33203125 217.665039062 18.33203125 214.998046875 14.9990234375 c 2
 210.998046875 9.9990234375 l 2
 207.665039062 4.666015625 204.165039062 -0.333984375 200.498046875 -5.0009765625 c 0
 196.831054688 -9.66796875 191.331054688 -12.0009765625 183.998046875 -12.0009765625 c 0
 182.665039062 -12.0009765625 180.665039062 -11.833984375 177.998046875 -11.5009765625 c 0
 175.331054688 -11.16796875 173.331054688 -11.0009765625 171.998046875 -11.0009765625 c 0
 161.331054688 -9.66796875 147.998046875 -6.66796875 131.998046875 -2.0009765625 c 0
 115.998046875 2.666015625 100.665039062 6.666015625 85.998046875 9.9990234375 c 1
 75.998046875 34.9990234375 l 1
 80.998046875 47.9990234375 l 1
 107.998046875 102.999023438 l 2
 111.998046875 110.999023438 115.331054688 116.666015625 117.998046875 119.999023438 c 0
 120.665039062 123.33203125 127.665039062 126.999023438 138.998046875 130.999023438 c 1
 171.998046875 123.999023438 l 1
 151.331054688 148.666015625 138.1640625 179.166015625 132.497070312 215.499023438 c 0
 126.830078125 251.83203125 125.497070312 290.165039062 128.497070312 330.498046875 c 0
 131.497070312 370.831054688 137.330078125 411.498046875 145.997070312 452.498046875 c 0
 154.6640625 493.498046875 163.331054688 530.998046875 171.998046875 564.998046875 c 2
 175.998046875 581.998046875 l 1
 178.998046875 581.998046875 l 1
 194.998046875 643.998046875 l 1
 199.498046875 652.998046875 l 2
 202.498046875 658.998046875 206.331054688 665.498046875 210.998046875 672.498046875 c 0
 215.665039062 679.498046875 220.665039062 685.831054688 225.998046875 691.498046875 c 0
 231.331054688 697.165039062 235.998046875 699.998046875 239.998046875 699.998046875 c 2
 245.998046875 699.998046875 l 1
 387.998046875 662.998046875 l 1
 372.998046875 627.998046875 l 2
 364.331054688 609.331054688 356.331054688 592.498046875 348.998046875 577.498046875 c 0
 341.665039062 562.498046875 333.998046875 547.331054688 325.998046875 531.998046875 c 0
 317.998046875 516.665039062 309.498046875 499.83203125 300.498046875 481.499023438 c 0
 291.498046875 463.166015625 280.998046875 441.333007812 268.998046875 416 c 0
 262.331054688 400 256.331054688 384 250.998046875 368 c 0
 245.665039062 352 240.998046875 336 236.998046875 320 c 0
 229.665039062 290 223.83203125 261 219.499023438 233 c 0
 215.166015625 205 211.333007812 176 208 146 c 2
 202 120 l 1
 248 112 l 1
 254 93 l 1
 251 80 l 2
EndSplineSet
EndChar

StartChar: quotedbl
Encoding: 34 34 4
Width: 303
GlyphClass: 2
Flags: W
LayerCount: 2
Fore
SplineSet
199 590 m 1
 200.001953125 605.998046875 l 2
 201.334960938 611.998046875 201.66796875 617.165039062 201.000976562 621.498046875 c 0
 200.333984375 625.831054688 199.000976562 629.998046875 197.000976562 633.998046875 c 0
 195.000976562 637.998046875 192.66796875 642.165039062 190.000976562 646.498046875 c 0
 187.333984375 650.831054688 185.000976562 655.998046875 183.000976562 661.998046875 c 2
 192.000976562 696.998046875 l 2
 196.000976562 702.331054688 204.66796875 705.6640625 218.000976562 706.997070312 c 0
 231.333984375 708.330078125 243.000976562 708.997070312 253.000976562 708.997070312 c 2
 258.000976562 708.997070312 l 1
 260.000976562 709.997070312 l 1
 297.000976562 705.997070312 l 2
 300.333984375 705.997070312 302.833984375 702.997070312 304.500976562 696.997070312 c 0
 306.16796875 690.997070312 307.000976562 685.330078125 307.000976562 679.997070312 c 2
 307.000976562 673.997070312 l 1
 297.000976562 633.997070312 l 2
 289.66796875 616.6640625 282.16796875 602.331054688 274.500976562 590.998046875 c 0
 266.833984375 579.665039062 257.833984375 569.83203125 247.500976562 561.499023438 c 0
 237.16796875 553.166015625 224.66796875 545.833007812 210.000976562 539.5 c 0
 195.333984375 533.166992188 177.666992188 526.666992188 157 520 c 1
 199 590 l 1
342.001953125 589.998046875 m 1
 343.004882812 605.99609375 l 2
 344.337890625 611.99609375 344.504882812 617.163085938 343.504882812 621.49609375 c 0
 342.504882812 625.829101562 341.004882812 629.99609375 339.004882812 633.99609375 c 0
 337.004882812 637.99609375 334.837890625 642.163085938 332.504882812 646.49609375 c 0
 330.171875 650.829101562 328.004882812 655.99609375 326.004882812 661.99609375 c 2
 335.004882812 696.99609375 l 2
 339.004882812 702.329101562 347.671875 705.662109375 361.004882812 706.995117188 c 0
 374.337890625 708.328125 386.004882812 708.995117188 396.004882812 708.995117188 c 2
 400.004882812 708.995117188 l 1
 403.004882812 709.995117188 l 1
 443.004882812 705.995117188 l 2
 445.004882812 705.995117188 446.504882812 704.495117188 447.504882812 701.495117188 c 0
 448.504882812 698.495117188 449.171875 695.162109375 449.504882812 691.495117188 c 0
 449.837890625 687.828125 450.004882812 683.995117188 450.004882812 679.995117188 c 2
 450.004882812 673.995117188 l 1
 440.004882812 633.995117188 l 2
 432.671875 616.662109375 425.171875 602.329101562 417.504882812 590.99609375 c 0
 409.837890625 579.663085938 400.670898438 569.830078125 390.00390625 561.497070312 c 0
 379.336914062 553.1640625 366.669921875 545.831054688 352.002929688 539.498046875 c 0
 337.3359375 533.165039062 319.668945312 526.665039062 299.001953125 519.998046875 c 1
 342.001953125 589.998046875 l 1
EndSplineSet
EndChar

StartChar: numbersign
Encoding: 35 35 5
Width: 668
GlyphClass: 2
Flags: W
LayerCount: 2
Fore
SplineSet
256 414 m 2
 253.333007812 414 250.82421875 413.827148438 248.491210938 413.494140625 c 0
 246.158203125 413.161132812 243.325195312 412.661132812 239.9921875 411.994140625 c 2
 116.9921875 402.994140625 l 1
 131.9921875 432.994140625 l 2
 133.325195312 439.661132812 134.325195312 444.828125 134.9921875 448.495117188 c 0
 135.659179688 452.162109375 136.659179688 455.995117188 137.9921875 459.995117188 c 2
 140.4921875 472.495117188 l 2
 141.4921875 477.495117188 142.659179688 484.328125 143.9921875 492.995117188 c 0
 145.325195312 499.662109375 146.4921875 506.329101562 147.4921875 512.99609375 c 0
 148.4921875 519.663085938 148.325195312 525.663085938 146.9921875 530.99609375 c 1
 294.9921875 496.99609375 l 1
 298.325195312 504.329101562 300.9921875 510.49609375 302.9921875 515.49609375 c 0
 304.9921875 520.49609375 306.9921875 524.329101562 308.9921875 526.99609375 c 0
 310.325195312 528.99609375 313.325195312 533.99609375 317.9921875 541.99609375 c 0
 322.659179688 549.99609375 327.659179688 558.829101562 332.9921875 568.49609375 c 0
 338.325195312 578.163085938 343.825195312 587.830078125 349.4921875 597.497070312 c 0
 355.159179688 607.1640625 359.659179688 614.331054688 362.9921875 618.998046875 c 0
 366.9921875 624.331054688 371.659179688 631.498046875 376.9921875 640.498046875 c 0
 382.325195312 649.498046875 388.158203125 658.665039062 394.491210938 667.998046875 c 0
 400.82421875 677.331054688 407.491210938 686.1640625 414.491210938 694.497070312 c 0
 421.491210938 702.830078125 428.32421875 708.997070312 434.991210938 712.997070312 c 1
 404.991210938 594.997070312 l 2
 400.32421875 575.6640625 396.157226562 556.331054688 392.490234375 536.998046875 c 0
 388.823242188 517.665039062 385.323242188 498.33203125 381.990234375 478.999023438 c 1
 399.990234375 484.999023438 l 1
 525.990234375 453.999023438 l 1
 531.990234375 468.666015625 536.990234375 478.666015625 540.990234375 483.999023438 c 0
 541.657226562 485.999023438 544.32421875 491.666015625 548.991210938 500.999023438 c 0
 553.658203125 510.33203125 559.158203125 520.83203125 565.491210938 532.499023438 c 0
 571.82421875 544.166015625 577.991210938 555.333007812 583.991210938 566 c 0
 589.991210938 576.666992188 594.658203125 584.333984375 597.991210938 589.000976562 c 0
 601.991210938 594.333984375 606.658203125 601.500976562 611.991210938 610.500976562 c 0
 617.32421875 619.500976562 623.157226562 628.66796875 629.490234375 638.000976562 c 0
 635.823242188 647.333984375 642.323242188 656.166992188 648.990234375 664.5 c 0
 655.657226562 672.833007812 662.32421875 679 668.991210938 683 c 1
 630.991210938 565 l 2
 625.658203125 545.666992188 620.825195312 526.333984375 616.4921875 507.000976562 c 0
 612.159179688 487.66796875 608.326171875 468.334960938 604.993164062 449.001953125 c 1
 623.993164062 445.001953125 l 2
 631.326171875 441.668945312 639.493164062 437.8359375 648.493164062 433.502929688 c 0
 657.493164062 429.169921875 666.16015625 425.002929688 674.493164062 421.002929688 c 0
 682.826171875 417.002929688 690.326171875 413.002929688 696.993164062 409.002929688 c 0
 703.66015625 405.002929688 708.66015625 401.3359375 711.993164062 398.002929688 c 0
 713.326171875 396.002929688 715.826171875 393.169921875 719.493164062 389.502929688 c 2
 724.993164062 384.002929688 l 1
 735.993164062 374.002929688 l 1
 732.993164062 372.002929688 l 1
 588.993164062 379.002929688 l 1
 587.66015625 365.002929688 586.493164062 351.169921875 585.493164062 337.502929688 c 0
 584.493164062 323.8359375 584.326171875 310.002929688 584.993164062 296.002929688 c 1
 585.66015625 296.669921875 587.327148438 297.002929688 589.994140625 297.002929688 c 0
 592.661132812 297.002929688 594.328125 297.3359375 594.995117188 298.002929688 c 2
 717.995117188 307.002929688 l 1
 702.995117188 277.002929688 l 2
 701.662109375 270.3359375 700.662109375 265.168945312 699.995117188 261.501953125 c 0
 699.328125 257.834960938 698.328125 254.001953125 696.995117188 250.001953125 c 2
 694.495117188 237.501953125 l 2
 693.495117188 232.501953125 692.328125 225.668945312 690.995117188 217.001953125 c 0
 689.662109375 210.334960938 688.495117188 203.66796875 687.495117188 197.000976562 c 0
 686.495117188 190.333984375 686.662109375 184.333984375 687.995117188 179.000976562 c 1
 586.995117188 202.000976562 l 1
 588.995117188 166.000976562 591.828125 130.833984375 595.495117188 96.5009765625 c 0
 599.162109375 62.16796875 603.995117188 28.0009765625 609.995117188 -5.9990234375 c 0
 608.662109375 -7.9990234375 607.162109375 -9.4990234375 605.495117188 -10.4990234375 c 0
 603.828125 -11.4990234375 600.828125 -12.33203125 596.495117188 -12.9990234375 c 0
 592.162109375 -13.666015625 586.162109375 -14.166015625 578.495117188 -14.4990234375 c 0
 570.828125 -14.83203125 560.328125 -14.9990234375 546.995117188 -14.9990234375 c 2
 511.995117188 -14.9990234375 l 2
 485.328125 -14.9990234375 464.995117188 -10.666015625 450.995117188 -1.9990234375 c 0
 436.995117188 6.66796875 430.662109375 25.0009765625 431.995117188 53.0009765625 c 0
 432.662109375 54.333984375 432.829101562 55.6669921875 432.49609375 57 c 0
 432.163085938 58.3330078125 432.330078125 59.666015625 432.997070312 60.9990234375 c 0
 433.6640625 69.666015625 434.497070312 80.166015625 435.497070312 92.4990234375 c 0
 436.497070312 104.83203125 437.497070312 116.999023438 438.497070312 128.999023438 c 0
 439.497070312 140.999023438 440.497070312 151.499023438 441.497070312 160.499023438 c 0
 442.497070312 169.499023438 443.330078125 174.999023438 443.997070312 176.999023438 c 2
 454.997070312 211.999023438 l 1
 363.997070312 231.999023438 l 1
 361.330078125 199.999023438 359.663085938 166.499023438 358.99609375 131.499023438 c 0
 358.329101562 96.4990234375 360.662109375 61.666015625 365.995117188 26.9990234375 c 0
 364.662109375 24.9990234375 362.829101562 23.33203125 360.49609375 21.9990234375 c 0
 358.163085938 20.666015625 354.330078125 19.4990234375 348.997070312 18.4990234375 c 0
 343.6640625 17.4990234375 336.331054688 16.666015625 326.998046875 15.9990234375 c 0
 317.665039062 15.33203125 304.998046875 14.6650390625 288.998046875 13.998046875 c 0
 275.665039062 13.998046875 263.165039062 14.8310546875 251.498046875 16.498046875 c 0
 239.831054688 18.1650390625 229.831054688 21.33203125 221.498046875 25.9990234375 c 0
 213.165039062 30.666015625 206.665039062 37.3330078125 201.998046875 46 c 0
 197.331054688 54.6669921875 195.6640625 66 196.997070312 80 c 0
 196.997070312 86.6669921875 197.6640625 97.5 198.997070312 112.5 c 0
 200.330078125 127.5 201.830078125 142.5 203.497070312 157.5 c 0
 205.1640625 172.5 206.831054688 186.166992188 208.498046875 198.5 c 0
 210.165039062 210.833007812 211.33203125 218 211.999023438 220 c 2
 222.999023438 264 l 1
 220.999023438 265 l 2
 213.666015625 268.333007812 204.833007812 272 194.5 276 c 0
 184.166992188 280 174.166992188 284 164.5 288 c 0
 154.833007812 292 146 296 138 300 c 0
 130 304 125 308 123 312 c 0
 121.666992188 314 119.166992188 316.833007812 115.5 320.5 c 2
 110 326 l 1
 99 336 l 1
 102 338 l 1
 240 331 l 1
 260 414 l 1
 256 414 l 2
466.991210938 312.994140625 m 1
 496.990234375 387.994140625 l 1
 496.323242188 387.994140625 492.990234375 388.494140625 486.990234375 389.494140625 c 0
 480.990234375 390.494140625 474.490234375 391.661132812 467.490234375 392.994140625 c 0
 460.490234375 394.327148438 456.657226562 395.327148438 455.990234375 395.994140625 c 2
 387.990234375 406.994140625 l 1
 365.990234375 407.994140625 l 1
 364.657226562 393.994140625 363.490234375 380.327148438 362.490234375 366.994140625 c 0
 361.490234375 353.661132812 361.323242188 339.994140625 361.990234375 325.994140625 c 1
 362.657226562 326.661132812 364.657226562 326.994140625 367.990234375 326.994140625 c 0
 370.657226562 326.994140625 372.32421875 327.327148438 372.991210938 327.994140625 c 2
 466.991210938 312.994140625 l 1
EndSplineSet
EndChar

StartChar: dollar
Encoding: 36 36 6
Width: 536
GlyphClass: 2
Flags: W
LayerCount: 2
Fore
SplineSet
506 658 m 1
 496.001953125 618.004882812 l 1
 503.334960938 618.671875 510.834960938 619.171875 518.501953125 619.504882812 c 0
 526.168945312 619.837890625 534.001953125 620.004882812 542.001953125 620.004882812 c 0
 551.334960938 620.004882812 558.501953125 612.337890625 563.501953125 597.004882812 c 0
 568.501953125 581.671875 572.001953125 564.004882812 574.001953125 544.004882812 c 0
 576.001953125 524.004882812 576.668945312 504.504882812 576.001953125 485.504882812 c 0
 575.334960938 466.504882812 574.001953125 453.004882812 572.001953125 445.004882812 c 1
 568.001953125 446.004882812 l 1
 542.668945312 460.671875 517.001953125 472.671875 491.001953125 482.004882812 c 0
 465.001953125 491.337890625 434.668945312 496.004882812 400.001953125 496.004882812 c 0
 366.668945312 496.004882812 337.001953125 493.004882812 311.001953125 487.004882812 c 0
 285.001953125 481.004882812 256.001953125 469.337890625 224.001953125 452.004882812 c 1
 219.001953125 445.004882812 l 1
 219.001953125 443.004882812 l 1
 226.334960938 439.004882812 236.501953125 436.504882812 249.501953125 435.504882812 c 0
 262.501953125 434.504882812 279.001953125 433.671875 299.001953125 433.004882812 c 0
 301.668945312 433.004882812 306.001953125 432.837890625 312.001953125 432.504882812 c 0
 318.001953125 432.171875 324.334960938 431.671875 331.001953125 431.004882812 c 0
 337.668945312 430.337890625 344.001953125 429.504882812 350.001953125 428.504882812 c 0
 356.001953125 427.504882812 360.334960938 426.671875 363.001953125 426.004882812 c 0
 374.334960938 420.004882812 386.001953125 415.671875 398.001953125 413.004882812 c 0
 410.001953125 410.337890625 422.334960938 406.337890625 435.001953125 401.004882812 c 0
 465.668945312 388.337890625 491.001953125 372.337890625 511.001953125 353.004882812 c 0
 531.001953125 333.671875 549.334960938 310.004882812 566.001953125 282.004882812 c 0
 567.334960938 280.004882812 570.001953125 276.171875 574.001953125 270.504882812 c 0
 578.001953125 264.837890625 579.668945312 261.337890625 579.001953125 260.004882812 c 0
 582.334960938 252.671875 583.334960938 246.004882812 582.001953125 240.004882812 c 1
 582.001953125 241.337890625 580.334960938 237.670898438 577.001953125 229.00390625 c 0
 554.334960938 183.670898438 524.834960938 150.00390625 488.501953125 128.00390625 c 0
 452.168945312 106.00390625 412.668945312 91.00390625 370.001953125 83.00390625 c 1
 352.001953125 48.00390625 l 1
 342.001953125 23.00390625 l 2
 335.334960938 9.00390625 329.16796875 -2.49609375 323.500976562 -11.49609375 c 0
 317.833984375 -20.49609375 312.000976562 -28.49609375 306.000976562 -35.49609375 c 0
 300.000976562 -42.49609375 293.500976562 -49.49609375 286.500976562 -56.49609375 c 2
 261.000976562 -81.99609375 l 1
 263.000976562 -68.6630859375 264.500976562 -57.49609375 265.500976562 -48.49609375 c 0
 266.500976562 -39.49609375 267.333984375 -29.99609375 268.000976562 -19.99609375 c 0
 268.66796875 -9.99609375 269.16796875 1.3369140625 269.500976562 14.00390625 c 0
 269.833984375 26.6708984375 270.333984375 43.6708984375 271.000976562 65.00390625 c 1
 235.000976562 74.00390625 l 2
 231.66796875 74.00390625 228.834960938 74.1708984375 226.501953125 74.50390625 c 0
 224.168945312 74.8369140625 222.3359375 75.00390625 221.002929688 75.00390625 c 2
 215.002929688 75.00390625 l 2
 212.3359375 75.00390625 207.168945312 75.3369140625 199.501953125 76.00390625 c 0
 191.834960938 76.6708984375 184.334960938 77.6708984375 177.001953125 79.00390625 c 0
 173.001953125 79.00390625 170.168945312 79.3369140625 168.501953125 80.00390625 c 0
 166.834960938 80.6708984375 161.334960938 82.00390625 152.001953125 84.00390625 c 0
 148.668945312 85.3369140625 145.501953125 86.169921875 142.501953125 86.5029296875 c 0
 139.501953125 86.8359375 137.001953125 87.6689453125 135.001953125 89.001953125 c 0
 132.334960938 89.001953125 127.834960938 89.8349609375 121.501953125 91.501953125 c 0
 115.168945312 93.1689453125 111.001953125 94.3359375 109.001953125 95.0029296875 c 0
 107.668945312 96.3359375 104.3359375 98.3359375 99.0029296875 101.002929688 c 0
 93.669921875 103.669921875 89.3369140625 105.669921875 86.00390625 107.002929688 c 2
 76.00390625 111.002929688 l 2
 70.6708984375 115.669921875 64.6708984375 119.836914062 58.00390625 123.50390625 c 0
 51.3369140625 127.170898438 48.669921875 132.00390625 50.0029296875 138.00390625 c 0
 52.669921875 148.670898438 57.669921875 161.337890625 65.0029296875 176.004882812 c 0
 72.3359375 190.671875 80.8359375 205.171875 90.5029296875 219.504882812 c 0
 100.169921875 233.837890625 110.502929688 247.170898438 121.502929688 259.50390625 c 0
 132.502929688 271.836914062 143.3359375 281.669921875 154.002929688 289.002929688 c 1
 157.002929688 289.002929688 l 1
 165.669921875 283.002929688 173.002929688 274.002929688 179.002929688 262.002929688 c 0
 185.002929688 250.002929688 191.669921875 240.3359375 199.002929688 233.002929688 c 0
 208.3359375 220.3359375 220.502929688 208.3359375 235.502929688 197.002929688 c 0
 250.502929688 185.669921875 267.169921875 175.669921875 285.502929688 167.002929688 c 0
 303.8359375 158.3359375 323.168945312 151.502929688 343.501953125 146.502929688 c 0
 363.834960938 141.502929688 384.001953125 139.002929688 404.001953125 139.002929688 c 0
 407.334960938 139.002929688 409.66796875 140.669921875 411.000976562 144.002929688 c 0
 417.66796875 171.3359375 418.500976562 196.8359375 413.500976562 220.502929688 c 0
 408.500976562 244.169921875 399.500976562 265.502929688 386.500976562 284.502929688 c 0
 373.500976562 303.502929688 357.333984375 320.169921875 338.000976562 334.502929688 c 0
 318.66796875 348.8359375 298.000976562 360.668945312 276.000976562 370.001953125 c 0
 251.333984375 380.668945312 225.000976562 387.668945312 197.000976562 391.001953125 c 0
 169.000976562 394.334960938 140.66796875 396.001953125 112.000976562 396.001953125 c 1
 114.000976562 404.001953125 117.66796875 411.834960938 123.000976562 419.501953125 c 0
 128.333984375 427.168945312 133.666992188 434.3359375 139 441.002929688 c 0
 173.666992188 481.002929688 211.5 513.8359375 252.5 539.502929688 c 0
 293.5 565.169921875 338 584.669921875 386 598.002929688 c 0
 386 601.3359375 385.833007812 604.668945312 385.5 608.001953125 c 0
 385.166992188 611.334960938 385.666992188 615.001953125 387 619.001953125 c 1
 387.666992188 618.334960938 387.5 622.834960938 386.5 632.501953125 c 0
 385.5 642.168945312 384.5 652.668945312 383.5 664.001953125 c 0
 382.5 675.334960938 381.666992188 685.66796875 381 695.000976562 c 0
 380.333007812 704.333984375 380.333007812 708.666992188 381 708 c 2
 397 709 l 2
 406.333007812 709 414.333007812 708.5 421 707.5 c 0
 427.666992188 706.5 433.666992188 706 439 706 c 0
 443.666992188 706 448.666992188 707 454 709 c 2
 540 728 l 1
 529 703 l 1
 506 658 l 1
EndSplineSet
EndChar

StartChar: percent
Encoding: 37 37 7
Width: 548
GlyphClass: 2
Flags: W
LayerCount: 2
Fore
SplineSet
358 308 m 1
 342.666992188 300.666992188 329.333984375 290.502929688 318.000976562 277.502929688 c 0
 306.66796875 264.502929688 296.834960938 249.8359375 288.501953125 233.502929688 c 0
 280.168945312 217.169921875 273.001953125 199.836914062 267.001953125 181.50390625 c 0
 261.001953125 163.170898438 255.668945312 145.00390625 251.001953125 127.00390625 c 0
 247.001953125 111.670898438 243.168945312 96.50390625 239.501953125 81.50390625 c 0
 235.834960938 66.50390625 233.334960938 53.00390625 232.001953125 41.00390625 c 2
 228.001953125 14.00390625 l 2
 225.334960938 12.00390625 222.66796875 9.8369140625 220.000976562 7.50390625 c 0
 217.333984375 5.1708984375 215.333984375 3.6708984375 214.000976562 3.00390625 c 2
 204.000976562 3.00390625 l 2
 190.66796875 3.00390625 177.16796875 5.8369140625 163.500976562 11.50390625 c 0
 149.833984375 17.1708984375 136.500976562 24.1708984375 123.500976562 32.50390625 c 0
 110.500976562 40.8369140625 98.5009765625 49.50390625 87.5009765625 58.50390625 c 0
 76.5009765625 67.50390625 67.0009765625 75.3369140625 59.0009765625 82.00390625 c 2
 55.0009765625 87.00390625 l 1
 56.0009765625 103.00390625 l 2
 58.66796875 114.336914062 65.0009765625 127.669921875 75.0009765625 143.002929688 c 0
 85.0009765625 158.3359375 96.833984375 173.668945312 110.500976562 189.001953125 c 0
 124.16796875 204.334960938 138.500976562 219.001953125 153.500976562 233.001953125 c 0
 168.500976562 247.001953125 182.000976562 258.334960938 194.000976562 267.001953125 c 0
 249.333984375 309.668945312 293.500976562 346.668945312 326.500976562 378.001953125 c 0
 359.500976562 409.334960938 385.16796875 437.001953125 403.500976562 461.001953125 c 0
 421.833984375 485.001953125 434.666992188 506.168945312 442 524.501953125 c 0
 449.333007812 542.834960938 455 560.66796875 459 578.000976562 c 0
 463.666992188 596.66796875 467.5 614.334960938 470.5 631.001953125 c 0
 473.5 647.668945312 476 662.668945312 478 676.001953125 c 0
 477.333007812 676.668945312 477.333007812 680.001953125 478 686.001953125 c 2
 481 696.001953125 l 2
 483.666992188 698.001953125 486.333984375 700.168945312 489.000976562 702.501953125 c 0
 491.66796875 704.834960938 493.66796875 706.334960938 495.000976562 707.001953125 c 2
 506.000976562 708.001953125 l 2
 518.66796875 708.001953125 531.500976562 705.501953125 544.500976562 700.501953125 c 0
 557.500976562 695.501953125 569.833984375 689.168945312 581.500976562 681.501953125 c 0
 593.16796875 673.834960938 604.16796875 665.834960938 614.500976562 657.501953125 c 0
 624.833984375 649.168945312 634.000976562 641.668945312 642.000976562 635.001953125 c 0
 643.333984375 634.334960938 644.166992188 633.66796875 644.5 633.000976562 c 0
 644.833007812 632.333984375 645.333007812 631.666992188 646 631 c 0
 647.333007812 628.333007812 648.833007812 626.666015625 650.5 625.999023438 c 0
 652.166992188 625.33203125 653.333984375 624.665039062 654.000976562 623.998046875 c 2
 651.000976562 607.998046875 l 2
 647.66796875 596.665039062 641.000976562 583.33203125 631.000976562 567.999023438 c 0
 621.000976562 552.666015625 609.500976562 537.333007812 596.500976562 522 c 0
 583.500976562 506.666992188 569.66796875 492 555.000976562 478 c 0
 540.333984375 464 526.666992188 452.666992188 514 444 c 2
 358 308 l 1
396 604.002929688 m 0
 386.666992188 566.002929688 369.334960938 530.333984375 344.001953125 497.000976562 c 0
 318.668945312 463.66796875 289.668945312 431.66796875 257.001953125 401.000976562 c 1
 246.001953125 393.000976562 l 1
 245.501953125 392.500976562 l 2
 245.168945312 392.16796875 244.3359375 392.000976562 243.002929688 392.000976562 c 0
 242.3359375 392.000976562 241.8359375 392.16796875 241.502929688 392.500976562 c 2
 241.002929688 393.000976562 l 2
 236.3359375 393.66796875 230.002929688 395.66796875 222.002929688 399.000976562 c 0
 214.002929688 402.333984375 206.3359375 406.333984375 199.002929688 411.000976562 c 0
 191.669921875 415.66796875 185.502929688 420.334960938 180.502929688 425.001953125 c 0
 175.502929688 429.668945312 173.3359375 433.668945312 174.002929688 437.001953125 c 0
 175.3359375 440.334960938 178.002929688 442.66796875 182.002929688 444.000976562 c 0
 186.002929688 445.333984375 188.669921875 448.000976562 190.002929688 452.000976562 c 2
 190.002929688 456.000976562 l 1
 177.3359375 481.333984375 168.502929688 506.833984375 163.502929688 532.500976562 c 0
 158.502929688 558.16796875 159.669921875 586.000976562 167.002929688 616.000976562 c 0
 174.3359375 646.000976562 186.668945312 672.500976562 204.001953125 695.500976562 c 0
 221.334960938 718.500976562 247.66796875 737.000976562 283.000976562 751.000976562 c 2
 295.000976562 756.000976562 l 1
 355.000976562 709.000976562 l 1
 362.000976562 714.000976562 l 1
 368.000976562 722.000976562 l 2
 370.000976562 724.66796875 371.333984375 727.334960938 372.000976562 730.001953125 c 0
 372.66796875 731.334960938 373.000976562 733.001953125 373.000976562 735.001953125 c 0
 373.000976562 738.334960938 373.333984375 741.001953125 374.000976562 743.001953125 c 1
 382.66796875 735.668945312 389.16796875 726.3359375 393.500976562 715.002929688 c 0
 397.833984375 703.669921875 400.666992188 691.502929688 402 678.502929688 c 0
 403.333007812 665.502929688 403.333007812 652.502929688 402 639.502929688 c 0
 400.666992188 626.502929688 398.666992188 614.669921875 396 604.002929688 c 0
318.000976562 635.000976562 m 2
 322 648.000976562 l 1
 322 652.000976562 l 2
 321.333007812 655.333984375 320.833007812 657.666992188 320.5 659 c 0
 320.166992188 660.333007812 318 661 314 661 c 0
 302.666992188 661 293 657.166992188 285 649.5 c 0
 277 641.833007812 270 632.5 264 621.5 c 0
 258 610.5 253.166992188 599.166992188 249.5 587.5 c 0
 245.833007812 575.833007812 243 566 241 558 c 2
 238 545 l 2
 236.666992188 539 235.833984375 533.333007812 235.500976562 528 c 0
 235.16796875 522.666992188 237.66796875 520 243.000976562 520 c 0
 251.000976562 520 259.000976562 524.666992188 267.000976562 534 c 0
 275.000976562 543.333007812 282.500976562 554.333007812 289.500976562 567 c 0
 296.500976562 579.666992188 302.500976562 592.333984375 307.500976562 605.000976562 c 0
 312.500976562 617.66796875 316.000976562 627.66796875 318.000976562 635.000976562 c 2
574 173.000976562 m 0
 564.666992188 135.000976562 547.333984375 99.333984375 522.000976562 66.0009765625 c 0
 496.66796875 32.66796875 468.000976562 0.66796875 436.000976562 -29.9990234375 c 1
 424.000976562 -37.9990234375 l 1
 423.000976562 -38.4990234375 l 2
 422.333984375 -38.83203125 421.666992188 -38.9990234375 421 -38.9990234375 c 0
 420.333007812 -38.9990234375 420 -38.666015625 420 -37.9990234375 c 0
 414.666992188 -37.33203125 408.166992188 -35.33203125 400.5 -31.9990234375 c 0
 392.833007812 -28.666015625 385.333007812 -24.666015625 378 -19.9990234375 c 0
 370.666992188 -15.33203125 364.333984375 -10.6650390625 359.000976562 -5.998046875 c 0
 353.66796875 -1.3310546875 351.334960938 2.6689453125 352.001953125 6.001953125 c 0
 353.334960938 9.3349609375 356.001953125 11.66796875 360.001953125 13.0009765625 c 0
 364.001953125 14.333984375 366.668945312 17.0009765625 368.001953125 21.0009765625 c 0
 368.001953125 21.66796875 367.834960938 22.5009765625 367.501953125 23.5009765625 c 2
 367.001953125 25.0009765625 l 2
 355.001953125 50.333984375 346.501953125 75.833984375 341.501953125 101.500976562 c 0
 336.501953125 127.16796875 337.668945312 155.000976562 345.001953125 185.000976562 c 0
 352.334960938 215.000976562 364.66796875 241.500976562 382.000976562 264.500976562 c 0
 399.333984375 287.500976562 426.000976562 306.000976562 462.000976562 320.000976562 c 2
 474.000976562 325.000976562 l 1
 532.000976562 278.000976562 l 1
 540.000976562 283.000976562 l 2
 543.333984375 286.333984375 546.666992188 291.666992188 550 299 c 0
 550.666992188 301 550.833984375 302.833007812 550.500976562 304.5 c 0
 550.16796875 306.166992188 550.66796875 308.666992188 552.000976562 312 c 1
 560.66796875 304.666992188 567.16796875 295.333984375 571.500976562 284.000976562 c 0
 575.833984375 272.66796875 578.666992188 260.500976562 580 247.500976562 c 0
 581.333007812 234.500976562 581.333007812 221.500976562 580 208.500976562 c 0
 578.666992188 195.500976562 576.666992188 183.66796875 574 173.000976562 c 0
496 204.000976562 m 2
 499 217.000976562 l 1
 499 221.000976562 l 2
 499.666992188 224.333984375 499.666992188 226.666992188 499 228 c 0
 498.333007812 229.333007812 496 230 492 230 c 0
 480.666992188 230 471 226.166992188 463 218.5 c 0
 455 210.833007812 448.166992188 201.5 442.5 190.5 c 0
 436.833007812 179.5 432.166015625 168.166992188 428.499023438 156.5 c 0
 424.83203125 144.833007812 421.999023438 135 419.999023438 127 c 2
 415.999023438 114 l 2
 414.666015625 108 413.833007812 102.333007812 413.5 97 c 0
 413.166992188 91.6669921875 415.666992188 89 421 89 c 0
 429 89 437 93.6669921875 445 103 c 0
 453 112.333007812 460.5 123.333007812 467.5 136 c 0
 474.5 148.666992188 480.5 161.333984375 485.5 174.000976562 c 0
 490.5 186.66796875 494 196.66796875 496 204.000976562 c 2
EndSplineSet
EndChar

StartChar: ampersand
Encoding: 38 38 8
Width: 634
GlyphClass: 2
Flags: W
LayerCount: 2
Fore
SplineSet
568 349 m 2
 570.666992188 349 573.328125 349.16796875 575.995117188 349.500976562 c 0
 578.662109375 349.833984375 581.662109375 350.333984375 584.995117188 351.000976562 c 2
 700.995117188 360.000976562 l 1
 685.995117188 330.000976562 l 2
 684.662109375 323.333984375 683.829101562 318.166992188 683.49609375 314.5 c 0
 683.163085938 310.833007812 682.330078125 307 680.997070312 303 c 0
 679.6640625 299.666992188 678.6640625 295.5 677.997070312 290.5 c 0
 677.330078125 285.5 675.997070312 278.666992188 673.997070312 270 c 0
 670.6640625 256.666992188 669.6640625 244 670.997070312 232 c 1
 604.997070312 248 l 1
 606.997070312 236.666992188 607.497070312 223.333984375 606.497070312 208.000976562 c 0
 605.497070312 192.66796875 603.330078125 178.334960938 599.997070312 165.001953125 c 0
 590.6640625 127.668945312 581.831054688 98.6689453125 573.498046875 78.001953125 c 0
 565.165039062 57.3349609375 554.165039062 42.001953125 540.498046875 32.001953125 c 0
 526.831054688 22.001953125 508.998046875 16.001953125 486.998046875 14.001953125 c 0
 464.998046875 12.001953125 435.998046875 11.001953125 399.998046875 11.001953125 c 2
 380.998046875 11.001953125 l 1
 371.998046875 11.001953125 l 2
 365.998046875 11.001953125 362.665039062 11.3349609375 361.998046875 12.001953125 c 2
 315.998046875 63.001953125 l 1
 259.998046875 -11.998046875 l 1
 215.998046875 0.001953125 181.665039062 18.001953125 156.998046875 42.001953125 c 0
 143.665039062 53.3349609375 131.83203125 68.16796875 121.499023438 86.5009765625 c 0
 111.166015625 104.833984375 102.666015625 124.500976562 95.9990234375 145.500976562 c 0
 89.33203125 166.500976562 85.33203125 188.000976562 83.9990234375 210.000976562 c 0
 82.666015625 232.000976562 84.3330078125 252.000976562 89 270.000976562 c 0
 93.6669921875 288.66796875 100.666992188 304.500976562 110 317.500976562 c 0
 119.333007812 330.500976562 130.333007812 341.16796875 143 349.500976562 c 0
 155.666992188 357.833984375 169.833984375 364.000976562 185.500976562 368.000976562 c 0
 201.16796875 372.000976562 218.000976562 374.66796875 236.000976562 376.000976562 c 1
 226.000976562 387.333984375 216.66796875 398.166992188 208.000976562 408.5 c 0
 199.333984375 418.833007812 192.333984375 429.5 187.000976562 440.5 c 0
 181.66796875 451.5 178.334960938 463.166992188 177.001953125 475.5 c 0
 175.668945312 487.833007812 177.001953125 501.666015625 181.001953125 516.999023438 c 2
 182.001953125 519.999023438 l 2
 188.668945312 546.666015625 199.668945312 568.999023438 215.001953125 586.999023438 c 0
 230.334960938 604.999023438 248.66796875 619.499023438 270.000976562 630.499023438 c 0
 291.333984375 641.499023438 315.500976562 649.33203125 342.500976562 653.999023438 c 0
 369.500976562 658.666015625 398.333984375 660.999023438 429.000976562 660.999023438 c 2
 467.000976562 663.999023438 l 1
 518.000976562 608.999023438 l 1
 585.000976562 692.999023438 l 1
 602.000976562 686.999023438 l 1
 614.66796875 676.999023438 628.16796875 665.33203125 642.500976562 651.999023438 c 0
 656.833984375 638.666015625 669.666992188 625.333007812 681 612 c 0
 692.333007812 598.666992188 701.333007812 585.833984375 708 573.500976562 c 0
 714.666992188 561.16796875 717 550.66796875 715 542.000976562 c 0
 714.333007812 538.66796875 711.333007812 536.16796875 706 534.500976562 c 0
 700.666992188 532.833984375 694.333984375 531.500976562 687.000976562 530.500976562 c 0
 679.66796875 529.500976562 671.66796875 528.333984375 663.000976562 527.000976562 c 0
 654.333984375 525.66796875 646.666992188 523.66796875 640 521.000976562 c 2
 533 454.000976562 l 1
 531 462.000976562 523.833007812 470.333984375 511.5 479.000976562 c 0
 499.166992188 487.66796875 485.333984375 498.66796875 470.000976562 512.000976562 c 1
 497.000976562 563.000976562 l 1
 489.000976562 563.000976562 l 2
 475.000976562 562.333984375 459.333984375 561.166992188 442.000976562 559.5 c 0
 424.66796875 557.833007812 408.16796875 554.833007812 392.500976562 550.5 c 0
 376.833984375 546.166992188 363.166992188 540 351.5 532 c 0
 339.833007812 524 332.333007812 513 329 499 c 0
 326.333007812 487 327.333007812 475.5 332 464.5 c 0
 336.666992188 453.5 343.5 443.166992188 352.5 433.5 c 0
 361.5 423.833007812 372 414.833007812 384 406.5 c 0
 396 398.166992188 408 391 420 385 c 0
 424 383.666992188 436.166992188 379.5 456.5 372.5 c 0
 476.833007812 365.5 500.333007812 358.333007812 527 351 c 1
 568 349 l 2
391.994140625 106.000976562 m 1
 404.99609375 104.000976562 l 1
 416.329101562 108.000976562 424.49609375 113.000976562 429.49609375 119.000976562 c 0
 434.49609375 125.000976562 437.99609375 131.66796875 439.99609375 139.000976562 c 0
 441.329101562 146.333984375 442.662109375 155.666992188 443.995117188 167 c 0
 445.328125 178.333007812 446.995117188 188 448.995117188 196 c 0
 453.662109375 219.333007812 447.995117188 240.333007812 431.995117188 259 c 0
 415.995117188 277.666992188 395.995117188 293.666992188 371.995117188 307 c 0
 359.995117188 311 346.662109375 315.666992188 331.995117188 321 c 1
 323.995117188 319 315.162109375 316 305.495117188 312 c 0
 295.828125 308 286.661132812 303.166992188 277.994140625 297.5 c 0
 269.327148438 291.833007812 261.827148438 285.333007812 255.494140625 278 c 0
 249.161132812 270.666992188 244.994140625 263 242.994140625 255 c 0
 236.327148438 229.666992188 239.494140625 206.833984375 252.494140625 186.500976562 c 0
 265.494140625 166.16796875 282.661132812 148.66796875 303.994140625 134.000976562 c 1
 391.994140625 106.000976562 l 1
EndSplineSet
EndChar

StartChar: quotesingle
Encoding: 39 39 9
Width: 195
GlyphClass: 2
Flags: W
LayerCount: 2
Fore
SplineSet
214 592 m 1
 215.000976562 607 l 2
 217.000976562 613 217.333984375 618.166992188 216.000976562 622.5 c 0
 214.66796875 626.833007812 212.500976562 631 209.500976562 635 c 0
 206.500976562 639 203.16796875 643.166992188 199.500976562 647.5 c 0
 195.833984375 651.833007812 192.666992188 657 190 663 c 1
 199 697 l 2
 200.333007812 699.666992188 203.833007812 701.666992188 209.5 703 c 0
 215.166992188 704.333007812 221.666992188 705.5 229 706.5 c 0
 236.333007812 707.5 244 708.166992188 252 708.5 c 0
 260 708.833007812 266.666992188 709 272 709 c 2
 278 709 l 1
 282 710 l 1
 327 706 l 2
 330.333007812 706 333 703.166992188 335 697.5 c 0
 337 691.833007812 338.333007812 686.666015625 339 681.999023438 c 0
 339.666992188 677.33203125 340 674.665039062 340 673.998046875 c 0
 338.666992188 670.665039062 336.666992188 664.33203125 334 654.999023438 c 0
 331.333007812 645.666015625 329 638.999023438 327 634.999023438 c 0
 319 617.666015625 310.833007812 603.333007812 302.5 592 c 0
 294.166992188 580.666992188 284.166992188 571 272.5 563 c 0
 260.833007812 555 246.5 548 229.5 542 c 0
 212.5 536 191.333007812 529.666992188 166 523 c 1
 214 592 l 1
EndSplineSet
EndChar

StartChar: parenleft
Encoding: 40 40 10
Width: 369
GlyphClass: 2
Flags: W
LayerCount: 2
Fore
SplineSet
217 234 m 0
 215.666992188 228.666992188 215.1640625 217.166992188 215.497070312 199.5 c 0
 215.830078125 181.833007812 216.997070312 162 218.997070312 140 c 0
 220.997070312 118 223.997070312 95.5 227.997070312 72.5 c 0
 231.997070312 49.5 236.997070312 30 242.997070312 14 c 0
 242.997070312 5.3330078125 243.6640625 3.666015625 244.997070312 8.9990234375 c 1
 243.6640625 5.666015625 240.1640625 2.8330078125 234.497070312 0.5 c 0
 228.830078125 -1.8330078125 223.997070312 -3 219.997070312 -3 c 0
 214.6640625 -3 207.331054688 -1.3330078125 197.998046875 2 c 0
 188.665039062 5.3330078125 183.33203125 9.666015625 181.999023438 14.9990234375 c 0
 173.999023438 43.666015625 165.999023438 70.666015625 157.999023438 95.9990234375 c 0
 149.999023438 121.33203125 142.83203125 145.999023438 136.499023438 169.999023438 c 0
 130.166015625 193.999023438 124.999023438 218.166015625 120.999023438 242.499023438 c 0
 116.999023438 266.83203125 114.999023438 292.33203125 114.999023438 318.999023438 c 0
 114.999023438 355.666015625 120.33203125 394.999023438 130.999023438 436.999023438 c 0
 145.666015625 497.666015625 171.333007812 550.166015625 208 594.499023438 c 0
 244.666992188 638.83203125 298 676.33203125 368 706.999023438 c 1
 393 715.999023438 l 1
 510 623.999023438 l 1
 500 617.999023438 l 2
 495.333007812 615.33203125 484.666015625 608.33203125 467.999023438 596.999023438 c 0
 451.33203125 585.666015625 431.165039062 569.833007812 407.498046875 549.5 c 0
 383.831054688 529.166992188 357.998046875 503.833984375 329.998046875 473.500976562 c 0
 301.998046875 443.16796875 274.998046875 408.000976562 248.998046875 368.000976562 c 0
 247.665039062 364.66796875 245.83203125 359.16796875 243.499023438 351.500976562 c 0
 241.166015625 343.833984375 238.333007812 333.666992188 235 321 c 0
 229.666992188 299.666992188 223.666992188 270.666992188 217 234 c 0
EndSplineSet
EndChar

StartChar: parenright
Encoding: 41 41 11
Width: 376
GlyphClass: 2
Flags: W
LayerCount: 2
Fore
SplineSet
335 480 m 0
 336.333007812 485.333007812 336.833984375 496.833007812 336.500976562 514.5 c 0
 336.16796875 532.166992188 334.834960938 552 332.501953125 574 c 0
 330.168945312 596 327.001953125 618.5 323.001953125 641.5 c 0
 319.001953125 664.5 314.001953125 684 308.001953125 700 c 0
 308.001953125 704.666992188 307.668945312 706.333984375 307.001953125 705.000976562 c 1
 308.334960938 708.333984375 311.66796875 711.166992188 317.000976562 713.5 c 0
 322.333984375 715.833007812 327.333984375 717 332.000976562 717 c 0
 337.333984375 717 344.666992188 715.333007812 354 712 c 0
 363.333007812 708.666992188 368.666015625 704.333984375 369.999023438 699.000976562 c 0
 377.999023438 670.333984375 385.999023438 643.333984375 393.999023438 618.000976562 c 0
 401.999023438 592.66796875 409.166015625 568.000976562 415.499023438 544.000976562 c 0
 421.83203125 520.000976562 426.999023438 495.66796875 430.999023438 471.000976562 c 0
 434.999023438 446.333984375 436.999023438 420.666992188 436.999023438 394 c 0
 436.999023438 358 431.666015625 319 420.999023438 277 c 0
 413.666015625 247 403.666015625 218.833007812 390.999023438 192.5 c 0
 378.33203125 166.166992188 362.499023438 141.833984375 343.499023438 119.500976562 c 0
 324.499023438 97.16796875 301.666015625 76.66796875 274.999023438 58.0009765625 c 0
 248.33203125 39.333984375 217.665039062 22.333984375 182.998046875 7.0009765625 c 2
 159.998046875 -1.9990234375 l 1
 40.998046875 90.0009765625 l 1
 51.998046875 96.0009765625 l 1
 83.498046875 117.000976562 l 2
 100.498046875 128.333984375 120.831054688 144.166992188 144.498046875 164.5 c 0
 168.165039062 184.833007812 193.83203125 210 221.499023438 240 c 0
 249.166015625 270 275.999023438 305.333007812 301.999023438 346 c 0
 305.33203125 354 310.33203125 369.666992188 316.999023438 393 c 0
 319.666015625 403.666992188 322.333007812 416.166992188 325 430.5 c 0
 327.666992188 444.833007812 331 461.333007812 335 480 c 0
EndSplineSet
EndChar

StartChar: asterisk
Encoding: 42 42 12
Width: 323
GlyphClass: 2
Flags: W
LayerCount: 2
Fore
SplineSet
367 617 m 1
 432 563.997070312 l 1
 402 552.997070312 l 1
 380 537.997070312 l 2
 376.666992188 535.330078125 373.5 532.330078125 370.5 528.997070312 c 0
 367.5 525.6640625 362.666992188 521.331054688 356 515.998046875 c 0
 344 507.998046875 334.666992188 499.998046875 328 491.998046875 c 1
 293 572.998046875 l 1
 270 559.998046875 l 2
 256.666992188 553.998046875 245.166992188 549.165039062 235.5 545.498046875 c 0
 225.833007812 541.831054688 216.666015625 538.831054688 207.999023438 536.498046875 c 0
 199.33203125 534.165039062 190.499023438 531.998046875 181.499023438 529.998046875 c 0
 172.499023438 527.998046875 162.33203125 525.665039062 150.999023438 522.998046875 c 1
 159.666015625 529.665039062 166.999023438 535.83203125 172.999023438 541.499023438 c 0
 178.999023438 547.166015625 184.999023438 552.999023438 190.999023438 558.999023438 c 2
 210.499023438 578.499023438 l 2
 217.499023438 585.499023438 226.33203125 593.666015625 236.999023438 602.999023438 c 2
 261.999023438 624.999023438 l 1
 250.999023438 647.999023438 l 2
 249.666015625 653.33203125 248.166015625 659.499023438 246.499023438 666.499023438 c 0
 244.83203125 673.499023438 243.33203125 680.499023438 241.999023438 687.499023438 c 0
 240.666015625 694.499023438 239.833007812 700.999023438 239.5 706.999023438 c 0
 239.166992188 712.999023438 239.666992188 717.999023438 241 721.999023438 c 2
 245 737.999023438 l 1
 252 750.999023438 l 1
 257 749.999023438 l 1
 318 671.999023438 l 1
 337 690.999023438 l 1
 386 748.999023438 l 1
 408.5 729.499023438 l 2
 413.5 725.166015625 419.333007812 722.333007812 426 721 c 2
 477 692 l 1
 457 675 l 1
 413 647 l 1
 413 644 l 1
 367 617 l 1
EndSplineSet
EndChar

StartChar: plus
Encoding: 43 43 13
Width: 447
GlyphClass: 2
Flags: W
LayerCount: 2
Fore
SplineSet
387 407 m 1
 389.666992188 407 392.1640625 407.1640625 394.497070312 407.497070312 c 0
 396.830078125 407.830078125 399.663085938 408.330078125 402.99609375 408.997070312 c 2
 524.99609375 417.997070312 l 1
 507.99609375 387.997070312 l 2
 505.99609375 381.330078125 504.829101562 376.163085938 504.49609375 372.49609375 c 0
 504.163085938 368.829101562 503.330078125 364.99609375 501.997070312 360.99609375 c 0
 500.6640625 357.663085938 499.6640625 353.49609375 498.997070312 348.49609375 c 0
 498.330078125 343.49609375 497.330078125 336.663085938 495.997070312 327.99609375 c 0
 495.330078125 324.663085938 494.830078125 321.330078125 494.497070312 317.997070312 c 0
 494.1640625 314.6640625 493.997070312 311.331054688 493.997070312 307.998046875 c 0
 493.997070312 302.665039062 494.6640625 296.665039062 495.997070312 289.998046875 c 1
 356.997070312 319.998046875 l 1
 347.997070312 294.998046875 l 2
 334.6640625 266.998046875 320.497070312 239.831054688 305.497070312 213.498046875 c 0
 290.497070312 187.165039062 273.6640625 163.665039062 254.997070312 142.998046875 c 1
 259.6640625 169.665039062 263.997070312 198.165039062 267.997070312 228.498046875 c 0
 271.997070312 258.831054688 274.6640625 294.998046875 275.997070312 336.998046875 c 1
 240.997070312 345.998046875 l 2
 233.6640625 349.331054688 224.831054688 352.998046875 214.498046875 356.998046875 c 0
 204.165039062 360.998046875 193.998046875 364.998046875 183.998046875 368.998046875 c 0
 173.998046875 372.998046875 165.165039062 377.165039062 157.498046875 381.498046875 c 0
 149.831054688 385.831054688 144.998046875 389.6640625 142.998046875 392.997070312 c 0
 141.665039062 394.997070312 139.165039062 397.330078125 135.498046875 399.997070312 c 2
 129.998046875 403.997070312 l 1
 118.998046875 416.997070312 l 1
 121.998046875 418.997070312 l 1
 279.998046875 408.997070312 l 1
 277.998046875 417.6640625 277.998046875 427.331054688 279.998046875 437.998046875 c 1
 280.665039062 437.331054688 280.33203125 441.331054688 278.999023438 449.998046875 c 0
 277.666015625 458.665039062 276.333007812 468.33203125 275 478.999023438 c 0
 273.666992188 489.666015625 272.5 499.333007812 271.5 508 c 0
 270.5 516.666992188 270.666992188 520.666992188 272 520 c 0
 290.666992188 521.333007812 304.5 522.333007812 313.5 523 c 0
 322.5 523.666992188 331.666992188 525.666992188 341 529 c 2
 422 547 l 1
 422 522 l 1
 405 464 l 1
 407 461 l 1
 387 407 l 1
EndSplineSet
EndChar

StartChar: comma
Encoding: 44 44 14
Width: 204
GlyphClass: 2
Flags: W
LayerCount: 2
Fore
SplineSet
42 -36 m 2
 52 -23.3330078125 58.33203125 -10.666015625 60.9990234375 2.0009765625 c 0
 62.9990234375 10.66796875 63.4990234375 17.66796875 62.4990234375 23.0009765625 c 0
 61.4990234375 28.333984375 59.666015625 33.1669921875 56.9990234375 37.5 c 0
 54.33203125 41.8330078125 50.9990234375 46.666015625 46.9990234375 51.9990234375 c 0
 42.9990234375 57.33203125 38.9990234375 63.9990234375 34.9990234375 71.9990234375 c 1
 46.9990234375 87.9990234375 l 2
 48.9990234375 90.666015625 53.4990234375 92.9990234375 60.4990234375 94.9990234375 c 0
 67.4990234375 96.9990234375 75.33203125 98.666015625 83.9990234375 99.9990234375 c 0
 92.666015625 101.33203125 101.333007812 102.33203125 110 102.999023438 c 0
 118.666992188 103.666015625 125.666992188 103.999023438 131 103.999023438 c 2
 137 103.999023438 l 1
 140 104.999023438 l 1
 188 98.9990234375 l 2
 192.666992188 98.9990234375 195.833984375 95.4990234375 197.500976562 88.4990234375 c 0
 199.16796875 81.4990234375 201.000976562 77.33203125 203.000976562 75.9990234375 c 0
 204.333984375 75.9990234375 205.000976562 75.666015625 205.000976562 74.9990234375 c 2
 204.000976562 73.9990234375 l 2
 204.66796875 72.666015625 204.66796875 70.666015625 204.000976562 67.9990234375 c 2
 203.000976562 65.9990234375 l 1
 205.66796875 65.9990234375 205.500976562 62.9990234375 202.500976562 56.9990234375 c 0
 199.500976562 50.9990234375 197.333984375 45.666015625 196.000976562 40.9990234375 c 0
 188.000976562 23.666015625 179.333984375 9.4990234375 170.000976562 -1.5009765625 c 0
 160.66796875 -12.5009765625 148.66796875 -22.5009765625 134.000976562 -31.5009765625 c 0
 119.333984375 -40.5009765625 101.166992188 -49.66796875 79.5 -59.0009765625 c 0
 57.8330078125 -68.333984375 31 -79.6669921875 -1 -93 c 1
 42 -36 l 2
EndSplineSet
EndChar

StartChar: hyphen
Encoding: 45 45 15
Width: 357
GlyphClass: 2
Flags: W
LayerCount: 2
Fore
SplineSet
99 280 m 1
 102.333007812 286 106.33203125 292.83203125 110.999023438 300.499023438 c 0
 115.666015625 308.166015625 118.999023438 315.999023438 120.999023438 323.999023438 c 2
 125.999023438 343.999023438 l 2
 127.33203125 349.33203125 128.499023438 353.83203125 129.499023438 357.499023438 c 0
 130.499023438 361.166015625 131.666015625 364.666015625 132.999023438 367.999023438 c 2
 136.999023438 383.999023438 l 1
 129.999023438 413.999023438 l 1
 207.999023438 409.999023438 l 2
 209.33203125 409.999023438 210.999023438 409.666015625 212.999023438 408.999023438 c 0
 214.999023438 408.33203125 216.33203125 407.999023438 216.999023438 407.999023438 c 0
 222.999023438 406.666015625 228.499023438 405.833007812 233.499023438 405.5 c 0
 238.499023438 405.166992188 244.999023438 405 252.999023438 405 c 2
 273.999023438 405 l 1
 440.999023438 432 l 2
 440.999023438 432.666992188 439.999023438 431.5 437.999023438 428.5 c 0
 435.999023438 425.5 433.499023438 421.833007812 430.499023438 417.5 c 0
 427.499023438 413.166992188 424.666015625 409 421.999023438 405 c 0
 419.33203125 401 417.33203125 398.666992188 415.999023438 398 c 0
 407.33203125 390.666992188 397.33203125 383 385.999023438 375 c 0
 374.666015625 367 360.333007812 359.666992188 343 353 c 2
 99 280 l 1
EndSplineSet
EndChar

StartChar: period
Encoding: 46 46 16
Width: 204
GlyphClass: 2
Flags: W
LayerCount: 2
Fore
SplineSet
198 70 m 2
 195.333007812 63.3330078125 193.833984375 58.6669921875 193.500976562 56 c 0
 193.16796875 53.3330078125 192.500976562 51 191.500976562 49 c 0
 190.500976562 47 188.833984375 44 186.500976562 40 c 0
 184.16796875 36 180.000976562 29.6669921875 174.000976562 21 c 0
 172.000976562 19 170.500976562 16.6669921875 169.500976562 14 c 0
 168.500976562 11.3330078125 166.333984375 8.3330078125 163.000976562 5 c 2
 160.000976562 0 l 2
 156.000976562 -5.3330078125 152.16796875 -10.3330078125 148.500976562 -15 c 0
 144.833984375 -19.6669921875 139.666992188 -22 133 -22 c 0
 131.666992188 -22 129.5 -21.8330078125 126.5 -21.5 c 0
 123.5 -21.1669921875 121.666992188 -21 121 -21 c 0
 109.666992188 -19.6669921875 96 -16.6669921875 80 -12 c 0
 64 -7.3330078125 49 -3.3330078125 35 0 c 1
 24 25 l 1
 28 38 l 1
 56 93 l 2
 60 101 63.3330078125 106.666992188 66 110 c 0
 68.6669921875 113.333007812 75.6669921875 117 87 121 c 1
 196 102 l 1
 202 83 l 1
 198 70 l 2
EndSplineSet
EndChar

StartChar: slash
Encoding: 47 47 17
Width: 495
GlyphClass: 2
Flags: W
LayerCount: 2
Fore
SplineSet
341 308 m 1
 325.666992188 300.666992188 312.337890625 290.499023438 301.004882812 277.499023438 c 0
 289.671875 264.499023438 279.838867188 249.83203125 271.505859375 233.499023438 c 0
 263.172851562 217.166015625 256.005859375 199.833007812 250.005859375 181.5 c 0
 244.005859375 163.166992188 238.672851562 145 234.005859375 127 c 0
 230.005859375 111.666992188 226.172851562 96.5 222.505859375 81.5 c 0
 218.838867188 66.5 216.338867188 53 215.005859375 41 c 2
 211.005859375 14 l 2
 208.338867188 12 205.671875 9.8330078125 203.004882812 7.5 c 0
 200.337890625 5.1669921875 198.337890625 3.6669921875 197.004882812 3 c 2
 187.004882812 3 l 2
 174.337890625 3 161.170898438 5.8330078125 147.50390625 11.5 c 0
 133.836914062 17.1669921875 120.50390625 24.1669921875 107.50390625 32.5 c 0
 94.50390625 40.8330078125 82.3369140625 49.5 71.00390625 58.5 c 0
 59.6708984375 67.5 50.00390625 75.3330078125 42.00390625 82 c 2
 38.00390625 87 l 1
 39.00390625 103 l 2
 41.6708984375 114.333007812 48.1708984375 127.666015625 58.50390625 142.999023438 c 0
 68.8369140625 158.33203125 80.669921875 173.665039062 94.0029296875 188.998046875 c 0
 107.3359375 204.331054688 121.502929688 218.998046875 136.502929688 232.998046875 c 0
 151.502929688 246.998046875 165.3359375 258.331054688 178.002929688 266.998046875 c 0
 232.669921875 309.665039062 276.502929688 346.665039062 309.502929688 377.998046875 c 0
 342.502929688 409.331054688 368.169921875 436.998046875 386.502929688 460.998046875 c 0
 404.8359375 484.998046875 417.668945312 506.165039062 425.001953125 524.498046875 c 0
 432.334960938 542.831054688 438.001953125 560.6640625 442.001953125 577.997070312 c 0
 446.668945312 596.6640625 450.501953125 614.331054688 453.501953125 630.998046875 c 0
 456.501953125 647.665039062 459.001953125 662.665039062 461.001953125 675.998046875 c 0
 460.334960938 676.665039062 460.66796875 679.998046875 462.000976562 685.998046875 c 2
 465.000976562 695.998046875 l 2
 467.000976562 697.998046875 469.333984375 700.165039062 472.000976562 702.498046875 c 0
 474.66796875 704.831054688 477.000976562 706.331054688 479.000976562 706.998046875 c 2
 489.000976562 707.998046875 l 2
 501.66796875 707.998046875 514.500976562 705.498046875 527.500976562 700.498046875 c 0
 540.500976562 695.498046875 552.833984375 689.165039062 564.500976562 681.498046875 c 0
 576.16796875 673.831054688 587.16796875 665.831054688 597.500976562 657.498046875 c 0
 607.833984375 649.165039062 617.000976562 641.665039062 625.000976562 634.998046875 c 0
 627.66796875 634.331054688 629.000976562 632.998046875 629.000976562 630.998046875 c 0
 631.000976562 628.331054688 632.500976562 625.998046875 633.500976562 623.998046875 c 0
 634.500976562 621.998046875 635.000976562 616.665039062 635.000976562 607.998046875 c 0
 631.66796875 596.665039062 625.000976562 583.33203125 615.000976562 567.999023438 c 0
 605.000976562 552.666015625 593.500976562 537.333007812 580.500976562 522 c 0
 567.500976562 506.666992188 553.66796875 492 539.000976562 478 c 0
 524.333984375 464 510.666992188 452.666992188 498 444 c 2
 341 308 l 1
EndSplineSet
EndChar

StartChar: zero
Encoding: 48 48 18
Width: 506
GlyphClass: 2
Flags: W
LayerCount: 2
Fore
SplineSet
590 423 m 0
 580.666992188 385 567.1640625 348.16796875 549.497070312 312.500976562 c 0
 531.830078125 276.833984375 510.997070312 242.166992188 486.997070312 208.5 c 0
 462.997070312 174.833007812 436.330078125 142.166015625 406.997070312 110.499023438 c 0
 377.6640625 78.83203125 346.997070312 47.6650390625 314.997070312 16.998046875 c 1
 290.997070312 -0.001953125 l 1
 289.497070312 -0.501953125 l 2
 288.497070312 -0.8349609375 287.330078125 -1.001953125 285.997070312 -1.001953125 c 0
 285.330078125 -1.001953125 284.330078125 -0.8349609375 282.997070312 -0.501953125 c 2
 280.997070312 -0.001953125 l 2
 272.330078125 1.998046875 260.163085938 6.498046875 244.49609375 13.498046875 c 0
 228.829101562 20.498046875 213.662109375 28.498046875 198.995117188 37.498046875 c 0
 184.328125 46.498046875 171.828125 55.6650390625 161.495117188 64.998046875 c 0
 151.162109375 74.3310546875 146.662109375 81.998046875 147.995117188 87.998046875 c 0
 148.662109375 91.3310546875 150.495117188 94.1640625 153.495117188 96.4970703125 c 0
 156.495117188 98.830078125 159.828125 100.997070312 163.495117188 102.997070312 c 0
 167.162109375 104.997070312 170.329101562 106.997070312 172.99609375 108.997070312 c 0
 175.663085938 110.997070312 177.330078125 113.997070312 177.997070312 117.997070312 c 0
 178.6640625 118.6640625 178.997070312 120.331054688 178.997070312 122.998046875 c 0
 178.997070312 124.998046875 179.330078125 126.331054688 179.997070312 126.998046875 c 0
 155.997070312 176.998046875 138.6640625 228.165039062 127.997070312 280.498046875 c 0
 117.330078125 332.831054688 119.330078125 388.331054688 133.997070312 446.998046875 c 0
 141.330078125 476.998046875 150.830078125 505.331054688 162.497070312 531.998046875 c 0
 174.1640625 558.665039062 189.331054688 583.33203125 207.998046875 605.999023438 c 0
 226.665039062 628.666015625 248.998046875 649.333007812 274.998046875 668 c 0
 300.998046875 686.666992188 331.998046875 703 367.998046875 717 c 2
 389.998046875 726 l 1
 509.998046875 633 l 2
 510.665039062 632.333007812 512.33203125 633.166015625 514.999023438 635.499023438 c 0
 517.666015625 637.83203125 520.333007812 639.999023438 523 641.999023438 c 0
 529 647.999023438 533.5 653.499023438 536.5 658.499023438 c 0
 539.5 663.499023438 541.666992188 668.999023438 543 674.999023438 c 0
 544.333007812 678.999023438 545 682.666015625 545 685.999023438 c 0
 545 688.666015625 545.666992188 693.333007812 547 700 c 1
 565 685.333007812 578.5 666.5 587.5 643.5 c 0
 596.5 620.5 602 596.166992188 604 570.5 c 0
 606 544.833007812 605.5 519 602.5 493 c 0
 599.5 467 595.333007812 443.666992188 590 423 c 0
493.997070312 516.000976562 m 2
 503.994140625 559 l 1
 505.994140625 570 l 1
 503.327148438 578.666992188 500.66015625 585.333984375 497.993164062 590.000976562 c 0
 495.326171875 594.66796875 488.326171875 597.000976562 476.993164062 597.000976562 c 0
 451.66015625 597.000976562 428.327148438 591.500976562 406.994140625 580.500976562 c 0
 385.661132812 569.500976562 366.328125 555.000976562 348.995117188 537.000976562 c 0
 331.662109375 519.000976562 316.162109375 498.833984375 302.495117188 476.500976562 c 0
 288.828125 454.16796875 276.995117188 431.500976562 266.995117188 408.500976562 c 0
 256.995117188 385.500976562 248.662109375 363.333984375 241.995117188 342.000976562 c 0
 235.328125 320.66796875 230.328125 302.334960938 226.995117188 287.001953125 c 0
 225.662109375 283.001953125 223.995117188 277.168945312 221.995117188 269.501953125 c 0
 219.995117188 261.834960938 217.662109375 253.334960938 214.995117188 244.001953125 c 0
 212.995117188 235.334960938 211.328125 226.66796875 209.995117188 218.000976562 c 0
 208.662109375 209.333984375 208.329101562 201.500976562 208.99609375 194.500976562 c 0
 209.663085938 187.500976562 211.830078125 181.66796875 215.497070312 177.000976562 c 0
 219.1640625 172.333984375 225.331054688 170.000976562 233.998046875 170.000976562 c 0
 253.331054688 170.000976562 272.6640625 176.66796875 291.997070312 190.000976562 c 0
 311.330078125 203.333984375 329.997070312 220.500976562 347.997070312 241.500976562 c 0
 365.997070312 262.500976562 383.1640625 286.000976562 399.497070312 312.000976562 c 0
 415.830078125 338.000976562 430.497070312 363.833984375 443.497070312 389.500976562 c 0
 456.497070312 415.16796875 467.330078125 439.16796875 475.997070312 461.500976562 c 0
 484.6640625 483.833984375 490.6640625 502.000976562 493.997070312 516.000976562 c 2
EndSplineSet
EndChar

StartChar: one
Encoding: 49 49 19
Width: 232
GlyphClass: 2
Flags: W
LayerCount: 2
Fore
SplineSet
325 489 m 2
 319 465 311.668945312 438.333007812 303.001953125 409 c 0
 294.334960938 379.666992188 284.16796875 349.5 272.500976562 318.5 c 0
 260.833984375 287.5 247.666992188 256.333007812 233 225 c 0
 218.333007812 193.666992188 201.833007812 163.833984375 183.5 135.500976562 c 0
 165.166992188 107.16796875 145 81.16796875 123 57.5009765625 c 0
 101 33.833984375 77 14.0009765625 51 -1.9990234375 c 1
 61 39.0009765625 l 1
 76 74.0009765625 l 1
 135 309.000976562 l 1
 136 316.000976562 l 2
 137.333007812 336.000976562 140 360.000976562 144 388.000976562 c 0
 148 416.000976562 152.5 444.66796875 157.5 474.000976562 c 0
 162.5 503.333984375 167 531.666992188 171 559 c 0
 175 586.333007812 177.666992188 609.333007812 179 628 c 2
 175 663 l 1
 337 700 l 1
 343 700 l 2
 347 700 349.666992188 697.166992188 351 691.5 c 0
 352.333007812 685.833007812 353.166015625 679.5 353.499023438 672.5 c 0
 353.83203125 665.5 353.83203125 659 353.499023438 653 c 2
 352.999023438 644 l 2
 352.33203125 624 351.33203125 608 349.999023438 596 c 0
 348.666015625 584 346.333007812 572.333007812 343 561 c 2
 325 489 l 2
EndSplineSet
EndChar

StartChar: two
Encoding: 50 50 20
Width: 527
GlyphClass: 2
Flags: W
LayerCount: 2
Fore
SplineSet
529 80 m 0
 527 72.6669921875 521.666015625 66.49609375 512.999023438 61.49609375 c 0
 504.33203125 56.49609375 495.999023438 51.3291015625 487.999023438 45.99609375 c 2
 475.999023438 39.99609375 l 2
 470.666015625 38.6630859375 464.833007812 36.330078125 458.5 32.9970703125 c 0
 452.166992188 29.6640625 447.666992188 27.3310546875 445 25.998046875 c 0
 443 24.6650390625 438.5 22.998046875 431.5 20.998046875 c 0
 424.5 18.998046875 419.666992188 17.998046875 417 17.998046875 c 0
 413.666992188 15.998046875 410.666992188 14.6650390625 408 13.998046875 c 0
 405.333007812 13.3310546875 402 12.3310546875 398 10.998046875 c 0
 388 8.998046875 381.833007812 7.6650390625 379.5 6.998046875 c 0
 377.166992188 6.3310546875 374 5.6640625 370 4.9970703125 c 0
 362 3.6640625 354 2.4970703125 346 1.4970703125 c 0
 338 0.4970703125 332.666992188 -0.0029296875 330 -0.0029296875 c 2
 324 -0.0029296875 l 2
 320.666992188 -0.0029296875 309.666992188 -1.0029296875 291 -3.0029296875 c 2
 197 -3.0029296875 l 2
 177 -3.0029296875 157.666992188 -2.0029296875 139 -0.0029296875 c 0
 120.333007812 1.9970703125 104 6.830078125 90 14.4970703125 c 0
 76 22.1640625 64.8330078125 33.6640625 56.5 48.9970703125 c 0
 48.1669921875 64.330078125 44.333984375 85.6630859375 45.0009765625 112.99609375 c 2
 46.5009765625 121.99609375 l 2
 47.5009765625 127.99609375 48.333984375 131.663085938 49.0009765625 132.99609375 c 2
 50.0009765625 133.99609375 l 2
 50.66796875 134.663085938 51.0009765625 135.330078125 51.0009765625 135.997070312 c 2
 64.0009765625 155.997070312 l 2
 64.66796875 157.997070312 68.5009765625 162.6640625 75.5009765625 169.997070312 c 0
 82.5009765625 177.330078125 87.0009765625 182.330078125 89.0009765625 184.997070312 c 0
 104.333984375 201.6640625 120.833984375 221.331054688 138.500976562 243.998046875 c 0
 156.16796875 266.665039062 174.500976562 289.33203125 193.500976562 311.999023438 c 0
 212.500976562 334.666015625 231.500976562 355.333007812 250.500976562 374 c 0
 269.500976562 392.666992188 288.000976562 406 306.000976562 414 c 0
 321.333984375 420.666992188 334.000976562 425.666992188 344.000976562 429 c 0
 354.000976562 432.333007812 366.000976562 437.666015625 380.000976562 444.999023438 c 2
 394.000976562 448.499023438 l 2
 400.66796875 450.166015625 407.834960938 451.833007812 415.501953125 453.5 c 0
 423.168945312 455.166992188 430.3359375 456.666992188 437.002929688 458 c 0
 443.669921875 459.333007812 448.002929688 460 450.002929688 460 c 2
 466.002929688 461 l 2
 478.002929688 461 490.169921875 461.666992188 502.502929688 463 c 0
 514.8359375 464.333007812 525.668945312 467.666015625 535.001953125 472.999023438 c 0
 535.668945312 472.999023438 536.001953125 473.666015625 536.001953125 474.999023438 c 2
 536.001953125 483.999023438 l 1
 533.001953125 487.999023438 l 2
 521.001953125 497.999023438 509.834960938 506.83203125 499.501953125 514.499023438 c 0
 489.168945312 522.166015625 478.3359375 528.499023438 467.002929688 533.499023438 c 0
 455.669921875 538.499023438 443.502929688 542.33203125 430.502929688 544.999023438 c 0
 417.502929688 547.666015625 403.002929688 548.999023438 387.002929688 548.999023438 c 0
 370.3359375 548.999023438 353.668945312 546.33203125 337.001953125 540.999023438 c 0
 320.334960938 535.666015625 303.834960938 528.999023438 287.501953125 520.999023438 c 0
 271.168945312 512.999023438 254.501953125 503.999023438 237.501953125 493.999023438 c 0
 220.501953125 483.999023438 203.668945312 474.666015625 187.001953125 465.999023438 c 0
 187.001953125 465.33203125 186.334960938 464.83203125 185.001953125 464.499023438 c 2
 183.001953125 463.999023438 l 1
 185.001953125 473.999023438 189.834960938 491.33203125 197.501953125 515.999023438 c 0
 205.168945312 540.666015625 214.168945312 565.999023438 224.501953125 591.999023438 c 0
 234.834960938 617.999023438 245.501953125 640.999023438 256.501953125 660.999023438 c 0
 267.501953125 680.999023438 277.668945312 690.999023438 287.001953125 690.999023438 c 0
 323.001953125 690.999023438 358.501953125 687.499023438 393.501953125 680.499023438 c 0
 428.501953125 673.499023438 461.001953125 661.666015625 491.001953125 644.999023438 c 0
 521.001953125 628.33203125 547.001953125 606.665039062 569.001953125 579.998046875 c 0
 591.001953125 553.331054688 606.668945312 520.331054688 616.001953125 480.998046875 c 1
 616.001953125 477.998046875 l 2
 618.001953125 470.665039062 619.001953125 461.33203125 619.001953125 449.999023438 c 0
 619.001953125 438.666015625 618.001953125 428.666015625 616.001953125 419.999023438 c 1
 556.001953125 419.999023438 496.334960938 406.666015625 437.001953125 379.999023438 c 0
 383.001953125 356.666015625 340.668945312 320.166015625 310.001953125 270.499023438 c 0
 279.334960938 220.83203125 255.001953125 159.665039062 237.001953125 86.998046875 c 0
 235.668945312 83.6650390625 237.001953125 81.998046875 241.001953125 81.998046875 c 0
 261.001953125 81.998046875 278.834960938 85.1650390625 294.501953125 91.498046875 c 0
 310.168945312 97.8310546875 325.001953125 106.331054688 339.001953125 116.998046875 c 0
 353.001953125 127.665039062 367.168945312 140.165039062 381.501953125 154.498046875 c 0
 395.834960938 168.831054688 411.66796875 183.998046875 429.000976562 199.998046875 c 0
 434.333984375 204.665039062 440.666992188 211.165039062 448 219.498046875 c 0
 455.333007812 227.831054688 462.833007812 236.331054688 470.5 244.998046875 c 0
 478.166992188 253.665039062 485.5 261.998046875 492.5 269.998046875 c 0
 499.5 277.998046875 505.666992188 283.998046875 511 287.998046875 c 1
 515 287.998046875 l 1
 521 279.331054688 525.666992188 266.331054688 529 248.998046875 c 0
 532.333007812 231.665039062 534.5 212.83203125 535.5 192.499023438 c 0
 536.5 172.166015625 536.5 151.833007812 535.5 131.5 c 0
 534.5 111.166992188 532.333007812 94 529 80 c 0
EndSplineSet
EndChar

StartChar: three
Encoding: 51 51 21
Width: 508
GlyphClass: 2
Flags: W
LayerCount: 2
Fore
SplineSet
426 365 m 1
 384 352.333007812 343.162109375 341.33203125 303.495117188 331.999023438 c 0
 263.828125 322.666015625 222.995117188 313.999023438 180.995117188 305.999023438 c 1
 184.328125 311.999023438 186.995117188 318.666015625 188.995117188 325.999023438 c 0
 190.995117188 333.33203125 192.995117188 340.999023438 194.995117188 348.999023438 c 0
 200.328125 368.999023438 204.495117188 388.999023438 207.495117188 408.999023438 c 0
 210.495117188 428.999023438 212.662109375 445.666015625 213.995117188 458.999023438 c 1
 217.995117188 465.999023438 l 1
 293.995117188 453.999023438 l 2
 303.995117188 452.666015625 317.828125 451.499023438 335.495117188 450.499023438 c 0
 353.162109375 449.499023438 371.662109375 448.999023438 390.995117188 448.999023438 c 2
 491.995117188 463.999023438 l 1
 493.328125 469.33203125 494.828125 474.33203125 496.495117188 478.999023438 c 0
 498.162109375 483.666015625 499.662109375 488.666015625 500.995117188 493.999023438 c 0
 505.662109375 511.999023438 508.829101562 525.999023438 510.49609375 535.999023438 c 0
 512.163085938 545.999023438 510.830078125 553.499023438 506.497070312 558.499023438 c 0
 502.1640625 563.499023438 494.497070312 566.499023438 483.497070312 567.499023438 c 0
 472.497070312 568.499023438 456.997070312 568.999023438 436.997070312 568.999023438 c 0
 393.6640625 568.999023438 353.331054688 563.83203125 315.998046875 553.499023438 c 0
 278.665039062 543.166015625 238.998046875 527.333007812 196.998046875 506 c 1
 192.998046875 505 l 2
 187.665039062 505 182.998046875 509.833007812 178.998046875 519.5 c 0
 174.998046875 529.166992188 171.831054688 540 169.498046875 552 c 0
 167.165039062 564 165.498046875 575.5 164.498046875 586.5 c 0
 163.498046875 597.5 163.331054688 604.333007812 163.998046875 607 c 2
 163.998046875 611 l 1
 177.998046875 664 l 2
 179.998046875 675.333007812 183.331054688 683.333007812 187.998046875 688 c 0
 188.665039062 690.666992188 190.665039062 692 193.998046875 692 c 0
 205.331054688 695.333007812 214.998046875 697.333007812 222.998046875 698 c 0
 230.998046875 698.666992188 238.665039062 699 245.998046875 699 c 2
 263.998046875 699 l 2
 315.331054688 699 360.1640625 689.5 398.497070312 670.5 c 0
 436.830078125 651.5 471.997070312 628 503.997070312 600 c 0
 503.997070312 599.333007812 504.330078125 599.333007812 504.997070312 600 c 0
 504.997070312 600.666992188 505.6640625 601 506.997070312 601 c 0
 508.997070312 601 510.6640625 603 511.997070312 607 c 2
 523.997070312 664 l 1
 528.6640625 664 531.831054688 660.833007812 533.498046875 654.5 c 0
 535.165039062 648.166992188 536.498046875 640.833984375 537.498046875 632.500976562 c 0
 538.498046875 624.16796875 539.331054688 616.16796875 539.998046875 608.500976562 c 0
 540.665039062 600.833984375 541.998046875 596.000976562 543.998046875 594.000976562 c 0
 551.998046875 583.333984375 559.665039062 573.000976562 566.998046875 563.000976562 c 0
 574.331054688 553.000976562 579.331054688 541.333984375 581.998046875 528.000976562 c 1
 574.665039062 532.000976562 570.165039062 534.833984375 568.498046875 536.500976562 c 0
 566.831054688 538.16796875 561.331054688 539.000976562 551.998046875 539.000976562 c 1
 550.998046875 535.000976562 l 2
 551.665039062 523.66796875 552.165039062 513.16796875 552.498046875 503.500976562 c 0
 552.831054688 493.833984375 552.331054688 484.000976562 550.998046875 474.000976562 c 1
 578.998046875 478.000976562 l 2
 580.998046875 479.333984375 586.831054688 480.333984375 596.498046875 481.000976562 c 0
 606.165039062 481.66796875 614.998046875 482.000976562 622.998046875 482.000976562 c 2
 635.998046875 482.000976562 l 1
 639.998046875 480.000976562 l 1
 639.998046875 470.000976562 l 1
 631.998046875 464.000976562 l 2
 626.665039062 460.000976562 622.998046875 457.000976562 620.998046875 455.000976562 c 2
 572.998046875 424.000976562 l 2
 572.331054688 423.333984375 571.498046875 421.166992188 570.498046875 417.5 c 0
 569.498046875 413.833007812 568.331054688 410.333007812 566.998046875 407 c 0
 564.331054688 397.666992188 561.6640625 390.666992188 558.997070312 386 c 1
 538.997070312 383 l 1
 537.997070312 377 l 2
 528.6640625 341 516.831054688 305.833007812 502.498046875 271.5 c 0
 488.165039062 237.166992188 466.998046875 203 438.998046875 169 c 0
 420.331054688 145 397.331054688 122.666992188 369.998046875 102 c 0
 342.665039062 81.3330078125 313.498046875 63.3330078125 282.498046875 48 c 0
 251.498046875 32.6669921875 219.331054688 20.6669921875 185.998046875 12 c 0
 152.665039062 3.3330078125 120.665039062 -1 89.998046875 -1 c 0
 85.998046875 -1 83.8310546875 -0.3330078125 83.498046875 1 c 0
 83.1650390625 2.3330078125 82.33203125 4.666015625 80.9990234375 7.9990234375 c 2
 79.9990234375 12.9990234375 l 2
 80.666015625 19.666015625 80.9990234375 26.3330078125 80.9990234375 33 c 2
 80.9990234375 56 l 2
 80.9990234375 79.3330078125 81.33203125 103.666015625 81.9990234375 128.999023438 c 0
 82.666015625 154.33203125 85.666015625 176.999023438 90.9990234375 196.999023438 c 2
 91.9990234375 201.999023438 l 1
 143.999023438 204.666015625 194.666015625 213.333007812 243.999023438 228 c 0
 293.33203125 242.666992188 339.33203125 268 381.999023438 304 c 0
 406.666015625 326 426.333007812 347 441 367 c 1
 426 365 l 1
EndSplineSet
EndChar

StartChar: four
Encoding: 52 52 22
Width: 575
GlyphClass: 2
Flags: W
LayerCount: 2
Fore
SplineSet
136 400 m 0
 142.666992188 426 149.333007812 450.500976562 156 473.500976562 c 0
 162.666992188 496.500976562 170 519.16796875 178 541.500976562 c 0
 186 563.833984375 194.666992188 586.166992188 204 608.5 c 0
 213.333007812 630.833007812 224 654.333007812 236 679 c 0
 236.666992188 680.333007812 237.333984375 681.166015625 238.000976562 681.499023438 c 0
 238.66796875 681.83203125 239.000976562 682.33203125 239.000976562 682.999023438 c 2
 241.000976562 686.999023438 l 2
 244.333984375 692.999023438 246.833984375 696.666015625 248.500976562 697.999023438 c 0
 250.16796875 699.33203125 254.66796875 699.999023438 262.000976562 699.999023438 c 0
 263.333984375 699.999023438 265.166992188 699.83203125 267.5 699.499023438 c 0
 269.833007812 699.166015625 271.666015625 698.999023438 272.999023438 698.999023438 c 0
 277.666015625 698.33203125 285.833007812 696.83203125 297.5 694.499023438 c 0
 309.166992188 692.166015625 321.833984375 689.499023438 335.500976562 686.499023438 c 0
 349.16796875 683.499023438 362.500976562 680.499023438 375.500976562 677.499023438 c 0
 388.500976562 674.499023438 398.000976562 671.999023438 404.000976562 669.999023438 c 0
 405.333984375 669.999023438 406.333984375 669.83203125 407.000976562 669.499023438 c 2
 408.000976562 668.999023438 l 1
 405.000976562 648.999023438 l 2
 403.66796875 644.999023438 403.000976562 641.999023438 403.000976562 639.999023438 c 0
 403.000976562 636.666015625 402.66796875 634.666015625 402.000976562 633.999023438 c 0
 401.333984375 630.666015625 400.500976562 628.166015625 399.500976562 626.499023438 c 0
 398.500976562 624.83203125 397.16796875 622.83203125 395.500976562 620.499023438 c 0
 393.833984375 618.166015625 391.666992188 614.666015625 389 609.999023438 c 0
 386.333007812 605.33203125 383 598.33203125 379 588.999023438 c 0
 375.666992188 583.666015625 370 571.333007812 362 552 c 0
 354 532.666992188 345.666992188 512 337 490 c 0
 328.333007812 468 320.166015625 447.333007812 312.499023438 428 c 0
 304.83203125 408.666992188 299.999023438 396 297.999023438 390 c 1
 307.999023438 390 l 2
 317.999023438 390 329.999023438 390.833007812 343.999023438 392.5 c 0
 357.999023438 394.166992188 372.166015625 396.833984375 386.499023438 400.500976562 c 0
 400.83203125 404.16796875 414.665039062 409.16796875 427.998046875 415.500976562 c 0
 441.331054688 421.833984375 452.331054688 429.666992188 460.998046875 439 c 1
 472.998046875 484 l 2
 480.998046875 516 487.998046875 549 493.998046875 583 c 0
 499.998046875 617 502.665039062 652.333007812 501.998046875 689 c 1
 512.998046875 690 l 2
 528.998046875 690 541.831054688 685 551.498046875 675 c 0
 561.165039062 665 568.83203125 652.666992188 574.499023438 638 c 0
 580.166015625 623.333007812 584.833007812 607 588.5 589 c 0
 592.166992188 571 596.166992188 554.333007812 600.5 539 c 0
 604.833007812 523.666992188 610.333007812 510.333984375 617 499.000976562 c 0
 623.666992188 487.66796875 632.666992188 481.000976562 644 479.000976562 c 2
 648 479.000976562 l 2
 658.666992188 479.000976562 666.333984375 480.333984375 671.000976562 483.000976562 c 1
 641.000976562 400.000976562 l 1
 643.000976562 329.000976562 l 2
 643.000976562 327.000976562 642.66796875 324.333984375 642.000976562 321.000976562 c 2
 641.000976562 315.000976562 l 1
 599.000976562 315.000976562 l 1
 598.333984375 309.000976562 596.666992188 298.16796875 594 282.500976562 c 0
 591.333007812 266.833984375 588.5 250.333984375 585.5 233.000976562 c 0
 582.5 215.66796875 579.333007812 199.000976562 576 183.000976562 c 0
 572.666992188 167.000976562 570 156.000976562 568 150.000976562 c 2
 562 124.000976562 l 2
 558.666992188 112.66796875 555.833984375 102.500976562 553.500976562 93.5009765625 c 0
 551.16796875 84.5009765625 548.500976562 75.5009765625 545.500976562 66.5009765625 c 0
 542.500976562 57.5009765625 539.000976562 47.833984375 535.000976562 37.5009765625 c 0
 531.000976562 27.16796875 526.000976562 14.66796875 520.000976562 0.0009765625 c 1
 496.000976562 0.0009765625 l 2
 488.66796875 0.0009765625 475.334960938 0.5009765625 456.001953125 1.5009765625 c 0
 436.668945312 2.5009765625 417.168945312 4.5009765625 397.501953125 7.5009765625 c 0
 377.834960938 10.5009765625 360.66796875 14.5009765625 346.000976562 19.5009765625 c 0
 331.333984375 24.5009765625 325.000976562 31.0009765625 327.000976562 39.0009765625 c 2
 330.000976562 50.0009765625 l 2
 331.333984375 54.0009765625 334.166992188 60.66796875 338.5 70.0009765625 c 0
 342.833007812 79.333984375 346.666015625 86.0009765625 349.999023438 90.0009765625 c 2
 447.999023438 300.000976562 l 1
 289.999023438 300.000976562 l 2
 271.999023438 302.66796875 255.83203125 304.66796875 241.499023438 306.000976562 c 0
 227.166015625 307.333984375 213.666015625 308.500976562 200.999023438 309.500976562 c 0
 188.33203125 310.500976562 175.999023438 311.66796875 163.999023438 313.000976562 c 0
 151.999023438 314.333984375 139.666015625 316.666992188 126.999023438 320 c 0
 125.666015625 320 123.333007812 322 120 326 c 0
 116.666992188 330 113.166992188 334.5 109.5 339.5 c 0
 105.833007812 344.5 102.5 349 99.5 353 c 0
 96.5 357 95 359.333007812 95 360 c 2
 95 364 l 2
 95.6669921875 365.333007812 96.1669921875 366.5 96.5 367.5 c 2
 97 369 l 2
 99 371 101.666992188 373.5 105 376.5 c 0
 108.333007812 379.5 112 382.5 116 385.5 c 0
 120 388.5 123.833007812 391.333007812 127.5 394 c 0
 131.166992188 396.666992188 134 398.666992188 136 400 c 0
EndSplineSet
EndChar

StartChar: five
Encoding: 53 53 23
Width: 525
GlyphClass: 2
Flags: W
LayerCount: 2
Fore
SplineSet
659 610 m 0
 655.666992188 596 650.3359375 581.833007812 643.002929688 567.5 c 0
 635.669921875 553.166992188 627.336914062 539.333984375 618.00390625 526.000976562 c 0
 608.670898438 512.66796875 598.50390625 500.334960938 587.50390625 489.001953125 c 0
 576.50390625 477.668945312 565.670898438 467.668945312 555.00390625 459.001953125 c 1
 551.00390625 459.001953125 l 1
 544.336914062 467.001953125 538.169921875 478.334960938 532.502929688 493.001953125 c 0
 526.8359375 507.668945312 521.3359375 520.001953125 516.002929688 530.001953125 c 0
 506.002929688 546.001953125 494.8359375 559.168945312 482.502929688 569.501953125 c 0
 470.169921875 579.834960938 456.502929688 587.834960938 441.502929688 593.501953125 c 0
 426.502929688 599.168945312 410.002929688 603.001953125 392.002929688 605.001953125 c 0
 374.002929688 607.001953125 355.002929688 608.001953125 335.002929688 608.001953125 c 0
 331.002929688 608.001953125 328.3359375 606.334960938 327.002929688 603.001953125 c 0
 318.3359375 569.001953125 314.002929688 538.334960938 314.002929688 511.001953125 c 0
 314.002929688 471.001953125 322.3359375 439.668945312 339.002929688 417.001953125 c 0
 355.669921875 394.334960938 380.002929688 374.334960938 412.002929688 357.001953125 c 0
 435.3359375 343.668945312 461.002929688 334.668945312 489.002929688 330.001953125 c 0
 517.002929688 325.334960938 545.002929688 323.001953125 573.002929688 323.001953125 c 1
 571.669921875 318.334960938 569.669921875 312.334960938 567.002929688 305.001953125 c 0
 564.3359375 297.668945312 561.502929688 290.3359375 558.502929688 283.002929688 c 0
 555.502929688 275.669921875 552.169921875 268.502929688 548.502929688 261.502929688 c 0
 544.8359375 254.502929688 541.3359375 249.002929688 538.002929688 245.002929688 c 0
 479.3359375 167.002929688 413.8359375 106.502929688 341.502929688 63.5029296875 c 0
 269.169921875 20.5029296875 196.669921875 -0.9970703125 124.002929688 -0.9970703125 c 0
 114.002929688 -0.9970703125 107.002929688 8.669921875 103.002929688 28.0029296875 c 0
 99.0029296875 47.3359375 96.669921875 69.6689453125 96.0029296875 95.001953125 c 0
 95.3359375 120.334960938 96.1689453125 145.16796875 98.501953125 169.500976562 c 0
 100.834960938 193.833984375 103.334960938 211.000976562 106.001953125 221.000976562 c 1
 107.501953125 220.500976562 l 2
 108.501953125 220.16796875 109.001953125 219.66796875 109.001953125 219.000976562 c 0
 133.668945312 201.000976562 158.168945312 186.000976562 182.501953125 174.000976562 c 0
 206.834960938 162.000976562 236.001953125 156.000976562 270.001953125 156.000976562 c 0
 286.668945312 156.000976562 302.3359375 159.000976562 317.002929688 165.000976562 c 0
 331.669921875 171.000976562 346.169921875 178.66796875 360.502929688 188.000976562 c 0
 374.8359375 197.333984375 389.3359375 207.666992188 404.002929688 219 c 0
 418.669921875 230.333007812 434.669921875 241.333007812 452.002929688 252 c 1
 456.002929688 261 l 1
 456.002929688 263 l 1
 449.3359375 268.333007812 440.168945312 271.666015625 428.501953125 272.999023438 c 0
 416.834960938 274.33203125 405.001953125 274.999023438 393.001953125 274.999023438 c 0
 387.001953125 274.999023438 379.834960938 275.499023438 371.501953125 276.499023438 c 0
 363.168945312 277.499023438 355.001953125 278.499023438 347.001953125 279.499023438 c 0
 339.001953125 280.499023438 332.001953125 281.499023438 326.001953125 282.499023438 c 0
 320.001953125 283.499023438 316.001953125 284.33203125 314.001953125 284.999023438 c 0
 296.001953125 291.666015625 278.501953125 298.999023438 261.501953125 306.999023438 c 0
 244.501953125 314.999023438 228.834960938 324.33203125 214.501953125 334.999023438 c 0
 200.168945312 345.666015625 187.001953125 358.499023438 175.001953125 373.499023438 c 0
 163.001953125 388.499023438 153.001953125 406.33203125 145.001953125 426.999023438 c 0
 143.668945312 429.666015625 141.501953125 434.666015625 138.501953125 441.999023438 c 0
 135.501953125 449.33203125 134.334960938 453.999023438 135.001953125 455.999023438 c 2
 130.001953125 473.999023438 l 1
 145.001953125 534.999023438 l 1
 207.001953125 664.999023438 l 2
 213.668945312 678.33203125 218.668945312 687.33203125 222.001953125 691.999023438 c 0
 225.334960938 696.666015625 229.66796875 698.999023438 235.000976562 698.999023438 c 0
 242.333984375 698.999023438 251.166992188 697.666015625 261.5 694.999023438 c 0
 271.833007812 692.33203125 287.666015625 690.999023438 308.999023438 690.999023438 c 2
 493.999023438 690.999023438 l 1
 499.999023438 689.999023438 l 2
 502.666015625 689.999023438 507.833007812 689.499023438 515.5 688.499023438 c 0
 523.166992188 687.499023438 530.333984375 686.33203125 537.000976562 684.999023438 c 0
 541.66796875 684.33203125 544.66796875 683.665039062 546.000976562 682.998046875 c 0
 547.333984375 682.331054688 552.666992188 680.998046875 562 678.998046875 c 0
 566 677.665039062 569.333007812 676.665039062 572 675.998046875 c 0
 574.666992188 675.331054688 577 673.998046875 579 671.998046875 c 0
 581 671.998046875 584.833007812 670.998046875 590.5 668.998046875 c 0
 596.166992188 666.998046875 600.333984375 665.331054688 603.000976562 663.998046875 c 0
 604.333984375 662.665039062 607.500976562 660.33203125 612.500976562 656.999023438 c 0
 617.500976562 653.666015625 621.66796875 651.333007812 625.000976562 650 c 2
 635.000976562 644 l 2
 640.333984375 638.666992188 646.166992188 633.5 652.5 628.5 c 0
 658.833007812 623.5 661 617.333007812 659 610 c 0
EndSplineSet
EndChar

StartChar: six
Encoding: 54 54 24
Width: 534
GlyphClass: 2
Flags: W
LayerCount: 2
Fore
SplineSet
360 374 m 0
 398.666992188 394 434.171875 406.666992188 466.504882812 412 c 0
 498.837890625 417.333007812 530.670898438 421 562.00390625 423 c 2
 577.00390625 424 l 1
 577.00390625 414 577.836914062 404 579.50390625 394 c 0
 581.170898438 384 582.670898438 373.833007812 584.00390625 363.5 c 0
 585.336914062 353.166992188 586.169921875 343 586.502929688 333 c 0
 586.8359375 323 585.668945312 313 583.001953125 303 c 2
 576.001953125 278 l 1
 540.001953125 173 l 1
 572.001953125 173 l 1
 568.668945312 159 560.668945312 143.833007812 548.001953125 127.5 c 0
 535.334960938 111.166992188 520.501953125 95.1669921875 503.501953125 79.5 c 0
 486.501953125 63.8330078125 469.001953125 49 451.001953125 35 c 0
 433.001953125 21 417.001953125 9.3330078125 403.001953125 -0 c 1
 397.668945312 3.3330078125 394.668945312 9 394.001953125 17 c 0
 393.334960938 25 392.66796875 31.6669921875 392.000976562 37 c 1
 368.000976562 35 345.66796875 34 325.000976562 34 c 0
 223.000976562 34 154.500976562 56.6669921875 119.500976562 102 c 0
 84.5009765625 147.333007812 78.66796875 218 102.000976562 314 c 0
 115.333984375 367.333007812 135.500976562 416 162.500976562 460 c 0
 189.500976562 504 226.66796875 548 274.000976562 592 c 1
 266.66796875 594 261.834960938 596 259.501953125 598 c 0
 257.168945312 600 256.501953125 602.666992188 257.501953125 606 c 0
 258.501953125 609.333007812 260.501953125 613.833007812 263.501953125 619.5 c 0
 266.501953125 625.166992188 269.334960938 632.666992188 272.001953125 642 c 2
 273.001953125 646 l 1
 289.001953125 652 304.501953125 658.5 319.501953125 665.5 c 0
 334.501953125 672.5 349.168945312 678.833007812 363.501953125 684.5 c 0
 377.834960938 690.166992188 392.16796875 695 406.500976562 699 c 0
 420.833984375 703 436.000976562 705 452.000976562 705 c 0
 460.000976562 705 467.66796875 704 475.000976562 702 c 2
 501.000976562 696 l 1
 498.333984375 694 496.166992188 690.166992188 494.5 684.5 c 0
 492.833007812 678.833007812 491.333007812 675 490 673 c 2
 488 665 l 1
 492.666992188 663.666992188 500.333984375 661.333984375 511.000976562 658.000976562 c 0
 521.66796875 654.66796875 533.000976562 651.16796875 545.000976562 647.500976562 c 0
 557.000976562 643.833984375 568.500976562 640.166992188 579.500976562 636.5 c 0
 590.500976562 632.833007812 598.000976562 630 602.000976562 628 c 0
 612.66796875 624 622.66796875 619.333007812 632.000976562 614 c 0
 641.333984375 608.666992188 649.000976562 601.333984375 655.000976562 592.000976562 c 1
 644.333984375 583.333984375 635.000976562 574.833984375 627.000976562 566.500976562 c 0
 619.000976562 558.16796875 611.333984375 549.66796875 604.000976562 541.000976562 c 0
 596.66796875 532.333984375 589.334960938 523.500976562 582.001953125 514.500976562 c 0
 574.668945312 505.500976562 566.668945312 496.000976562 558.001953125 486.000976562 c 1
 548.001953125 486.000976562 l 1
 542.668945312 491.333984375 534.001953125 499.333984375 522.001953125 510.000976562 c 0
 510.001953125 520.66796875 496.668945312 531.334960938 482.001953125 542.001953125 c 0
 467.334960938 552.668945312 452.16796875 562.001953125 436.500976562 570.001953125 c 0
 420.833984375 578.001953125 406.666992188 582.001953125 394 582.001953125 c 0
 388.666992188 582.001953125 385.666992188 581.668945312 385 581.001953125 c 0
 373 579.001953125 360.5 570.001953125 347.5 554.001953125 c 0
 334.5 538.001953125 322.333007812 520.001953125 311 500.001953125 c 0
 299.666992188 480.001953125 289.833984375 460.334960938 281.500976562 441.001953125 c 0
 273.16796875 421.668945312 268.000976562 407.668945312 266.000976562 399.001953125 c 0
 262.66796875 383.001953125 260.000976562 367.168945312 258.000976562 351.501953125 c 0
 256.000976562 335.834960938 255.333984375 320.66796875 256.000976562 306.000976562 c 1
 260.000976562 309.333984375 266.000976562 314.166992188 274.000976562 320.5 c 0
 282.000976562 326.833007812 290.833984375 333.5 300.500976562 340.5 c 0
 310.16796875 347.5 320.16796875 354 330.500976562 360 c 0
 340.833984375 366 350.666992188 370.666992188 360 374 c 0
411.004882812 159 m 1
 416.337890625 182.333007812 417.004882812 205.833007812 413.004882812 229.5 c 0
 409.004882812 253.166992188 403.004882812 276 395.004882812 298 c 1
 340.004882812 289 l 1
 271.004882812 251 l 1
 273.671875 233.666992188 278.004882812 219 284.004882812 207 c 0
 290.004882812 195 298.504882812 185.5 309.504882812 178.5 c 0
 320.504882812 171.5 334.171875 166.5 350.504882812 163.5 c 0
 366.837890625 160.5 387.004882812 159 411.004882812 159 c 1
EndSplineSet
EndChar

StartChar: seven
Encoding: 55 55 25
Width: 552
GlyphClass: 2
Flags: W
LayerCount: 2
Fore
SplineSet
264 26 m 2
 247.333007812 9.3330078125 231.334960938 1.00390625 216.001953125 1.00390625 c 0
 207.334960938 1.00390625 197.334960938 3.8369140625 186.001953125 9.50390625 c 0
 174.668945312 15.1708984375 163.168945312 22.6708984375 151.501953125 32.00390625 c 0
 139.834960938 41.3369140625 128.66796875 52.3369140625 118.000976562 65.00390625 c 0
 107.333984375 77.6708984375 98.6669921875 91.00390625 92 105.00390625 c 1
 105 129.00390625 l 2
 107.666992188 131.00390625 110.333984375 132.836914062 113.000976562 134.50390625 c 0
 115.66796875 136.170898438 118.000976562 137.670898438 120.000976562 139.00390625 c 0
 144.000976562 156.336914062 167.16796875 173.669921875 189.500976562 191.002929688 c 0
 211.833984375 208.3359375 237.666992188 231.668945312 267 261.001953125 c 0
 296.333007812 290.334960938 332 328.834960938 374 376.501953125 c 0
 416 424.168945312 468.666992188 486.668945312 532 564.001953125 c 0
 532 565.334960938 528 566.001953125 520 566.001953125 c 2
 500 566.001953125 l 2
 482 566.001953125 457.333007812 563.668945312 426 559.001953125 c 0
 394.666992188 554.334960938 362 548.501953125 328 541.501953125 c 0
 294 534.501953125 261 527.168945312 229 519.501953125 c 0
 197 511.834960938 171.666992188 504.66796875 153 498.000976562 c 1
 191 650.000976562 l 2
 191 650.66796875 193.666992188 652.16796875 199 654.500976562 c 0
 204.333007812 656.833984375 209.333007812 658.666992188 214 660 c 0
 225.333007812 664.666992188 238.333007812 669 253 673 c 0
 267.666992188 677 280.333984375 679.333007812 291.000976562 680 c 2
 303.000976562 680 l 2
 308.333984375 680 315.833984375 680.333007812 325.500976562 681 c 0
 335.16796875 681.666992188 349.334960938 682 368.001953125 682 c 0
 390.001953125 682 417.001953125 681.166992188 449.001953125 679.5 c 0
 481.001953125 677.833007812 512.834960938 673.833007812 544.501953125 667.5 c 0
 576.168945312 661.166992188 604.8359375 652.166992188 630.502929688 640.5 c 0
 656.169921875 628.833007812 673.669921875 613 683.002929688 593 c 1
 669.002929688 576 l 2
 632.3359375 532.666992188 604.3359375 497.666992188 585.002929688 471 c 0
 565.669921875 444.333007812 550.669921875 422 540.002929688 404 c 0
 529.3359375 386 521.168945312 370 515.501953125 356 c 0
 509.834960938 342 502.66796875 326.166992188 494.000976562 308.5 c 0
 485.333984375 290.833007812 472.666992188 269 456 243 c 0
 439.333007812 217 415 183 383 141 c 1
 264 26 l 2
EndSplineSet
EndChar

StartChar: eight
Encoding: 56 56 26
Width: 609
GlyphClass: 2
Flags: W
LayerCount: 2
Fore
SplineSet
260 -12 m 1
 216 0 181.670898438 18.001953125 157.00390625 42.001953125 c 0
 143.670898438 53.3349609375 131.670898438 67.66796875 121.00390625 85.0009765625 c 0
 110.336914062 102.333984375 101.669921875 120.833984375 95.0029296875 140.500976562 c 0
 88.3359375 160.16796875 84.1689453125 180.500976562 82.501953125 201.500976562 c 0
 80.8349609375 222.500976562 82.3349609375 242.000976562 87.001953125 260.000976562 c 0
 96.3349609375 297.333984375 114.16796875 323.666992188 140.500976562 339 c 0
 166.833984375 354.333007812 197.666992188 363.333007812 233 366 c 1
 223 377.333007812 213.833007812 388.166015625 205.5 398.499023438 c 0
 197.166992188 408.83203125 190.333984375 419.499023438 185.000976562 430.499023438 c 0
 179.66796875 441.499023438 176.16796875 453.166015625 174.500976562 465.499023438 c 0
 172.833984375 477.83203125 174.000976562 491.665039062 178.000976562 506.998046875 c 2
 179.000976562 509.998046875 l 2
 185.66796875 536.665039062 197.000976562 560.665039062 213.000976562 581.998046875 c 0
 229.000976562 603.331054688 248.333984375 621.498046875 271.000976562 636.498046875 c 0
 293.66796875 651.498046875 319.000976562 662.998046875 347.000976562 670.998046875 c 0
 375.000976562 678.998046875 404.000976562 682.998046875 434.000976562 682.998046875 c 2
 472.000976562 685.998046875 l 1
 509.000976562 573.998046875 l 1
 574.000976562 648.998046875 l 1
 581.000976562 642.998046875 l 2
 598.333984375 629.665039062 615.333984375 615.998046875 632.000976562 601.998046875 c 0
 648.66796875 587.998046875 662.834960938 572.831054688 674.501953125 556.498046875 c 0
 686.168945312 540.165039062 694.501953125 522.33203125 699.501953125 502.999023438 c 0
 704.501953125 483.666015625 704.001953125 461.999023438 698.001953125 437.999023438 c 0
 693.334960938 419.33203125 686.334960938 403.499023438 677.001953125 390.499023438 c 0
 667.668945312 377.499023438 656.668945312 366.83203125 644.001953125 358.499023438 c 0
 631.334960938 350.166015625 617.16796875 343.999023438 601.500976562 339.999023438 c 0
 585.833984375 335.999023438 569.333984375 333.33203125 552.000976562 331.999023438 c 1
 572.66796875 308.666015625 587.834960938 282.999023438 597.501953125 254.999023438 c 0
 607.168945312 226.999023438 608.001953125 196.999023438 600.001953125 164.999023438 c 0
 592.668945312 135.666015625 581.668945312 111.333007812 567.001953125 92 c 0
 552.334960938 72.6669921875 534.66796875 57.1669921875 514.000976562 45.5 c 0
 493.333984375 33.8330078125 470.166992188 25.5 444.5 20.5 c 0
 418.833007812 15.5 391.333007812 12.6669921875 362 12 c 1
 310 63 l 1
 260 -12 l 1
487.00390625 553.001953125 m 2
 473.00390625 552.334960938 457.333007812 551.168945312 440 549.501953125 c 0
 422.666992188 547.834960938 406.166992188 544.834960938 390.5 540.501953125 c 0
 374.833007812 536.168945312 361.166015625 530.001953125 349.499023438 522.001953125 c 0
 337.83203125 514.001953125 330.33203125 503.001953125 326.999023438 489.001953125 c 0
 323.666015625 477.001953125 324.333007812 465.501953125 329 454.501953125 c 0
 333.666992188 443.501953125 340.5 433.168945312 349.5 423.501953125 c 0
 358.5 413.834960938 369 404.834960938 381 396.501953125 c 0
 393 388.168945312 405 381.001953125 417 375.001953125 c 0
 424.333007812 372.334960938 431.333007812 369.834960938 438 367.501953125 c 0
 444.666992188 365.168945312 451.666992188 363.001953125 459 361.001953125 c 0
 467.666992188 363.001953125 476 367.334960938 484 374.001953125 c 0
 492 380.668945312 499.333007812 388.3359375 506 397.002929688 c 0
 512.666992188 405.669921875 518.333984375 415.002929688 523.000976562 425.002929688 c 0
 527.66796875 435.002929688 531.000976562 444.3359375 533.000976562 453.002929688 c 0
 535.000976562 462.3359375 534.333984375 469.668945312 531.000976562 475.001953125 c 0
 527.66796875 480.334960938 522.834960938 485.001953125 516.501953125 489.001953125 c 0
 510.168945312 493.001953125 502.8359375 497.168945312 494.502929688 501.501953125 c 0
 486.169921875 505.834960938 478.336914062 511.334960938 471.00390625 518.001953125 c 1
 495.00390625 553.001953125 l 1
 487.00390625 553.001953125 l 2
339 104.002929688 m 1
 349.666992188 108.002929688 360.999023438 113.00390625 372.999023438 119.00390625 c 0
 384.999023438 125.00390625 395.999023438 131.670898438 405.999023438 139.00390625 c 0
 415.999023438 146.336914062 424.666015625 154.00390625 431.999023438 162.00390625 c 0
 439.33203125 170.00390625 443.999023438 178.00390625 445.999023438 186.00390625 c 0
 450.666015625 209.336914062 444.999023438 230.336914062 428.999023438 249.00390625 c 0
 412.999023438 267.670898438 392.999023438 283.670898438 368.999023438 297.00390625 c 0
 361.666015625 299.00390625 354.666015625 301.170898438 347.999023438 303.50390625 c 0
 341.33203125 305.836914062 335.33203125 308.336914062 329.999023438 311.00390625 c 0
 321.999023438 309.00390625 313.166015625 306.00390625 303.499023438 302.00390625 c 0
 293.83203125 298.00390625 284.665039062 293.170898438 275.998046875 287.50390625 c 0
 267.331054688 281.836914062 259.6640625 275.336914062 252.997070312 268.00390625 c 0
 246.330078125 260.670898438 241.997070312 253.00390625 239.997070312 245.00390625 c 0
 236.6640625 232.336914062 238.331054688 221.169921875 244.998046875 211.502929688 c 0
 251.665039062 201.8359375 260.83203125 193.002929688 272.499023438 185.002929688 c 0
 284.166015625 177.002929688 296.833007812 169.502929688 310.5 162.502929688 c 0
 324.166992188 155.502929688 336.666992188 148.3359375 348 141.002929688 c 1
 339 104.002929688 l 1
EndSplineSet
EndChar

StartChar: nine
Encoding: 57 57 27
Width: 572
GlyphClass: 2
Flags: W
LayerCount: 2
Fore
SplineSet
475 48 m 1
 455 32.6669921875 433.830078125 20.3310546875 411.497070312 10.998046875 c 0
 389.1640625 1.6650390625 359.997070312 -3.001953125 323.997070312 -3.001953125 c 0
 309.997070312 -3.001953125 293.6640625 -2.001953125 274.997070312 -0.001953125 c 1
 244.997070312 28.998046875 l 1
 299.6640625 54.3310546875 344.831054688 85.8310546875 380.498046875 123.498046875 c 0
 416.165039062 161.165039062 443.665039062 203.33203125 462.998046875 249.999023438 c 2
 463.998046875 252.999023438 l 2
 466.665039062 263.666015625 459.33203125 270.999023438 441.999023438 274.999023438 c 0
 422.666015625 278.999023438 402.999023438 282.999023438 382.999023438 286.999023438 c 0
 362.999023438 290.999023438 343.83203125 295.499023438 325.499023438 300.499023438 c 0
 307.166015625 305.499023438 289.666015625 311.166015625 272.999023438 317.499023438 c 0
 256.33203125 323.83203125 241.999023438 331.33203125 229.999023438 339.999023438 c 0
 216.666015625 351.999023438 204.166015625 365.166015625 192.499023438 379.499023438 c 0
 180.83203125 393.83203125 170.999023438 408.999023438 162.999023438 424.999023438 c 0
 154.999023438 440.999023438 149.499023438 457.83203125 146.499023438 475.499023438 c 0
 143.499023438 493.166015625 144.33203125 511.666015625 148.999023438 530.999023438 c 0
 156.999023438 561.666015625 171.33203125 586.333007812 191.999023438 605 c 0
 212.666015625 623.666992188 236.999023438 638 264.999023438 648 c 0
 292.999023438 658 322.999023438 664.666992188 354.999023438 668 c 0
 386.999023438 671.333007812 417.999023438 673 447.999023438 673 c 0
 462.666015625 673 476.666015625 672.833007812 489.999023438 672.5 c 0
 503.33203125 672.166992188 515.665039062 671.666992188 526.998046875 671 c 1
 574.998046875 697 l 1
 577.665039062 693 583.665039062 688 592.998046875 682 c 0
 602.331054688 676 611.831054688 670.166992188 621.498046875 664.5 c 0
 631.165039062 658.833007812 639.665039062 653.833007812 646.998046875 649.5 c 2
 657.998046875 643 l 2
 657.331054688 639.666992188 656.831054688 634.333984375 656.498046875 627.000976562 c 0
 656.165039062 619.66796875 655.998046875 611.66796875 655.998046875 603.000976562 c 0
 655.998046875 595.000976562 655.831054688 587.000976562 655.498046875 579.000976562 c 0
 655.165039062 571.000976562 654.665039062 565.000976562 653.998046875 561.000976562 c 0
 652.665039062 557.66796875 651.33203125 556.000976562 649.999023438 556.000976562 c 0
 645.33203125 556.000976562 642.999023438 556.333984375 642.999023438 557.000976562 c 0
 642.999023438 558.333984375 639.33203125 559.000976562 631.999023438 559.000976562 c 1
 627.999023438 541.66796875 624.83203125 522.66796875 622.499023438 502.000976562 c 0
 620.166015625 481.333984375 617.999023438 460.666992188 615.999023438 440 c 0
 613.999023438 419.333007812 612.33203125 399.5 610.999023438 380.5 c 0
 609.666015625 361.5 607.999023438 345 605.999023438 331 c 1
 645.999023438 314 l 1
 643.999023438 306 l 1
 632.999023438 300.5 l 2
 628.33203125 298.166992188 623.499023438 295.666992188 618.499023438 293 c 0
 613.499023438 290.333007812 608.666015625 287.833007812 603.999023438 285.5 c 2
 592.999023438 280 l 2
 591.666015625 280 589.666015625 279 586.999023438 277 c 0
 584.33203125 275 582.665039062 273.333007812 581.998046875 272 c 0
 575.331054688 251.333007812 568.498046875 231.833007812 561.498046875 213.5 c 0
 554.498046875 195.166992188 546.831054688 177 538.498046875 159 c 0
 530.165039062 141 520.83203125 123 510.499023438 105 c 0
 500.166015625 87 488.333007812 68 475 48 c 1
507.997070312 506.997070312 m 0
 509.330078125 510.330078125 510.49609375 515.1640625 511.49609375 521.497070312 c 0
 512.49609375 527.830078125 513.663085938 533.663085938 514.99609375 538.99609375 c 2
 520.99609375 560.99609375 l 1
 503.99609375 577.99609375 l 1
 493.49609375 578.99609375 l 2
 486.49609375 579.663085938 480.329101562 579.99609375 474.99609375 579.99609375 c 2
 463.99609375 579.99609375 l 2
 449.99609375 579.99609375 435.49609375 579.329101562 420.49609375 577.99609375 c 0
 405.49609375 576.663085938 391.49609375 573.49609375 378.49609375 568.49609375 c 0
 365.49609375 563.49609375 354.163085938 556.329101562 344.49609375 546.99609375 c 0
 334.829101562 537.663085938 327.99609375 525.330078125 323.99609375 509.997070312 c 0
 319.99609375 493.997070312 322.163085938 478.6640625 330.49609375 463.997070312 c 0
 338.829101562 449.330078125 350.329101562 435.830078125 364.99609375 423.497070312 c 0
 379.663085938 411.1640625 395.99609375 400.1640625 413.99609375 390.497070312 c 0
 431.99609375 380.830078125 448.663085938 372.997070312 463.99609375 366.997070312 c 0
 466.663085938 365.6640625 469.163085938 364.831054688 471.49609375 364.498046875 c 0
 473.829101562 364.165039062 475.99609375 363.33203125 477.99609375 361.999023438 c 0
 483.99609375 367.33203125 488.663085938 373.165039062 491.99609375 379.498046875 c 0
 495.329101562 385.831054688 497.99609375 392.6640625 499.99609375 399.997070312 c 2
 508.99609375 454.997070312 l 2
 511.663085938 464.997070312 511.830078125 474.497070312 509.497070312 483.497070312 c 0
 507.1640625 492.497070312 506.6640625 500.330078125 507.997070312 506.997070312 c 0
EndSplineSet
EndChar

StartChar: colon
Encoding: 58 58 28
Width: 204
GlyphClass: 2
Flags: W
LayerCount: 2
Fore
SplineSet
198 70 m 2
 195.333007812 63.3330078125 193.833007812 58.6669921875 193.5 56 c 0
 193.166992188 53.3330078125 192.5 51 191.5 49 c 0
 190.5 47 188.833007812 44 186.5 40 c 0
 184.166992188 36 180 29.6669921875 174 21 c 0
 172 19 170.5 16.6669921875 169.5 14 c 0
 168.5 11.3330078125 166.333007812 8.3330078125 163 5 c 2
 155 -6 l 2
 151.666992188 -10 148.5 -13.6669921875 145.5 -17 c 0
 142.5 -20.3330078125 138.333007812 -22 133 -22 c 0
 131.666992188 -22 129.5 -21.8330078125 126.5 -21.5 c 0
 123.5 -21.1669921875 121.666992188 -21 121 -21 c 0
 109.666992188 -19.6669921875 96 -16.6669921875 80 -12 c 0
 64 -7.3330078125 49 -3.3330078125 35 0 c 1
 24 25 l 1
 28 38 l 1
 56 93 l 2
 60 101 63.3330078125 106.666992188 66 110 c 0
 68.6669921875 113.333007812 75.6669921875 117 87 121 c 1
 196 102 l 1
 202 83 l 1
 198 70 l 2
277 385.000976562 m 2
 274.333007812 378.333984375 272.833007812 373.666015625 272.5 370.999023438 c 0
 272.166992188 368.33203125 271.666992188 365.999023438 271 363.999023438 c 0
 270.333007812 361.999023438 268.833007812 358.999023438 266.5 354.999023438 c 0
 264.166992188 350.999023438 259.666992188 344.666015625 253 335.999023438 c 0
 251 333.999023438 249.5 331.666015625 248.5 328.999023438 c 0
 247.5 326.33203125 245.333007812 323.33203125 242 319.999023438 c 2
 233 308.999023438 l 2
 229.666992188 304.999023438 226.5 301.33203125 223.5 297.999023438 c 0
 220.5 294.666015625 216.333007812 292.999023438 211 292.999023438 c 0
 209.666992188 292.999023438 207.5 293.166015625 204.5 293.499023438 c 0
 201.5 293.83203125 199.666992188 293.999023438 199 293.999023438 c 0
 187.666992188 295.33203125 174.166992188 298.33203125 158.5 302.999023438 c 0
 142.833007812 307.666015625 128 311.666015625 114 314.999023438 c 1
 103 339.999023438 l 1
 107 352.999023438 l 1
 135 407.999023438 l 2
 138.333007812 416.666015625 141.5 422.333007812 144.5 425 c 0
 147.5 427.666992188 154.666992188 431.333984375 166 436.000976562 c 1
 275 417.000976562 l 1
 280 398.000976562 l 1
 277 385.000976562 l 2
EndSplineSet
EndChar

StartChar: semicolon
Encoding: 59 59 29
Width: 210
GlyphClass: 2
Flags: W
LayerCount: 2
Fore
SplineSet
279 385 m 2
 275.666992188 378.333007812 273.833007812 373.666992188 273.5 371 c 0
 273.166992188 368.333007812 272.5 366 271.5 364 c 2
 267 355 l 2
 265 351 261 344.666992188 255 336 c 0
 252.333007812 334 250.5 331.666992188 249.5 329 c 0
 248.5 326.333007812 246.333007812 323.333007812 243 320 c 2
 240 315 l 2
 236 309.666992188 232.166992188 304.666992188 228.5 300 c 0
 224.833007812 295.333007812 219.333007812 293 212 293 c 0
 210.666992188 293 208.666992188 293.166992188 206 293.5 c 0
 203.333007812 293.833007812 201.333007812 294 200 294 c 0
 189.333007812 295.333007812 176 298.333007812 160 303 c 0
 144 307.666992188 129 311.666992188 115 315 c 1
 104 340 l 1
 109 353 l 1
 136 408 l 2
 140 416 143.333007812 421.666992188 146 425 c 0
 148.666992188 428.333007812 155.666992188 432 167 436 c 1
 276 417 l 1
 282 398 l 1
 279 385 l 2
41.9990234375 -35.9990234375 m 2
 51.9990234375 -23.33203125 58.330078125 -10.6650390625 60.9970703125 2.001953125 c 0
 62.9970703125 10.6689453125 63.4970703125 17.6689453125 62.4970703125 23.001953125 c 0
 61.4970703125 28.3349609375 59.830078125 33.16796875 57.4970703125 37.5009765625 c 0
 55.1640625 41.833984375 51.9970703125 46.6669921875 47.9970703125 52 c 0
 43.9970703125 57.3330078125 39.9970703125 64 35.9970703125 72 c 1
 48.9970703125 88 l 2
 50.330078125 90.6669921875 54.330078125 93 60.9970703125 95 c 0
 67.6640625 97 75.3310546875 98.6669921875 83.998046875 100 c 0
 92.6650390625 101.333007812 101.33203125 102.333007812 109.999023438 103 c 0
 118.666015625 103.666992188 125.666015625 104 130.999023438 104 c 2
 136.999023438 104 l 1
 139.999023438 105 l 1
 187.999023438 99 l 2
 192.666015625 99 195.833007812 95.5 197.5 88.5 c 0
 199.166992188 81.5 201 77.3330078125 203 76 c 0
 204.333007812 76 205 75.6669921875 205 75 c 2
 204 74 l 2
 204.666992188 72.6669921875 204.666992188 70.6669921875 204 68 c 2
 203 66 l 1
 205.666992188 66 205.5 63 202.5 57 c 0
 199.5 51 197.333007812 45.6669921875 196 41 c 0
 188 23.6669921875 179.333007812 9.5 170 -1.5 c 0
 160.666992188 -12.5 148.666992188 -22.5 134 -31.5 c 0
 119.333007812 -40.5 101.166015625 -49.6669921875 79.4990234375 -59 c 0
 57.83203125 -68.3330078125 30.9990234375 -79.666015625 -1.0009765625 -92.9990234375 c 1
 41.9990234375 -35.9990234375 l 2
EndSplineSet
EndChar

StartChar: less
Encoding: 60 60 30
Width: 408
GlyphClass: 2
Flags: W
LayerCount: 2
Fore
SplineSet
316 407 m 1
 350.001953125 373.000976562 l 1
 350.001953125 369.000976562 l 2
 351.334960938 364.333984375 352.334960938 360.333984375 353.001953125 357.000976562 c 0
 353.668945312 353.66796875 355.3359375 348.000976562 358.002929688 340.000976562 c 0
 366.002929688 307.333984375 373.3359375 277.833984375 380.002929688 251.500976562 c 0
 386.669921875 225.16796875 388.669921875 206.334960938 386.002929688 195.001953125 c 2
 384.002929688 187.001953125 l 2
 381.3359375 177.668945312 376.002929688 164.3359375 368.002929688 147.002929688 c 0
 360.002929688 129.669921875 351.669921875 112.336914062 343.002929688 95.00390625 c 0
 334.3359375 77.6708984375 326.3359375 62.1708984375 319.002929688 48.50390625 c 0
 311.669921875 34.8369140625 307.336914062 27.3369140625 306.00390625 26.00390625 c 2
 275.00390625 8.00390625 l 1
 274.336914062 14.00390625 275.669921875 25.50390625 279.002929688 42.50390625 c 0
 282.3359375 59.50390625 286.168945312 77.50390625 290.501953125 96.50390625 c 0
 294.834960938 115.50390625 298.66796875 133.670898438 302.000976562 151.00390625 c 0
 305.333984375 168.336914062 306.666992188 180.669921875 306 188.002929688 c 2
 306 206.002929688 l 2
 304.666992188 212.002929688 299.666992188 220.3359375 291 231.002929688 c 0
 282.333007812 241.669921875 273.166015625 252.169921875 263.499023438 262.502929688 c 0
 253.83203125 272.8359375 244.999023438 281.8359375 236.999023438 289.502929688 c 0
 228.999023438 297.169921875 224.999023438 301.336914062 224.999023438 302.00390625 c 2
 214.999023438 311.00390625 l 2
 201.666015625 321.00390625 190.999023438 328.336914062 182.999023438 333.00390625 c 0
 174.999023438 337.670898438 167.33203125 341.170898438 159.999023438 343.50390625 c 0
 152.666015625 345.836914062 144.499023438 347.669921875 135.499023438 349.002929688 c 0
 126.499023438 350.3359375 113.999023438 352.668945312 97.9990234375 356.001953125 c 1
 85.9990234375 374.001953125 l 1
 203.999023438 407.001953125 l 2
 219.33203125 414.334960938 232.83203125 424.16796875 244.499023438 436.500976562 c 0
 256.166015625 448.833984375 266.166015625 462.666992188 274.499023438 478 c 0
 282.83203125 493.333007812 289.999023438 509.666015625 295.999023438 526.999023438 c 0
 301.999023438 544.33203125 306.999023438 561.33203125 310.999023438 577.999023438 c 0
 312.33203125 582.666015625 317.83203125 592.166015625 327.499023438 606.499023438 c 0
 337.166015625 620.83203125 347.666015625 635.33203125 358.999023438 649.999023438 c 0
 370.33203125 664.666015625 380.665039062 677.833007812 389.998046875 689.5 c 2
 403.998046875 707 l 1
 414.998046875 708 l 2
 427.665039062 708 439.998046875 705.333007812 451.998046875 700 c 0
 463.998046875 694.666992188 475.331054688 688.333984375 485.998046875 681.000976562 c 0
 496.665039062 673.66796875 506.665039062 665.66796875 515.998046875 657.000976562 c 0
 525.331054688 648.333984375 533.998046875 640.666992188 541.998046875 634 c 0
 543.998046875 631.333007812 545.665039062 629.166015625 546.998046875 627.499023438 c 0
 548.331054688 625.83203125 549.331054688 624.665039062 549.998046875 623.998046875 c 2
 546.998046875 607.998046875 l 2
 543.665039062 596.665039062 534.83203125 583.33203125 520.499023438 567.999023438 c 0
 506.166015625 552.666015625 489.666015625 537.333007812 470.999023438 522 c 0
 452.33203125 506.666992188 433.499023438 492 414.499023438 478 c 0
 395.499023438 464 379.666015625 452.666992188 366.999023438 444 c 0
 361.666015625 440.666992188 354.833007812 435.666992188 346.5 429 c 0
 338.166992188 422.333007812 328 415 316 407 c 1
EndSplineSet
EndChar

StartChar: equal
Encoding: 61 61 31
Width: 460
GlyphClass: 2
Flags: W
LayerCount: 2
Fore
SplineSet
368 296 m 2
 370.666992188 296 373.166015625 296.168945312 375.499023438 296.501953125 c 0
 377.83203125 296.834960938 380.665039062 297.334960938 383.998046875 298.001953125 c 2
 506.998046875 307.001953125 l 1
 491.998046875 277.001953125 l 2
 490.665039062 270.334960938 489.665039062 265.16796875 488.998046875 261.500976562 c 0
 488.331054688 257.833984375 487.331054688 254.000976562 485.998046875 250.000976562 c 2
 483.498046875 237.500976562 l 2
 482.498046875 232.500976562 481.331054688 225.66796875 479.998046875 217.000976562 c 0
 478.665039062 210.333984375 477.498046875 203.666992188 476.498046875 197 c 0
 475.498046875 190.333007812 475.665039062 184.333007812 476.998046875 179 c 1
 232.998046875 235 l 2
 225.665039062 238.333007812 216.83203125 242 206.499023438 246 c 0
 196.166015625 250 186.166015625 254.166992188 176.499023438 258.5 c 0
 166.83203125 262.833007812 157.999023438 267 149.999023438 271 c 0
 141.999023438 275 136.666015625 278.666992188 133.999023438 282 c 0
 132.666015625 284 130.333007812 286.833007812 127 290.5 c 2
 122 296 l 1
 110 306 l 1
 114 308 l 1
 368 296 l 2
269.999023438 399.001953125 m 2
 267.33203125 399.001953125 264.83203125 398.833007812 262.499023438 398.5 c 0
 260.166015625 398.166992188 257.333007812 397.666992188 254 397 c 2
 132 388 l 1
 146 418 l 2
 147.333007812 424.666992188 148.333007812 429.833984375 149 433.500976562 c 0
 149.666992188 437.16796875 150.666992188 441.000976562 152 445.000976562 c 0
 153.333007812 448.333984375 154.333007812 452.500976562 155 457.500976562 c 0
 155.666992188 462.500976562 156.666992188 469.333984375 158 478.000976562 c 0
 159.333007812 484.66796875 160.5 491.334960938 161.5 498.001953125 c 0
 162.5 504.668945312 162.666992188 510.668945312 162 516.001953125 c 1
 406 460.001953125 l 2
 412.666992188 456.668945312 421.166992188 453.001953125 431.5 449.001953125 c 0
 441.833007812 445.001953125 451.833007812 440.834960938 461.5 436.501953125 c 0
 471.166992188 432.168945312 480 428.001953125 488 424.001953125 c 0
 496 420.001953125 501.333007812 416.334960938 504 413.001953125 c 0
 505.333007812 411.001953125 507.666015625 408.168945312 510.999023438 404.501953125 c 2
 515.999023438 399.001953125 l 1
 527.999023438 389.001953125 l 1
 522.999023438 387.001953125 l 1
 269.999023438 399.001953125 l 2
EndSplineSet
EndChar

StartChar: greater
Encoding: 62 62 32
Width: 364
GlyphClass: 2
Flags: W
LayerCount: 2
Fore
SplineSet
449 369 m 1
 449.000976562 365.000976562 l 1
 374.000976562 308.000976562 l 2
 358.66796875 300.66796875 343.500976562 290.500976562 328.500976562 277.500976562 c 0
 313.500976562 264.500976562 299.500976562 249.833984375 286.500976562 233.500976562 c 0
 273.500976562 217.16796875 262.16796875 199.834960938 252.500976562 181.501953125 c 0
 242.833984375 163.168945312 235.666992188 145.001953125 231 127.001953125 c 0
 227 111.668945312 223.333007812 96.501953125 220 81.501953125 c 0
 216.666992188 66.501953125 214.333984375 53.001953125 213.000976562 41.001953125 c 2
 208.000976562 14.001953125 l 2
 206.000976562 12.001953125 203.66796875 9.8349609375 201.000976562 7.501953125 c 0
 198.333984375 5.1689453125 196.000976562 3.6689453125 194.000976562 3.001953125 c 2
 185.000976562 3.001953125 l 2
 171.66796875 3.001953125 158.16796875 5.8349609375 144.500976562 11.501953125 c 0
 130.833984375 17.1689453125 117.500976562 24.1689453125 104.500976562 32.501953125 c 0
 91.5009765625 40.8349609375 79.333984375 49.501953125 68.0009765625 58.501953125 c 0
 56.66796875 67.501953125 47.0009765625 75.3349609375 39.0009765625 82.001953125 c 1
 37.0009765625 103.001953125 l 2
 39.66796875 114.334960938 47.66796875 127.66796875 61.0009765625 143.000976562 c 0
 74.333984375 158.333984375 89.6669921875 173.666992188 107 189 c 0
 124.333007812 204.333007812 142.166015625 219 160.499023438 233 c 0
 178.83203125 247 193.999023438 258.333007812 205.999023438 267 c 0
 211.33203125 270.333007812 220.165039062 276.5 232.498046875 285.5 c 0
 244.831054688 294.5 258.331054688 304 272.998046875 314 c 1
 266.331054688 320 259.1640625 325.666992188 251.497070312 331 c 0
 243.830078125 336.333007812 236.830078125 341.5 230.497070312 346.5 c 0
 224.1640625 351.5 218.831054688 356 214.498046875 360 c 0
 210.165039062 364 207.998046875 367.666992188 207.998046875 371 c 2
 207.998046875 374 l 2
 207.998046875 376 206.498046875 379.5 203.498046875 384.5 c 0
 200.498046875 389.5 196.998046875 395 192.998046875 401 c 0
 188.998046875 407 185.498046875 412.833007812 182.498046875 418.5 c 0
 179.498046875 424.166992188 177.998046875 429 177.998046875 433 c 2
 200.998046875 524 l 2
 202.998046875 532.666992188 207.831054688 545.666992188 215.498046875 563 c 0
 223.165039062 580.333007812 231.165039062 597.666015625 239.498046875 614.999023438 c 0
 247.831054688 632.33203125 255.831054688 647.83203125 263.498046875 661.499023438 c 0
 271.165039062 675.166015625 275.998046875 682.666015625 277.998046875 683.999023438 c 2
 309.998046875 701.999023438 l 1
 310.665039062 695.999023438 309.33203125 684.499023438 305.999023438 667.499023438 c 0
 302.666015625 650.499023438 298.666015625 632.499023438 293.999023438 613.499023438 c 0
 289.33203125 594.499023438 285.33203125 576.33203125 281.999023438 558.999023438 c 0
 278.666015625 541.666015625 277.333007812 529.666015625 278 522.999023438 c 2
 279 504.999023438 l 2
 279.666992188 498.999023438 284.166992188 490.83203125 292.5 480.499023438 c 0
 300.833007812 470.166015625 309.5 460.333007812 318.5 451 c 0
 327.5 441.666992188 335.833007812 433.5 343.5 426.5 c 2
 355 416 l 1
 364 407 l 1
 449 369 l 1
EndSplineSet
EndChar

StartChar: question
Encoding: 63 63 33
Width: 542
GlyphClass: 2
Flags: W
LayerCount: 2
Fore
SplineSet
168 610 m 0
 170 617.333007812 175.33203125 623.505859375 183.999023438 628.505859375 c 0
 192.666015625 633.505859375 200.999023438 638.672851562 208.999023438 644.005859375 c 2
 220.999023438 650.005859375 l 2
 225.666015625 651.338867188 231.333007812 653.671875 238 657.004882812 c 0
 244.666992188 660.337890625 249 662.670898438 251 664.00390625 c 0
 253.666992188 665.336914062 258.5 667.00390625 265.5 669.00390625 c 0
 272.5 671.00390625 277.333007812 672.00390625 280 672.00390625 c 0
 283.333007812 674.00390625 286.166015625 675.336914062 288.499023438 676.00390625 c 2
 298.999023438 679.00390625 l 2
 308.999023438 681.00390625 315.166015625 682.336914062 317.499023438 683.00390625 c 0
 319.83203125 683.670898438 322.999023438 684.337890625 326.999023438 685.004882812 c 0
 334.999023438 686.337890625 342.999023438 687.504882812 350.999023438 688.504882812 c 0
 358.999023438 689.504882812 364.33203125 690.004882812 366.999023438 690.004882812 c 2
 372.999023438 690.004882812 l 2
 374.999023438 690.004882812 378.166015625 690.171875 382.499023438 690.504882812 c 0
 386.83203125 690.837890625 390.999023438 691.004882812 394.999023438 691.004882812 c 2
 404.999023438 691.004882812 l 2
 437.666015625 691.004882812 467.499023438 687.504882812 494.499023438 680.504882812 c 0
 521.499023438 673.504882812 545.166015625 662.004882812 565.499023438 646.004882812 c 0
 585.83203125 630.004882812 602.33203125 608.671875 614.999023438 582.004882812 c 0
 627.666015625 555.337890625 635.666015625 522.337890625 638.999023438 483.004882812 c 0
 640.999023438 478.337890625 639.999023438 469.004882812 635.999023438 455.004882812 c 0
 631.999023438 438.337890625 623.666015625 421.170898438 610.999023438 403.50390625 c 0
 598.33203125 385.836914062 582.83203125 368.169921875 564.499023438 350.502929688 c 0
 546.166015625 332.8359375 526.166015625 315.668945312 504.499023438 299.001953125 c 0
 482.83203125 282.334960938 460.999023438 266.334960938 438.999023438 251.001953125 c 0
 431.666015625 246.334960938 424.333007812 242.834960938 417 240.501953125 c 0
 409.666992188 238.168945312 402.5 236.168945312 395.5 234.501953125 c 0
 388.5 232.834960938 381.5 231.001953125 374.5 229.001953125 c 0
 367.5 227.001953125 360.666992188 224.001953125 354 220.001953125 c 2
 185 194.001953125 l 1
 135 201.001953125 l 2
 128.333007812 202.334960938 124.833007812 206.001953125 124.5 212.001953125 c 0
 124.166992188 218.001953125 125 225.001953125 127 233.001953125 c 2
 134 258.001953125 l 1
 162 258.001953125 191 260.334960938 221 265.001953125 c 0
 251 269.668945312 281.333007812 278.668945312 312 292.001953125 c 0
 338.666992188 303.334960938 363 319.16796875 385 339.500976562 c 0
 407 359.833984375 426.666992188 383.666992188 444 411 c 0
 461.333007812 438.333007812 476.5 468.333007812 489.5 501 c 0
 502.5 533.666992188 513.333007812 567.666992188 522 603 c 0
 523.333007812 606.333007812 522 608 518 608 c 0
 498 608 476.5 604.666992188 453.5 598 c 0
 430.5 591.333007812 407.5 582.5 384.5 571.5 c 0
 361.5 560.5 339.166992188 547.666992188 317.5 533 c 0
 295.833007812 518.333007812 276.333007812 503 259 487 c 0
 249 477 237.5 464.5 224.5 449.5 c 0
 211.5 434.5 199.666992188 423.333007812 189 416 c 1
 186 416 l 1
 179.333007812 424.666992188 174 437 170 453 c 0
 166 469 163.333007812 486.166992188 162 504.5 c 0
 160.666992188 522.833007812 160.5 541.5 161.5 560.5 c 0
 162.5 579.5 164.666992188 596 168 610 c 0
248.999023438 81.005859375 m 2
 246.999023438 73.6728515625 245.671875 69.1748046875 245.004882812 67.5078125 c 0
 244.337890625 65.8408203125 243.670898438 63.673828125 243.00390625 61.0068359375 c 0
 242.336914062 59.0068359375 241.169921875 56.33984375 239.502929688 53.0068359375 c 0
 237.8359375 49.673828125 234.002929688 43.673828125 228.002929688 35.0068359375 c 0
 225.3359375 33.0068359375 223.668945312 30.83984375 223.001953125 28.5068359375 c 0
 222.334960938 26.173828125 220.66796875 23.3408203125 218.000976562 20.0078125 c 2
 209.000976562 10.0078125 l 2
 205.66796875 6.0078125 202.66796875 2.5078125 200.000976562 -0.4921875 c 0
 197.333984375 -3.4921875 194.000976562 -4.9921875 190.000976562 -4.9921875 c 0
 188.000976562 -4.9921875 185.66796875 -4.8251953125 183.000976562 -4.4921875 c 0
 180.333984375 -4.1591796875 178.666992188 -3.9921875 178 -3.9921875 c 0
 168.666992188 -2.6591796875 156.666992188 0.173828125 142 4.5068359375 c 0
 127.333007812 8.83984375 113.333007812 12.6728515625 100 16.005859375 c 1
 91 39.005859375 l 1
 95 51.005859375 l 1
 120 103.005859375 l 2
 123.333007812 111.005859375 126.166015625 116.338867188 128.499023438 119.005859375 c 0
 130.83203125 121.672851562 136.999023438 125.005859375 146.999023438 129.005859375 c 1
 247.999023438 111.005859375 l 1
 251.999023438 93.005859375 l 1
 248.999023438 81.005859375 l 2
EndSplineSet
EndChar

StartChar: at
Encoding: 64 64 34
Width: 537
GlyphClass: 2
Flags: W
LayerCount: 2
Fore
SplineSet
603 367 m 0
 593.666992188 329 576.665039062 294.840820312 551.998046875 264.5078125 c 0
 527.331054688 234.174804688 498.998046875 203.674804688 466.998046875 173.0078125 c 1
 454.998046875 165.0078125 l 1
 454.498046875 164.5078125 l 2
 454.165039062 164.174804688 453.665039062 164.0078125 452.998046875 164.0078125 c 0
 452.331054688 164.0078125 451.6640625 164.174804688 450.997070312 164.5078125 c 2
 449.997070312 165.0078125 l 2
 445.330078125 165.674804688 438.163085938 167.674804688 428.49609375 171.0078125 c 0
 418.829101562 174.340820312 409.329101562 178.340820312 399.99609375 183.0078125 c 0
 390.663085938 187.674804688 382.663085938 192.341796875 375.99609375 197.008789062 c 0
 369.329101562 201.67578125 366.329101562 205.67578125 366.99609375 209.008789062 c 0
 368.329101562 212.341796875 370.49609375 214.674804688 373.49609375 216.0078125 c 0
 376.49609375 217.340820312 378.663085938 220.0078125 379.99609375 224.0078125 c 0
 379.99609375 224.674804688 380.329101562 225.5078125 380.99609375 226.5078125 c 2
 381.99609375 228.0078125 l 1
 375.99609375 243.0078125 l 2
 364.663085938 265.0078125 355.49609375 286.674804688 348.49609375 308.0078125 c 0
 341.49609375 329.340820312 340.99609375 353.0078125 346.99609375 379.0078125 c 0
 354.329101562 409.0078125 370.99609375 434.5078125 396.99609375 455.5078125 c 0
 422.99609375 476.5078125 453.99609375 494.0078125 489.99609375 508.0078125 c 2
 500.99609375 513.0078125 l 1
 552.99609375 489.0078125 l 1
 559.99609375 494.0078125 l 1
 548.663085938 510.674804688 538.830078125 524.174804688 530.497070312 534.5078125 c 0
 522.1640625 544.840820312 514.6640625 554.673828125 507.997070312 564.006835938 c 1
 472.6640625 564.006835938 440.1640625 556.506835938 410.497070312 541.506835938 c 0
 380.830078125 526.506835938 354.830078125 507.006835938 332.497070312 483.006835938 c 0
 310.1640625 459.006835938 291.1640625 431.83984375 275.497070312 401.506835938 c 0
 259.830078125 371.173828125 248.330078125 341.006835938 240.997070312 311.006835938 c 0
 239.6640625 306.33984375 238.497070312 299.83984375 237.497070312 291.506835938 c 0
 236.497070312 283.173828125 235.497070312 273.673828125 234.497070312 263.006835938 c 0
 233.497070312 252.33984375 232.6640625 240.672851562 231.997070312 228.005859375 c 0
 231.330078125 215.338867188 230.997070312 202.671875 230.997070312 190.004882812 c 0
 230.997070312 178.004882812 231.497070312 166.171875 232.497070312 154.504882812 c 0
 233.497070312 142.837890625 235.1640625 132.504882812 237.497070312 123.504882812 c 0
 239.830078125 114.504882812 242.830078125 107.004882812 246.497070312 101.004882812 c 0
 250.1640625 95.0048828125 254.6640625 91.671875 259.997070312 91.0048828125 c 0
 259.997070312 90.337890625 262.330078125 90.0048828125 266.997070312 90.0048828125 c 0
 278.997070312 90.0048828125 289.997070312 91.671875 299.997070312 95.0048828125 c 0
 309.997070312 98.337890625 318.997070312 102.504882812 326.997070312 107.504882812 c 0
 334.997070312 112.504882812 342.6640625 117.837890625 349.997070312 123.504882812 c 0
 357.330078125 129.171875 364.663085938 134.671875 371.99609375 140.004882812 c 1
 381.99609375 140.004882812 l 1
 389.329101562 120.004882812 398.162109375 101.504882812 408.495117188 84.5048828125 c 0
 418.828125 67.5048828125 432.995117188 53.337890625 450.995117188 42.0048828125 c 1
 445.662109375 37.337890625 441.662109375 34.1708984375 438.995117188 32.50390625 c 0
 436.328125 30.8369140625 433.828125 29.669921875 431.495117188 29.0029296875 c 0
 429.162109375 28.3359375 426.329101562 27.8359375 422.99609375 27.5029296875 c 0
 419.663085938 27.169921875 414.99609375 26.0029296875 408.99609375 24.0029296875 c 0
 403.663085938 22.0029296875 396.830078125 19.8359375 388.497070312 17.5029296875 c 0
 380.1640625 15.169921875 371.6640625 13.0029296875 362.997070312 11.0029296875 c 0
 354.330078125 9.0029296875 345.830078125 7.0029296875 337.497070312 5.0029296875 c 0
 329.1640625 3.0029296875 322.6640625 1.3359375 317.997070312 0.0029296875 c 1
 315.997070312 -7.9970703125 l 2
 315.997070312 -9.9970703125 316.1640625 -14.6640625 316.497070312 -21.9970703125 c 0
 316.830078125 -29.330078125 317.663085938 -33.9970703125 318.99609375 -35.9970703125 c 1
 286.99609375 -41.9970703125 l 2
 277.663085938 -43.9970703125 270.330078125 -44.9970703125 264.997070312 -44.9970703125 c 2
 261.997070312 -44.9970703125 l 2
 247.997070312 -43.6640625 236.497070312 -39.8310546875 227.497070312 -33.498046875 c 0
 218.497070312 -27.1650390625 209.830078125 -18.83203125 201.497070312 -8.4990234375 c 0
 193.1640625 1.833984375 184.331054688 14.0009765625 174.998046875 28.0009765625 c 0
 165.665039062 42.0009765625 154.33203125 57.0009765625 140.999023438 73.0009765625 c 0
 127.666015625 94.333984375 118.166015625 119.000976562 112.499023438 147.000976562 c 0
 106.83203125 175.000976562 103.665039062 204.000976562 102.998046875 234.000976562 c 0
 102.331054688 264.000976562 103.831054688 294.16796875 107.498046875 324.500976562 c 0
 111.165039062 354.833984375 116.33203125 383.000976562 122.999023438 409.000976562 c 0
 146.999023438 505.000976562 187.999023438 575.66796875 245.999023438 621.000976562 c 0
 303.999023438 666.333984375 383.666015625 689.000976562 484.999023438 689.000976562 c 0
 504.999023438 689.000976562 526.666015625 688.000976562 549.999023438 686.000976562 c 1
 553.33203125 691.333984375 556.83203125 695.833984375 560.499023438 699.500976562 c 0
 564.166015625 703.16796875 569.666015625 706.66796875 576.999023438 710.000976562 c 1
 585.666015625 700.000976562 595.666015625 688.16796875 606.999023438 674.500976562 c 0
 618.33203125 660.833984375 628.499023438 646.166992188 637.499023438 630.5 c 0
 646.499023438 614.833007812 653.33203125 598.833007812 657.999023438 582.5 c 0
 662.666015625 566.166992188 663.333007812 551 660 537 c 1
 627 537 l 1
 610 429 l 2
 610.666992188 418.333007812 610.166992188 407.833007812 608.5 397.5 c 0
 606.833007812 387.166992188 605 377 603 367 c 0
509.998046875 391.0078125 m 2
 513.999023438 404.006835938 l 1
 513.999023438 408.006835938 l 2
 513.999023438 411.33984375 513.83203125 413.672851562 513.499023438 415.005859375 c 0
 513.166015625 416.338867188 510.666015625 417.005859375 505.999023438 417.005859375 c 0
 495.33203125 417.005859375 486.499023438 415.172851562 479.499023438 411.505859375 c 0
 472.499023438 407.838867188 466.499023438 403.005859375 461.499023438 397.005859375 c 0
 456.499023438 391.005859375 452.499023438 384.172851562 449.499023438 376.505859375 c 0
 446.499023438 368.838867188 443.999023438 361.005859375 441.999023438 353.005859375 c 2
 438.999023438 340.005859375 l 2
 438.33203125 336.672851562 437.83203125 331.83984375 437.499023438 325.506835938 c 0
 437.166015625 319.173828125 437.166015625 312.840820312 437.499023438 306.5078125 c 0
 437.83203125 300.174804688 438.665039062 294.5078125 439.998046875 289.5078125 c 0
 441.331054688 284.5078125 443.331054688 282.0078125 445.998046875 282.0078125 c 0
 453.998046875 282.0078125 461.498046875 286.340820312 468.498046875 295.0078125 c 0
 475.498046875 303.674804688 481.831054688 314.0078125 487.498046875 326.0078125 c 0
 493.165039062 338.0078125 497.998046875 350.0078125 501.998046875 362.0078125 c 0
 505.998046875 374.0078125 508.665039062 383.674804688 509.998046875 391.0078125 c 2
EndSplineSet
EndChar

StartChar: A
Encoding: 65 65 35
Width: 544
GlyphClass: 2
Flags: W
LayerCount: 2
Fore
SplineSet
450 166 m 1
 444 163.333007812 436.666015625 158.670898438 427.999023438 152.00390625 c 0
 419.33203125 145.336914062 410.33203125 138.50390625 400.999023438 131.50390625 c 0
 391.666015625 124.50390625 382.333007812 118.336914062 373 113.00390625 c 0
 363.666992188 107.670898438 355.666992188 105.00390625 349 105.00390625 c 2
 347 105.00390625 l 2
 345.666992188 105.00390625 344.333984375 105.170898438 343.000976562 105.50390625 c 2
 341.000976562 106.00390625 l 1
 250.000976562 187.00390625 l 1
 245.000976562 178.00390625 l 2
 242.333984375 168.00390625 241.666992188 155.50390625 243 140.50390625 c 0
 244.333007812 125.50390625 245.666015625 113.670898438 246.999023438 105.00390625 c 0
 246.999023438 101.00390625 247.33203125 94.1708984375 247.999023438 84.50390625 c 0
 248.666015625 74.8369140625 249.499023438 64.50390625 250.499023438 53.50390625 c 0
 251.499023438 42.50390625 252.666015625 32.3369140625 253.999023438 23.00390625 c 0
 255.33203125 13.6708984375 256.33203125 7.6708984375 256.999023438 5.00390625 c 2
 251.999023438 -2.99609375 l 1
 241.999023438 -2.99609375 l 2
 233.999023438 -2.99609375 224.166015625 -2.8291015625 212.499023438 -2.49609375 c 0
 200.83203125 -2.1630859375 191.665039062 -1.330078125 184.998046875 0.0029296875 c 2
 169.998046875 3.0029296875 l 2
 155.331054688 5.0029296875 139.6640625 7.5029296875 122.997070312 10.5029296875 c 0
 106.330078125 13.5029296875 91.330078125 17.5029296875 77.9970703125 22.5029296875 c 0
 64.6640625 27.5029296875 54.1640625 34.169921875 46.4970703125 42.5029296875 c 0
 38.830078125 50.8359375 36.6630859375 61.0029296875 39.99609375 73.0029296875 c 2
 96.99609375 263.002929688 l 2
 95.6630859375 267.669921875 91.99609375 271.669921875 85.99609375 275.002929688 c 0
 79.99609375 278.3359375 73.6630859375 280.668945312 66.99609375 282.001953125 c 0
 64.3291015625 282.668945312 60.662109375 285.668945312 55.9951171875 291.001953125 c 0
 51.328125 296.334960938 46.328125 302.334960938 40.9951171875 309.001953125 c 0
 35.662109375 315.668945312 30.3291015625 321.8359375 24.99609375 327.502929688 c 0
 19.6630859375 333.169921875 14.99609375 336.669921875 10.99609375 338.002929688 c 1
 14.3291015625 338.669921875 16.49609375 339.169921875 17.49609375 339.502929688 c 0
 18.49609375 339.8359375 19.99609375 340.002929688 21.99609375 340.002929688 c 0
 27.3291015625 340.002929688 32.8291015625 338.3359375 38.49609375 335.002929688 c 0
 44.1630859375 331.669921875 49.99609375 328.169921875 55.99609375 324.502929688 c 0
 61.99609375 320.8359375 68.1630859375 317.3359375 74.49609375 314.002929688 c 0
 80.8291015625 310.669921875 87.3291015625 309.002929688 93.99609375 309.002929688 c 0
 104.663085938 309.002929688 110.99609375 310.669921875 112.99609375 314.002929688 c 0
 144.99609375 368.002929688 177.99609375 420.002929688 211.99609375 470.002929688 c 0
 245.99609375 520.002929688 287.329101562 570.002929688 335.99609375 620.002929688 c 1
 329.329101562 629.3359375 326.99609375 638.3359375 328.99609375 647.002929688 c 2
 331.99609375 653.002929688 l 1
 469.99609375 728.002929688 l 1
 448.99609375 688.002929688 l 1
 556.99609375 688.002929688 l 2
 562.99609375 684.669921875 567.329101562 682.502929688 569.99609375 681.502929688 c 0
 572.663085938 680.502929688 575.330078125 676.3359375 577.997070312 669.002929688 c 0
 600.6640625 603.002929688 612.331054688 538.669921875 612.998046875 476.002929688 c 0
 613.665039062 413.3359375 605.665039062 348.002929688 588.998046875 280.002929688 c 0
 578.998046875 240.002929688 566.331054688 200.502929688 550.998046875 161.502929688 c 0
 535.665039062 122.502929688 517.33203125 82.669921875 495.999023438 42.0029296875 c 0
 494.666015625 38.669921875 491.666015625 33.169921875 486.999023438 25.5029296875 c 0
 482.33203125 17.8359375 477.999023438 9.6689453125 473.999023438 1.001953125 c 0
 466.666015625 -18.998046875 459.666015625 -32.3310546875 452.999023438 -38.998046875 c 1
 452.999023438 9.001953125 l 2
 453.666015625 10.3349609375 453.833007812 11.66796875 453.5 13.0009765625 c 0
 453.166992188 14.333984375 453.666992188 16.6669921875 455 20 c 2
 459 141 l 1
 458 148 l 2
 457.333007812 151.333007812 456.833007812 154.5 456.5 157.5 c 0
 456.166992188 160.5 454 163.333007812 450 166 c 1
265.999023438 298.004882812 m 0
 269.999023438 296.004882812 278.659179688 293.173828125 291.9921875 289.506835938 c 0
 305.325195312 285.83984375 319.658203125 282.172851562 334.991210938 278.505859375 c 0
 350.32421875 274.838867188 365.32421875 271.505859375 379.991210938 268.505859375 c 0
 394.658203125 265.505859375 405.325195312 263.672851562 411.9921875 263.005859375 c 0
 415.325195312 261.672851562 420.9921875 260.172851562 428.9921875 258.505859375 c 0
 436.9921875 256.838867188 442.659179688 255.671875 445.9921875 255.004882812 c 2
 449.9921875 264.004882812 l 2
 449.9921875 265.337890625 450.325195312 271.837890625 450.9921875 283.504882812 c 0
 451.659179688 295.171875 452.326171875 308.671875 452.993164062 324.004882812 c 0
 453.66015625 339.337890625 453.827148438 355.004882812 453.494140625 371.004882812 c 0
 453.161132812 387.004882812 451.994140625 400.004882812 449.994140625 410.004882812 c 0
 444.661132812 436.004882812 437.328125 463.504882812 427.995117188 492.504882812 c 0
 418.662109375 521.504882812 404.662109375 547.671875 385.995117188 571.004882812 c 1
 377.995117188 564.337890625 369.495117188 558.004882812 360.495117188 552.004882812 c 0
 351.495117188 546.004882812 345.328125 540.337890625 341.995117188 535.004882812 c 0
 336.662109375 522.337890625 330.329101562 508.337890625 322.99609375 493.004882812 c 0
 315.663085938 477.671875 308.330078125 462.004882812 300.997070312 446.004882812 c 0
 293.6640625 430.004882812 286.831054688 414.004882812 280.498046875 398.004882812 c 0
 274.165039062 382.004882812 269.33203125 367.337890625 265.999023438 354.004882812 c 0
 262.666015625 340.004882812 260.666015625 328.004882812 259.999023438 318.004882812 c 0
 259.33203125 308.004882812 261.33203125 301.337890625 265.999023438 298.004882812 c 0
EndSplineSet
EndChar

StartChar: B
Encoding: 66 66 36
Width: 621
GlyphClass: 2
Flags: W
LayerCount: 2
Fore
SplineSet
91 0 m 1
 91.6669921875 1.3330078125 90.9951171875 3.0009765625 88.9951171875 5.0009765625 c 0
 86.9951171875 7.0009765625 85.328125 8.0009765625 83.9951171875 8.0009765625 c 2
 37.9951171875 34.0009765625 l 1
 39.9951171875 42.0009765625 l 1
 105.995117188 59.0009765625 l 1
 108.995117188 71.0009765625 l 2
 110.995117188 75.66796875 112.995117188 80.66796875 114.995117188 86.0009765625 c 0
 116.995117188 91.333984375 119.662109375 97.0009765625 122.995117188 103.000976562 c 0
 123.662109375 131.66796875 125.329101562 160.000976562 127.99609375 188.000976562 c 0
 130.663085938 216.000976562 134.330078125 244.000976562 138.997070312 272.000976562 c 0
 139.6640625 273.333984375 138.997070312 275.000976562 136.997070312 277.000976562 c 0
 134.997070312 279.000976562 132.997070312 280.000976562 130.997070312 280.000976562 c 2
 85.9970703125 306.000976562 l 1
 87.9970703125 314.000976562 l 1
 153.997070312 331.000976562 l 1
 158.6640625 345.000976562 164.997070312 361.500976562 172.997070312 380.500976562 c 0
 180.997070312 399.500976562 189.330078125 419.333984375 197.997070312 440.000976562 c 0
 206.6640625 460.66796875 214.831054688 481.334960938 222.498046875 502.001953125 c 0
 230.165039062 522.668945312 235.998046875 541.668945312 239.998046875 559.001953125 c 1
 231.998046875 559.001953125 224.665039062 558.001953125 217.998046875 556.001953125 c 0
 211.331054688 554.001953125 205.998046875 553.001953125 201.998046875 553.001953125 c 0
 197.331054688 553.001953125 194.331054688 554.501953125 192.998046875 557.501953125 c 0
 191.665039062 560.501953125 191.998046875 566.001953125 193.998046875 574.001953125 c 1
 205.498046875 582.001953125 l 2
 213.165039062 587.334960938 222.998046875 594.16796875 234.998046875 602.500976562 c 0
 246.998046875 610.833984375 259.998046875 619.833984375 273.998046875 629.500976562 c 0
 287.998046875 639.16796875 301.331054688 648.66796875 313.998046875 658.000976562 c 0
 326.665039062 667.333984375 337.83203125 675.500976562 347.499023438 682.500976562 c 0
 357.166015625 689.500976562 363.666015625 694.333984375 366.999023438 697.000976562 c 1
 400.999023438 671.000976562 l 1
 413.666015625 671.66796875 426.666015625 672.16796875 439.999023438 672.500976562 c 0
 453.33203125 672.833984375 466.665039062 673.000976562 479.998046875 673.000976562 c 0
 509.998046875 673.000976562 539.998046875 671.500976562 569.998046875 668.500976562 c 0
 599.998046875 665.500976562 626.165039062 659.000976562 648.498046875 649.000976562 c 0
 670.831054688 639.000976562 687.498046875 624.66796875 698.498046875 606.000976562 c 0
 709.498046875 587.333984375 710.998046875 562.333984375 702.998046875 531.000976562 c 0
 694.998046875 499.000976562 679.331054688 469.16796875 655.998046875 441.500976562 c 0
 632.665039062 413.833984375 604.665039062 388.333984375 571.998046875 365.000976562 c 1
 588.665039062 363.66796875 603.83203125 361.000976562 617.499023438 357.000976562 c 0
 631.166015625 353.000976562 642.333007812 346.833984375 651 338.500976562 c 0
 659.666992188 330.16796875 665.5 319.500976562 668.5 306.500976562 c 0
 671.5 293.500976562 670.666992188 277.66796875 666 259.000976562 c 0
 661.333007812 241.66796875 652.833007812 224.000976562 640.5 206.000976562 c 0
 628.166992188 188.000976562 613.833984375 170.66796875 597.500976562 154.000976562 c 0
 581.16796875 137.333984375 563.16796875 121.666992188 543.500976562 107 c 0
 523.833984375 92.3330078125 504.333984375 79.666015625 485.000976562 68.9990234375 c 0
 473.000976562 61.666015625 459.16796875 54.8330078125 443.500976562 48.5 c 0
 427.833984375 42.1669921875 411.666992188 36.5 395 31.5 c 0
 378.333007812 26.5 361.5 22 344.5 18 c 0
 327.5 14 311.333007812 10.3330078125 296 7 c 0
 295.333007812 6.3330078125 293.333007812 6 290 6 c 0
 288 6 286.666992188 5.6669921875 286 5 c 2
 265 0 l 1
 91 0 l 1
336.995117188 507.000976562 m 1
 324.993164062 459 l 2
 321.66015625 443.666992188 319.327148438 428 317.994140625 412 c 0
 316.661132812 396 319.661132812 382.333007812 326.994140625 371 c 1
 344.994140625 377 365.327148438 384.333007812 387.994140625 393 c 0
 410.661132812 401.666992188 432.494140625 411.666992188 453.494140625 423 c 0
 474.494140625 434.333007812 492.994140625 447.333007812 508.994140625 462 c 0
 524.994140625 476.666992188 534.994140625 492.666992188 538.994140625 510 c 0
 542.994140625 525.333007812 541.827148438 537.833007812 535.494140625 547.5 c 0
 529.161132812 557.166992188 519.828125 564.833984375 507.495117188 570.500976562 c 0
 495.162109375 576.16796875 481.162109375 580.000976562 465.495117188 582.000976562 c 0
 449.828125 584.000976562 434.995117188 585.000976562 420.995117188 585.000976562 c 2
 409.995117188 585.000976562 l 2
 404.662109375 585.000976562 398.162109375 584.66796875 390.495117188 584.000976562 c 2
 378.995117188 583.000976562 l 1
 353.995117188 566.000976562 l 1
 338.995117188 507.000976562 l 1
 336.995117188 507.000976562 l 1
307.993164062 257 m 2
 301.993164062 233 300.325195312 207.666992188 302.9921875 181 c 0
 305.659179688 154.333007812 308.9921875 129 312.9921875 105 c 1
 329.659179688 111.666992188 346.9921875 119.833984375 364.9921875 129.500976562 c 0
 382.9921875 139.16796875 399.825195312 150.000976562 415.4921875 162.000976562 c 0
 431.159179688 174.000976562 444.659179688 186.833984375 455.9921875 200.500976562 c 0
 467.325195312 214.16796875 474.9921875 228.66796875 478.9921875 244.000976562 c 0
 487.659179688 278.66796875 477.326171875 300.66796875 447.993164062 310.000976562 c 1
 427.993164062 303.333984375 406.493164062 297.166992188 383.493164062 291.5 c 0
 360.493164062 285.833007812 337.326171875 281.333007812 313.993164062 278 c 1
 307.993164062 257 l 2
EndSplineSet
EndChar

StartChar: C
Encoding: 67 67 37
Width: 474
GlyphClass: 2
Flags: W
LayerCount: 2
Fore
SplineSet
116 377 m 0
 123.333007812 406.333007812 132.006835938 432.5 142.006835938 455.5 c 0
 152.006835938 478.5 165.006835938 504 181.006835938 532 c 1
 182.006835938 536 l 1
 172.673828125 536 166.673828125 535.5 164.006835938 534.5 c 0
 161.33984375 533.5 156.006835938 531.333007812 148.006835938 528 c 1
 156.673828125 541.333007812 167.173828125 553 179.506835938 563 c 0
 191.83984375 573 204.672851562 583.333007812 218.005859375 594 c 0
 221.338867188 596 225.171875 600.833007812 229.504882812 608.5 c 0
 233.837890625 616.166992188 238.504882812 624 243.504882812 632 c 0
 248.504882812 640 253.504882812 647.333007812 258.504882812 654 c 0
 263.504882812 660.666992188 268.671875 664 274.004882812 664 c 1
 259.004882812 606 l 2
 258.337890625 601.333007812 259.004882812 599 261.004882812 599 c 0
 263.004882812 599 264.337890625 599.333007812 265.004882812 600 c 0
 311.004882812 628 357.004882812 651.5 403.004882812 670.5 c 0
 449.004882812 689.5 498.004882812 699 550.004882812 699 c 0
 563.337890625 699 574.170898438 698.666992188 582.50390625 698 c 0
 590.836914062 697.333007812 602.669921875 695.333007812 618.002929688 692 c 0
 620.002929688 692 621.3359375 690.666992188 622.002929688 688 c 0
 622.669921875 684.666992188 622.002929688 676.666992188 620.002929688 664 c 2
 606.002929688 611 l 1
 604.002929688 607 l 2
 603.3359375 604.333007812 599.8359375 597.5 593.502929688 586.5 c 0
 587.169921875 575.5 579.836914062 564 571.50390625 552 c 0
 563.170898438 540 554.670898438 529.166992188 546.00390625 519.5 c 0
 537.336914062 509.833007812 530.336914062 505 525.00390625 505 c 2
 521.00390625 506 l 1
 504.336914062 516.666992188 488.836914062 525.833984375 474.50390625 533.500976562 c 0
 460.170898438 541.16796875 445.670898438 547.334960938 431.00390625 552.001953125 c 0
 416.336914062 556.668945312 400.50390625 560.001953125 383.50390625 562.001953125 c 0
 366.50390625 564.001953125 347.00390625 565.001953125 325.00390625 565.001953125 c 0
 304.336914062 565.001953125 288.00390625 564.501953125 276.00390625 563.501953125 c 0
 264.00390625 562.501953125 254.336914062 559.501953125 247.00390625 554.501953125 c 0
 239.670898438 549.501953125 233.837890625 542.001953125 229.504882812 532.001953125 c 0
 225.171875 522.001953125 220.671875 508.001953125 216.004882812 490.001953125 c 0
 207.337890625 455.334960938 204.170898438 422.66796875 206.50390625 392.000976562 c 0
 208.836914062 361.333984375 218.669921875 332.000976562 236.002929688 304.000976562 c 0
 248.002929688 286.000976562 262.502929688 270.833984375 279.502929688 258.500976562 c 0
 296.502929688 246.16796875 315.3359375 236.000976562 336.002929688 228.000976562 c 0
 356.669921875 220.000976562 378.669921875 214.000976562 402.002929688 210.000976562 c 0
 425.3359375 206.000976562 449.3359375 203.333984375 474.002929688 202.000976562 c 1
 473.002929688 197.000976562 l 2
 469.669921875 183.66796875 464.669921875 169.000976562 458.002929688 153.000976562 c 0
 451.3359375 137.000976562 444.168945312 120.66796875 436.501953125 104.000976562 c 0
 428.834960938 87.333984375 421.001953125 71.1669921875 413.001953125 55.5 c 0
 405.001953125 39.8330078125 398.001953125 25.666015625 392.001953125 12.9990234375 c 2
 389.001953125 7.9990234375 l 2
 385.668945312 4.666015625 383.668945312 2.3330078125 383.001953125 1 c 0
 382.334960938 -0.3330078125 380.001953125 -1 376.001953125 -1 c 0
 345.334960938 -1 315.501953125 3.3330078125 286.501953125 12 c 0
 257.501953125 20.6669921875 231.168945312 32.6669921875 207.501953125 48 c 0
 183.834960938 63.3330078125 163.501953125 81.3330078125 146.501953125 102 c 0
 129.501953125 122.666992188 117.668945312 145 111.001953125 169 c 0
 100.334960938 203 96.16796875 237.166992188 98.5009765625 271.5 c 0
 100.833984375 305.833007812 106.666992188 341 116 377 c 0
EndSplineSet
EndChar

StartChar: D
Encoding: 68 68 38
Width: 580
GlyphClass: 2
Flags: W
LayerCount: 2
Fore
SplineSet
87 57 m 1
 87.0029296875 65.001953125 l 2
 89.669921875 75.001953125 100.002929688 81.001953125 118.002929688 83.001953125 c 1
 123.3359375 109.001953125 129.002929688 135.834960938 135.002929688 163.501953125 c 0
 141.002929688 191.168945312 147.669921875 220.001953125 155.002929688 250.001953125 c 0
 165.669921875 292.001953125 176.669921875 333.001953125 188.002929688 373.001953125 c 0
 199.3359375 413.001953125 211.668945312 452.001953125 225.001953125 490.001953125 c 1
 207.001953125 484.668945312 191.001953125 480.168945312 177.001953125 476.501953125 c 0
 163.001953125 472.834960938 148.001953125 465.66796875 132.001953125 455.000976562 c 1
 133.001953125 460.000976562 l 2
 132.334960938 460.66796875 132.66796875 464.000976562 134.000976562 470.000976562 c 2
 137.000976562 481.000976562 l 2
 140.333984375 495.66796875 147.500976562 510.500976562 158.500976562 525.500976562 c 0
 169.500976562 540.500976562 182.500976562 555.500976562 197.500976562 570.500976562 c 0
 212.500976562 585.500976562 228.500976562 600.333984375 245.500976562 615.000976562 c 0
 262.500976562 629.66796875 279.16796875 643.834960938 295.500976562 657.501953125 c 0
 311.833984375 671.168945312 326.500976562 684.501953125 339.500976562 697.501953125 c 0
 352.500976562 710.501953125 362.66796875 722.668945312 370.000976562 734.001953125 c 1
 376.000976562 721.001953125 l 1
 370.000976562 699.001953125 l 1
 369.000976562 688.001953125 l 1
 380.333984375 689.334960938 391.666992188 690.334960938 403 691.001953125 c 0
 414.333007812 691.668945312 425.666015625 692.001953125 436.999023438 692.001953125 c 0
 468.999023438 692.001953125 498.499023438 689.001953125 525.499023438 683.001953125 c 0
 552.499023438 677.001953125 576.166015625 667.001953125 596.499023438 653.001953125 c 0
 616.83203125 639.001953125 633.165039062 620.834960938 645.498046875 598.501953125 c 0
 657.831054688 576.168945312 665.331054688 549.001953125 667.998046875 517.001953125 c 2
 667.998046875 501.001953125 l 2
 669.331054688 492.334960938 669.831054688 483.834960938 669.498046875 475.501953125 c 0
 669.165039062 467.168945312 669.33203125 462.3359375 669.999023438 461.002929688 c 0
 669.33203125 453.669921875 668.499023438 446.336914062 667.499023438 439.00390625 c 0
 666.499023438 431.670898438 664.666015625 423.670898438 661.999023438 415.00390625 c 0
 653.33203125 378.336914062 635.83203125 342.669921875 609.499023438 308.002929688 c 0
 583.166015625 273.3359375 552.333007812 240.668945312 517 210.001953125 c 0
 481.666992188 179.334960938 444.166992188 151.16796875 404.5 125.500976562 c 0
 364.833007812 99.833984375 327.5 77.6669921875 292.5 59 c 0
 257.5 40.3330078125 227 25.8330078125 201 15.5 c 0
 175 5.1669921875 158.333007812 0 151 0 c 2
 121 -1 l 1
 121 -2 l 1
 120 -2 l 1
 87 57 l 1
324.002929688 505.001953125 m 2
 323.3359375 504.334960938 321.338867188 497.672851562 318.005859375 485.005859375 c 2
 311.005859375 457.005859375 l 2
 307.005859375 441.672851562 303.505859375 426.172851562 300.505859375 410.505859375 c 0
 297.505859375 394.838867188 296.338867188 383.671875 297.005859375 377.004882812 c 0
 297.672851562 369.004882812 297.172851562 352.671875 295.505859375 328.004882812 c 0
 293.838867188 303.337890625 291.671875 276.837890625 289.004882812 248.504882812 c 0
 286.337890625 220.171875 284.004882812 193.504882812 282.004882812 168.504882812 c 0
 280.004882812 143.504882812 279.671875 126.671875 281.004882812 118.004882812 c 1
 304.337890625 124.671875 327.004882812 135.671875 349.004882812 151.004882812 c 0
 371.004882812 166.337890625 391.004882812 184.170898438 409.004882812 204.50390625 c 0
 427.004882812 224.836914062 442.671875 247.169921875 456.004882812 271.502929688 c 0
 469.337890625 295.8359375 479.004882812 320.3359375 485.004882812 345.002929688 c 0
 486.337890625 350.3359375 487.670898438 357.168945312 489.00390625 365.501953125 c 0
 490.336914062 373.834960938 491.669921875 382.501953125 493.002929688 391.501953125 c 0
 494.3359375 400.501953125 495.502929688 409.168945312 496.502929688 417.501953125 c 0
 497.502929688 425.834960938 498.002929688 432.66796875 498.002929688 438.000976562 c 0
 496.002929688 468.000976562 490.3359375 490.000976562 481.002929688 504.000976562 c 0
 471.669921875 518.000976562 462.669921875 526.66796875 454.002929688 530.000976562 c 0
 447.3359375 532.66796875 438.502929688 535.000976562 427.502929688 537.000976562 c 0
 416.502929688 539.000976562 405.502929688 540.833984375 394.502929688 542.500976562 c 0
 383.502929688 544.16796875 373.502929688 545.334960938 364.502929688 546.001953125 c 0
 355.502929688 546.668945312 349.669921875 547.001953125 347.002929688 547.001953125 c 2
 346.002929688 547.001953125 l 1
 324.002929688 505.001953125 l 2
EndSplineSet
EndChar

StartChar: E
Encoding: 69 69 39
Width: 525
GlyphClass: 2
Flags: W
LayerCount: 2
Fore
SplineSet
80 77 m 1
 86.6669921875 109 92.8427734375 137.830078125 98.509765625 163.497070312 c 0
 104.176757812 189.1640625 110.34375 215.331054688 117.010742188 241.998046875 c 2
 125.010742188 263.998046875 l 1
 148.010742188 354.998046875 l 2
 148.010742188 357.665039062 148.177734375 360.498046875 148.510742188 363.498046875 c 0
 148.84375 366.498046875 149.676757812 370.665039062 151.009765625 375.998046875 c 0
 151.676757812 379.331054688 152.176757812 382.831054688 152.509765625 386.498046875 c 0
 152.842773438 390.165039062 153.009765625 392.33203125 153.009765625 392.999023438 c 2
 121.009765625 423.999023438 l 2
 119.676757812 425.999023438 117.176757812 428.999023438 113.509765625 432.999023438 c 2
 108.009765625 438.999023438 l 1
 115.009765625 448.999023438 l 1
 118.009765625 450.999023438 l 1
 131.009765625 450.999023438 l 2
 139.009765625 450.999023438 147.842773438 450.666015625 157.509765625 449.999023438 c 0
 167.176757812 449.33203125 172.676757812 448.33203125 174.009765625 446.999023438 c 1
 266.009765625 620.999023438 l 1
 262.509765625 621.499023438 l 2
 260.176757812 621.83203125 258.009765625 622.33203125 256.009765625 622.999023438 c 0
 250.009765625 624.999023438 244.676757812 625.999023438 240.009765625 625.999023438 c 0
 232.676757812 625.999023438 225.676757812 624.999023438 219.009765625 622.999023438 c 0
 212.342773438 620.999023438 204.67578125 618.999023438 196.008789062 616.999023438 c 1
 195.008789062 622.999023438 l 1
 288.008789062 671.999023438 l 2
 288.67578125 671.999023438 291.67578125 674.33203125 297.008789062 678.999023438 c 0
 302.341796875 683.666015625 306.341796875 687.666015625 309.008789062 690.999023438 c 0
 310.341796875 691.666015625 312.508789062 693.499023438 315.508789062 696.499023438 c 0
 318.508789062 699.499023438 321.508789062 702.83203125 324.508789062 706.499023438 c 0
 327.508789062 710.166015625 330.341796875 713.499023438 333.008789062 716.499023438 c 0
 335.67578125 719.499023438 337.67578125 721.666015625 339.008789062 722.999023438 c 1
 340.008789062 716.999023438 l 1
 337.008789062 682.999023438 l 1
 338.008789062 680.999023438 l 1
 353.341796875 684.33203125 370.841796875 687.165039062 390.508789062 689.498046875 c 0
 410.17578125 691.831054688 434.008789062 692.998046875 462.008789062 692.998046875 c 0
 482.67578125 692.998046875 502.67578125 691.998046875 522.008789062 689.998046875 c 0
 541.341796875 687.998046875 558.674804688 684.831054688 574.0078125 680.498046875 c 0
 589.340820312 676.165039062 602.173828125 670.33203125 612.506835938 662.999023438 c 0
 622.83984375 655.666015625 629.006835938 646.666015625 631.006835938 635.999023438 c 0
 634.33984375 622.666015625 635.33984375 610.999023438 634.006835938 600.999023438 c 0
 632.673828125 590.999023438 632.340820312 577.33203125 633.0078125 559.999023438 c 0
 632.340820312 553.999023438 631.173828125 546.499023438 629.506835938 537.499023438 c 0
 627.83984375 528.499023438 626.33984375 519.666015625 625.006835938 510.999023438 c 0
 623.673828125 502.33203125 622.173828125 494.499023438 620.506835938 487.499023438 c 0
 618.83984375 480.499023438 617.672851562 475.999023438 617.005859375 473.999023438 c 1
 617.005859375 474.999023438 l 1
 608.005859375 474.999023438 l 1
 605.005859375 476.999023438 l 2
 601.005859375 479.666015625 595.172851562 483.499023438 587.505859375 488.499023438 c 0
 579.838867188 493.499023438 572.005859375 498.999023438 564.005859375 504.999023438 c 0
 556.005859375 510.999023438 548.172851562 516.83203125 540.505859375 522.499023438 c 0
 532.838867188 528.166015625 527.005859375 532.999023438 523.005859375 536.999023438 c 2
 520.505859375 538.499023438 l 2
 518.838867188 539.499023438 514.671875 542.666015625 508.004882812 547.999023438 c 2
 497.004882812 555.999023438 l 2
 486.337890625 562.666015625 475.670898438 569.666015625 465.00390625 576.999023438 c 0
 454.336914062 584.33203125 443.336914062 591.33203125 432.00390625 597.999023438 c 0
 420.670898438 604.666015625 409.170898438 610.166015625 397.50390625 614.499023438 c 0
 385.836914062 618.83203125 374.00390625 620.999023438 362.00390625 620.999023438 c 2
 357.00390625 620.999023438 l 2
 355.670898438 620.999023438 353.00390625 620.33203125 349.00390625 618.999023438 c 0
 347.00390625 618.999023438 345.836914062 618.666015625 345.50390625 617.999023438 c 2
 345.00390625 616.999023438 l 2
 343.670898438 616.999023438 342.670898438 614.999023438 342.00390625 610.999023438 c 0
 340.670898438 605.666015625 339.670898438 602.666015625 339.00390625 601.999023438 c 0
 331.00390625 585.999023438 323.50390625 569.999023438 316.50390625 553.999023438 c 0
 309.50390625 537.999023438 303.336914062 522.999023438 298.00390625 508.999023438 c 0
 292.670898438 494.999023438 288.170898438 482.33203125 284.50390625 470.999023438 c 0
 280.836914062 459.666015625 278.336914062 450.666015625 277.00390625 443.999023438 c 2
 275.00390625 436.999023438 l 2
 275.00390625 436.33203125 275.170898438 435.499023438 275.50390625 434.499023438 c 0
 275.836914062 433.499023438 275.669921875 432.33203125 275.002929688 430.999023438 c 0
 278.3359375 424.33203125 286.668945312 419.999023438 300.001953125 417.999023438 c 0
 313.334960938 415.999023438 329.66796875 414.999023438 349.000976562 414.999023438 c 0
 367.66796875 414.999023438 385.834960938 415.499023438 403.501953125 416.499023438 c 0
 421.168945312 417.499023438 435.3359375 418.666015625 446.002929688 419.999023438 c 2
 523.002929688 431.999023438 l 1
 524.002929688 424.999023438 l 1
 518.669921875 411.666015625 512.669921875 394.999023438 506.002929688 374.999023438 c 0
 499.3359375 354.999023438 493.3359375 334.999023438 488.002929688 314.999023438 c 0
 486.002929688 306.999023438 484.169921875 299.33203125 482.502929688 291.999023438 c 0
 480.8359375 284.666015625 480.3359375 277.999023438 481.002929688 271.999023438 c 1
 443.002929688 279.999023438 407.8359375 288.666015625 375.502929688 297.999023438 c 0
 343.169921875 307.33203125 309.002929688 318.33203125 273.002929688 330.999023438 c 0
 272.3359375 329.666015625 271.668945312 328.166015625 271.001953125 326.499023438 c 0
 270.334960938 324.83203125 269.66796875 322.33203125 269.000976562 318.999023438 c 0
 266.333984375 308.999023438 265.166992188 296.666015625 265.5 281.999023438 c 0
 265.833007812 267.33203125 267.333007812 251.999023438 270 235.999023438 c 0
 272.666992188 219.999023438 275.666992188 203.83203125 279 187.499023438 c 0
 282.333007812 171.166015625 285.666015625 156.333007812 288.999023438 143 c 2
 295.999023438 114 l 1
 516.999023438 192 l 2
 517.666015625 191.333007812 517.666015625 188.666015625 516.999023438 183.999023438 c 0
 514.999023438 175.999023438 510.666015625 165.499023438 503.999023438 152.499023438 c 0
 497.33203125 139.499023438 489.999023438 126.33203125 481.999023438 112.999023438 c 0
 473.999023438 99.666015625 466.33203125 87.4990234375 458.999023438 76.4990234375 c 0
 451.666015625 65.4990234375 446.333007812 57.9990234375 443 53.9990234375 c 0
 439.666992188 50.666015625 434.333984375 46.9990234375 427.000976562 42.9990234375 c 0
 419.66796875 38.9990234375 412.000976562 35.33203125 404.000976562 31.9990234375 c 0
 396.000976562 28.666015625 388.333984375 25.8330078125 381.000976562 23.5 c 0
 373.66796875 21.1669921875 368.334960938 19.6669921875 365.001953125 19 c 0
 364.334960938 19 363.66796875 18.8330078125 363.000976562 18.5 c 2
 362.000976562 18 l 1
 354.000976562 14 l 2
 348.66796875 12.6669921875 343.16796875 11.1669921875 337.500976562 9.5 c 0
 331.833984375 7.8330078125 326.666992188 6.3330078125 322 5 c 2
 312 1 l 1
 256 1 205 7.6669921875 159 21 c 0
 113 34.3330078125 68 51 24 71 c 1
 80 77 l 1
EndSplineSet
EndChar

StartChar: F
Encoding: 70 70 40
Width: 504
GlyphClass: 2
Flags: W
LayerCount: 2
Fore
SplineSet
162 428 m 2
 162.666992188 428 165.665039062 433.831054688 170.998046875 445.498046875 c 0
 176.331054688 457.165039062 182.6640625 470.998046875 189.997070312 486.998046875 c 0
 197.330078125 502.998046875 204.663085938 519.498046875 211.99609375 536.498046875 c 0
 219.329101562 553.498046875 224.99609375 567.331054688 228.99609375 577.998046875 c 2
 231.99609375 590.998046875 l 1
 168.99609375 590.998046875 l 1
 170.99609375 595.998046875 l 2
 170.99609375 598.665039062 171.99609375 600.998046875 173.99609375 602.998046875 c 0
 179.99609375 610.998046875 188.329101562 617.665039062 198.99609375 622.998046875 c 0
 209.663085938 628.331054688 221.330078125 633.331054688 233.997070312 637.998046875 c 0
 246.6640625 642.665039062 259.1640625 647.498046875 271.497070312 652.498046875 c 0
 283.830078125 657.498046875 294.663085938 663.665039062 303.99609375 670.998046875 c 2
 366.99609375 721.998046875 l 1
 382.99609375 721.998046875 l 1
 372.99609375 679.998046875 l 1
 377.663085938 679.998046875 385.99609375 679.665039062 397.99609375 678.998046875 c 0
 409.99609375 678.331054688 422.49609375 677.498046875 435.49609375 676.498046875 c 0
 448.49609375 675.498046875 460.829101562 674.498046875 472.49609375 673.498046875 c 0
 484.163085938 672.498046875 492.330078125 671.665039062 496.997070312 670.998046875 c 0
 498.997070312 670.998046875 504.1640625 670.331054688 512.497070312 668.998046875 c 0
 520.830078125 667.665039062 529.830078125 666.165039062 539.497070312 664.498046875 c 0
 549.1640625 662.831054688 558.331054688 660.998046875 566.998046875 658.998046875 c 0
 575.665039062 656.998046875 581.998046875 655.331054688 585.998046875 653.998046875 c 2
 642.998046875 636.998046875 l 2
 644.331054688 636.998046875 645.998046875 635.998046875 647.998046875 633.998046875 c 0
 649.998046875 631.998046875 650.665039062 630.331054688 649.998046875 628.998046875 c 0
 633.331054688 610.331054688 616.831054688 590.998046875 600.498046875 570.998046875 c 0
 584.165039062 550.998046875 570.33203125 530.665039062 558.999023438 509.998046875 c 1
 555.499023438 509.498046875 l 2
 553.166015625 509.165039062 551.333007812 508.998046875 550 508.998046875 c 0
 548 508.998046875 545.833007812 509.165039062 543.5 509.498046875 c 0
 541.166992188 509.831054688 539.666992188 509.998046875 539 509.998046875 c 2
 474 534.998046875 l 2
 464.666992188 537.665039062 452.5 540.998046875 437.5 544.998046875 c 0
 422.5 548.998046875 407.666992188 552.998046875 393 556.998046875 c 0
 378.333007812 560.998046875 365.833007812 564.165039062 355.5 566.498046875 c 0
 345.166992188 568.831054688 340 569.6640625 340 568.997070312 c 2
 327 560.997070312 l 1
 313 505.997070312 l 2
 311 497.330078125 308.833007812 487.497070312 306.5 476.497070312 c 0
 304.166992188 465.497070312 302.5 455.1640625 301.5 445.497070312 c 0
 300.5 435.830078125 300.5 427.663085938 301.5 420.99609375 c 0
 302.5 414.329101562 305.333007812 410.99609375 310 410.99609375 c 2
 486 418.99609375 l 1
 488.5 406.99609375 l 2
 490.166992188 398.99609375 491.833984375 389.329101562 493.500976562 377.99609375 c 0
 495.16796875 366.663085938 496.66796875 355.163085938 498.000976562 343.49609375 c 0
 499.333984375 331.829101562 500.333984375 321.99609375 501.000976562 313.99609375 c 0
 501.000976562 311.99609375 500.66796875 307.829101562 500.000976562 301.49609375 c 0
 499.333984375 295.163085938 498.666992188 290.99609375 498 288.99609375 c 2
 273 295.99609375 l 1
 267.666992188 273.99609375 265.5 251.829101562 266.5 229.49609375 c 0
 267.5 207.163085938 269.166992188 185.330078125 271.5 163.997070312 c 0
 273.833007812 142.6640625 275.833007812 122.331054688 277.5 102.998046875 c 0
 279.166992188 83.6650390625 278 66.33203125 274 50.9990234375 c 2
 273 48.9990234375 l 2
 271.666992188 45.666015625 270.5 42.666015625 269.5 39.9990234375 c 0
 268.5 37.33203125 264.333007812 35.33203125 257 33.9990234375 c 2
 106 -0.0009765625 l 1
 98 7.9990234375 l 2
 97.3330078125 8.666015625 96.666015625 12.3330078125 95.9990234375 19 c 0
 95.33203125 25.6669921875 94.4990234375 33.5 93.4990234375 42.5 c 0
 92.4990234375 51.5 91.4990234375 60.6669921875 90.4990234375 70 c 0
 89.4990234375 79.3330078125 88.666015625 87 87.9990234375 93 c 0
 87.9990234375 103 88.33203125 115.5 88.9990234375 130.5 c 0
 89.666015625 145.5 90.4990234375 160.833007812 91.4990234375 176.5 c 0
 92.4990234375 192.166992188 93.83203125 207.666992188 95.4990234375 223 c 0
 97.166015625 238.333007812 98.9990234375 251.666015625 100.999023438 262.999023438 c 2
 119.999023438 339.999023438 l 2
 122.666015625 345.999023438 123.999023438 349.999023438 123.999023438 351.999023438 c 2
 123.999023438 356.999023438 l 2
 123.999023438 357.666015625 123.166015625 359.833007812 121.499023438 363.5 c 0
 119.83203125 367.166992188 117.83203125 371.166992188 115.499023438 375.5 c 0
 113.166015625 379.833007812 110.833007812 384 108.5 388 c 0
 106.166992188 392 104.666992188 395 104 397 c 2
 91 433 l 1
 162 428 l 2
EndSplineSet
EndChar

StartChar: G
Encoding: 71 71 41
Width: 539
GlyphClass: 2
Flags: W
LayerCount: 2
Fore
SplineSet
384 21 m 1
 360 19 337.674804688 18.001953125 317.0078125 18.001953125 c 0
 215.0078125 18.001953125 146.674804688 41.001953125 112.0078125 87.001953125 c 0
 77.3408203125 133.001953125 72.0078125 204.334960938 96.0078125 301.001953125 c 0
 109.340820312 355.001953125 129.673828125 405.668945312 157.006835938 453.001953125 c 0
 184.33984375 500.334960938 222.006835938 546.001953125 270.006835938 590.001953125 c 1
 254.673828125 594.668945312 238.673828125 598.3359375 222.006835938 601.002929688 c 0
 205.33984375 603.669921875 189.006835938 606.002929688 173.006835938 608.002929688 c 1
 175.006835938 617.002929688 l 1
 243.006835938 644.002929688 l 2
 259.006835938 650.002929688 275.673828125 656.669921875 293.006835938 664.002929688 c 0
 310.33984375 671.3359375 328.006835938 678.3359375 346.006835938 685.002929688 c 0
 364.006835938 691.669921875 381.83984375 697.169921875 399.506835938 701.502929688 c 0
 417.173828125 705.8359375 434.006835938 708.002929688 450.006835938 708.002929688 c 0
 456.006835938 708.002929688 463.673828125 707.002929688 473.006835938 705.002929688 c 2
 502.006835938 699.002929688 l 1
 499.33984375 697.002929688 496.172851562 692.3359375 492.505859375 685.002929688 c 0
 488.838867188 677.669921875 486.338867188 673.002929688 485.005859375 671.002929688 c 2
 483.005859375 663.002929688 l 1
 487.672851562 661.669921875 495.505859375 659.336914062 506.505859375 656.00390625 c 0
 517.505859375 652.670898438 529.005859375 649.170898438 541.005859375 645.50390625 c 0
 553.005859375 641.836914062 564.505859375 638.169921875 575.505859375 634.502929688 c 0
 586.505859375 630.8359375 594.005859375 628.002929688 598.005859375 626.002929688 c 0
 608.672851562 622.002929688 618.672851562 617.3359375 628.005859375 612.002929688 c 0
 637.338867188 606.669921875 644.671875 599.336914062 650.004882812 590.00390625 c 1
 629.337890625 572.670898438 608.004882812 553.50390625 586.004882812 532.50390625 c 0
 564.004882812 511.50390625 544.004882812 491.00390625 526.004882812 471.00390625 c 1
 517.004882812 471.00390625 l 1
 512.337890625 476.336914062 505.670898438 485.836914062 497.00390625 499.50390625 c 0
 488.336914062 513.170898438 478.50390625 527.00390625 467.50390625 541.00390625 c 0
 456.50390625 555.00390625 444.670898438 567.50390625 432.00390625 578.50390625 c 0
 419.336914062 589.50390625 406.336914062 595.00390625 393.00390625 595.00390625 c 0
 388.336914062 595.00390625 385.669921875 594.670898438 385.002929688 594.00390625 c 0
 377.002929688 592.670898438 368.669921875 587.50390625 360.002929688 578.50390625 c 0
 351.3359375 569.50390625 342.502929688 558.170898438 333.502929688 544.50390625 c 0
 324.502929688 530.836914062 315.8359375 516.169921875 307.502929688 500.502929688 c 0
 299.169921875 484.8359375 291.669921875 469.502929688 285.002929688 454.502929688 c 0
 278.3359375 439.502929688 272.668945312 425.8359375 268.001953125 413.502929688 c 0
 263.334960938 401.169921875 260.334960938 392.002929688 259.001953125 386.002929688 c 0
 251.668945312 356.002929688 248.3359375 326.3359375 249.002929688 297.002929688 c 0
 249.669921875 267.669921875 255.502929688 241.669921875 266.502929688 219.002929688 c 0
 277.502929688 196.3359375 294.169921875 178.002929688 316.502929688 164.002929688 c 0
 338.8359375 150.002929688 367.668945312 143.002929688 403.001953125 143.002929688 c 1
 407.001953125 159.002929688 408.501953125 175.502929688 407.501953125 192.502929688 c 0
 406.501953125 209.502929688 404.168945312 226.169921875 400.501953125 242.502929688 c 0
 396.834960938 258.8359375 392.16796875 274.668945312 386.500976562 290.001953125 c 0
 380.833984375 305.334960938 375.333984375 319.66796875 370.000976562 333.000976562 c 1
 404.66796875 336.333984375 438.000976562 341.666992188 470.000976562 349 c 0
 502.000976562 356.333007812 534.000976562 366 566.000976562 378 c 1
 572.000976562 375.333007812 576.16796875 370.666015625 578.500976562 363.999023438 c 0
 580.833984375 357.33203125 582.000976562 349.665039062 582.000976562 340.998046875 c 0
 582.000976562 332.331054688 581.333984375 323.331054688 580.000976562 313.998046875 c 0
 578.66796875 304.665039062 577.000976562 295.665039062 575.000976562 286.998046875 c 2
 568.000976562 261.998046875 l 1
 532.000976562 156.998046875 l 1
 565.000976562 156.998046875 l 1
 561.66796875 142.998046875 553.500976562 127.498046875 540.500976562 110.498046875 c 0
 527.500976562 93.498046875 512.333984375 76.8310546875 495.000976562 60.498046875 c 0
 477.66796875 44.1650390625 460.000976562 28.83203125 442.000976562 14.4990234375 c 0
 424.000976562 0.166015625 408.333984375 -11.6669921875 395.000976562 -21 c 1
 389.66796875 -17.6669921875 386.66796875 -11.1669921875 386.000976562 -1.5 c 0
 385.333984375 8.1669921875 384.666992188 15.6669921875 384 21 c 1
EndSplineSet
EndChar

StartChar: H
Encoding: 72 72 42
Width: 572
GlyphClass: 2
Flags: W
LayerCount: 2
Fore
SplineSet
111 299 m 0
 109.666992188 299.666992188 107.666992188 301.5 105 304.5 c 0
 102.333007812 307.5 99.666015625 310.666992188 96.9990234375 314 c 0
 94.33203125 317.333007812 91.9990234375 320.5 89.9990234375 323.5 c 0
 87.9990234375 326.5 86.9990234375 328.666992188 86.9990234375 330 c 2
 86.9990234375 331 l 2
 86.9990234375 333 87.33203125 334.333007812 87.9990234375 335 c 0
 87.9990234375 335.666992188 88.33203125 336.5 88.9990234375 337.5 c 2
 89.9990234375 339 l 2
 90.666015625 339.666992188 93.4990234375 341.833984375 98.4990234375 345.500976562 c 0
 103.499023438 349.16796875 109.166015625 353.334960938 115.499023438 358.001953125 c 0
 121.83203125 362.668945312 127.499023438 367.001953125 132.499023438 371.001953125 c 0
 137.499023438 375.001953125 140.33203125 377.668945312 140.999023438 379.001953125 c 0
 152.999023438 395.001953125 164.166015625 414.834960938 174.499023438 438.501953125 c 0
 184.83203125 462.168945312 194.999023438 487.001953125 204.999023438 513.001953125 c 0
 214.999023438 539.001953125 225.499023438 564.834960938 236.499023438 590.501953125 c 0
 247.499023438 616.168945312 259.666015625 639.001953125 272.999023438 659.001953125 c 0
 275.666015625 663.668945312 279.499023438 669.3359375 284.499023438 676.002929688 c 0
 289.499023438 682.669921875 294.499023438 689.169921875 299.499023438 695.502929688 c 0
 304.499023438 701.8359375 308.83203125 707.3359375 312.499023438 712.002929688 c 2
 317.999023438 719.002929688 l 1
 327.999023438 719.002929688 l 1
 290.999023438 399.002929688 l 1
 469.999023438 399.002929688 l 1
 475.33203125 411.669921875 479.999023438 424.336914062 483.999023438 437.00390625 c 0
 487.999023438 449.670898438 491.666015625 462.670898438 494.999023438 476.00390625 c 0
 500.33203125 497.336914062 502.665039062 518.836914062 501.998046875 540.50390625 c 0
 501.331054688 562.170898438 500.6640625 585.00390625 499.997070312 609.00390625 c 0
 499.330078125 611.670898438 498.997070312 618.337890625 498.997070312 629.004882812 c 0
 498.997070312 637.004882812 499.6640625 643.671875 500.997070312 649.004882812 c 2
 501.997070312 660.004882812 l 2
 503.997070312 668.004882812 513.1640625 674.504882812 529.497070312 679.504882812 c 0
 545.830078125 684.504882812 564.330078125 688.504882812 584.997070312 691.504882812 c 0
 605.6640625 694.504882812 625.497070312 696.504882812 644.497070312 697.504882812 c 0
 663.497070312 698.504882812 676.6640625 699.004882812 683.997070312 699.004882812 c 2
 693.997070312 699.004882812 l 1
 692.6640625 684.337890625 691.331054688 671.837890625 689.998046875 661.504882812 c 0
 688.665039062 651.171875 687.33203125 641.504882812 685.999023438 632.504882812 c 0
 684.666015625 623.504882812 682.999023438 614.504882812 680.999023438 605.504882812 c 0
 678.999023438 596.504882812 676.666015625 586.337890625 673.999023438 575.004882812 c 2
 667.999023438 549.004882812 l 2
 666.666015625 542.337890625 663.499023438 531.170898438 658.499023438 515.50390625 c 0
 653.499023438 499.836914062 648.166015625 483.169921875 642.499023438 465.502929688 c 0
 636.83203125 447.8359375 631.499023438 431.3359375 626.499023438 416.002929688 c 0
 621.499023438 400.669921875 617.999023438 390.002929688 615.999023438 384.002929688 c 1
 657.999023438 384.002929688 l 1
 655.999023438 378.002929688 l 2
 655.33203125 374.002929688 654.33203125 371.3359375 652.999023438 370.002929688 c 2
 615.999023438 299.002929688 l 1
 598.999023438 194.002929688 l 1
 578.999023438 194.002929688 561.166015625 189.502929688 545.499023438 180.502929688 c 0
 529.83203125 171.502929688 515.33203125 160.002929688 501.999023438 146.002929688 c 0
 488.666015625 132.002929688 476.333007812 117.169921875 465 101.502929688 c 0
 453.666992188 85.8359375 442.333984375 71.0029296875 431.000976562 57.0029296875 c 0
 419.66796875 43.0029296875 407.66796875 31.5029296875 395.000976562 22.5029296875 c 0
 382.333984375 13.5029296875 368.333984375 9.0029296875 353.000976562 9.0029296875 c 2
 347.000976562 10.0029296875 l 1
 353.000976562 22.0029296875 l 2
 361.66796875 38.0029296875 369.16796875 52.169921875 375.500976562 64.5029296875 c 0
 381.833984375 76.8359375 387.333984375 88.6689453125 392.000976562 100.001953125 c 0
 396.66796875 111.334960938 400.834960938 122.834960938 404.501953125 134.501953125 c 0
 408.168945312 146.168945312 412.001953125 159.668945312 416.001953125 175.001953125 c 2
 427.001953125 220.001953125 l 1
 423.001953125 229.334960938 415.001953125 237.16796875 403.001953125 243.500976562 c 0
 391.001953125 249.833984375 377.501953125 254.833984375 362.501953125 258.500976562 c 0
 347.501953125 262.16796875 332.334960938 264.834960938 317.001953125 266.501953125 c 0
 301.668945312 268.168945312 288.668945312 269.001953125 278.001953125 269.001953125 c 2
 268.001953125 269.001953125 l 1
 267.334960938 263.001953125 266.501953125 252.501953125 265.501953125 237.501953125 c 0
 264.501953125 222.501953125 263.501953125 206.501953125 262.501953125 189.501953125 c 0
 261.501953125 172.501953125 260.668945312 156.501953125 260.001953125 141.501953125 c 0
 259.334960938 126.501953125 259.001953125 116.001953125 259.001953125 110.001953125 c 0
 258.334960938 100.668945312 258.16796875 93.6689453125 258.500976562 89.001953125 c 0
 258.833984375 84.3349609375 259.166992188 80.8349609375 259.5 78.501953125 c 0
 259.833007812 76.1689453125 260.166015625 74.1689453125 260.499023438 72.501953125 c 0
 260.83203125 70.8349609375 260.665039062 68.3349609375 259.998046875 65.001953125 c 0
 259.331054688 63.6689453125 258.6640625 61.6689453125 257.997070312 59.001953125 c 0
 257.330078125 56.3349609375 256.330078125 53.3349609375 254.997070312 50.001953125 c 2
 247.997070312 30.001953125 l 1
 246.997070312 29.501953125 l 2
 246.330078125 29.1689453125 245.330078125 29.001953125 243.997070312 29.001953125 c 0
 236.6640625 27.001953125 225.831054688 24.501953125 211.498046875 21.501953125 c 0
 197.165039062 18.501953125 182.498046875 15.501953125 167.498046875 12.501953125 c 0
 152.498046875 9.501953125 138.498046875 6.8349609375 125.498046875 4.501953125 c 0
 112.498046875 2.1689453125 103.665039062 0.6689453125 98.998046875 0.001953125 c 0
 97.6650390625 0.001953125 95.6650390625 -0.1650390625 92.998046875 -0.498046875 c 0
 90.3310546875 -0.8310546875 88.3310546875 -0.998046875 86.998046875 -0.998046875 c 0
 79.6650390625 -0.998046875 75.83203125 -0.498046875 75.4990234375 0.501953125 c 0
 75.166015625 1.501953125 74.3330078125 4.3349609375 73 9.001953125 c 2
 73 16.001953125 l 2
 73 16.6689453125 72.6669921875 17.1689453125 72 17.501953125 c 0
 71.3330078125 17.8349609375 71.3330078125 18.66796875 72 20.0009765625 c 0
 72 44.66796875 72.8330078125 68.16796875 74.5 90.5009765625 c 0
 76.1669921875 112.833984375 78.5 135.166992188 81.5 157.5 c 0
 84.5 179.833007812 88.5 202.5 93.5 225.5 c 0
 98.5 248.5 104.333007812 273 111 299 c 0
EndSplineSet
EndChar

StartChar: I
Encoding: 73 73 43
Width: 230
GlyphClass: 2
Flags: W
LayerCount: 2
Fore
SplineSet
74 211 m 2
 82.6669921875 247 94.33203125 288.501953125 108.999023438 335.501953125 c 0
 123.666015625 382.501953125 141.999023438 429.168945312 163.999023438 475.501953125 c 0
 185.999023438 521.834960938 211.999023438 565.16796875 241.999023438 605.500976562 c 0
 271.999023438 645.833984375 306.999023438 678.000976562 346.999023438 702.000976562 c 1
 336.999023438 661.000976562 l 1
 334.999023438 651.000976562 l 1
 322.999023438 615.000976562 311.33203125 579.16796875 299.999023438 543.500976562 c 0
 288.666015625 507.833984375 278.333007812 471.000976562 269 433.000976562 c 2
 258 391.000976562 l 1
 258 384.000976562 l 1
 254 364.000976562 250.5 339.16796875 247.5 309.500976562 c 0
 244.5 279.833984375 241.666992188 249.166992188 239 217.5 c 0
 236.333007812 185.833007812 234.166015625 155.5 232.499023438 126.5 c 0
 230.83203125 97.5 229.33203125 74 227.999023438 56 c 1
 221.999023438 37 l 1
 65.9990234375 0 l 1
 59.9990234375 0 l 2
 55.9990234375 -0 53.33203125 2.8330078125 51.9990234375 8.5 c 0
 50.666015625 14.1669921875 49.8330078125 20.5 49.5 27.5 c 0
 49.1669921875 34.5 49.1669921875 41 49.5 47 c 2
 50 56 l 2
 51.3330078125 76 51.8330078125 92 51.5 104 c 0
 51.1669921875 116 52.6669921875 127.666992188 56 139 c 2
 74 211 l 2
EndSplineSet
EndChar

StartChar: J
Encoding: 74 74 44
Width: 542
GlyphClass: 2
Flags: W
LayerCount: 2
Fore
SplineSet
30 80 m 0
 33.3330078125 94 39.5009765625 110.163085938 48.5009765625 128.49609375 c 0
 57.5009765625 146.829101562 67.833984375 165.162109375 79.5009765625 183.495117188 c 0
 91.16796875 201.828125 103.66796875 218.828125 117.000976562 234.495117188 c 0
 130.333984375 250.162109375 143.000976562 262.329101562 155.000976562 270.99609375 c 1
 158.000976562 270.99609375 l 1
 167.333984375 263.663085938 175.000976562 252.49609375 181.000976562 237.49609375 c 0
 187.000976562 222.49609375 193.333984375 209.99609375 200.000976562 199.99609375 c 0
 212.000976562 182.663085938 228.66796875 165.99609375 250.000976562 149.99609375 c 0
 271.333984375 133.99609375 293.333984375 119.99609375 316.000976562 107.99609375 c 0
 316.66796875 107.329101562 320.000976562 106.99609375 326.000976562 106.99609375 c 2
 356.000976562 106.99609375 l 2
 363.333984375 106.99609375 371.166992188 115.663085938 379.5 132.99609375 c 0
 387.833007812 150.329101562 395.666015625 170.329101562 402.999023438 192.99609375 c 0
 410.33203125 215.663085938 416.83203125 237.49609375 422.499023438 258.49609375 c 0
 428.166015625 279.49609375 431.999023438 293.99609375 433.999023438 301.99609375 c 0
 441.999023438 334.663085938 447.666015625 366.330078125 450.999023438 396.997070312 c 0
 454.33203125 427.6640625 456.33203125 457.831054688 456.999023438 487.498046875 c 0
 457.666015625 517.165039062 456.999023438 546.665039062 454.999023438 575.998046875 c 0
 452.999023438 605.331054688 450.666015625 635.331054688 447.999023438 665.998046875 c 2
 446.999023438 696.998046875 l 1
 448.999023438 704.998046875 l 1
 479.666015625 692.998046875 510.833007812 681.831054688 542.5 671.498046875 c 0
 574.166992188 661.165039062 606 651.665039062 638 642.998046875 c 0
 642 641.665039062 645.166992188 637.83203125 647.5 631.499023438 c 0
 649.833007812 625.166015625 651.333007812 617.999023438 652 609.999023438 c 0
 652.666992188 601.999023438 652.833984375 594.33203125 652.500976562 586.999023438 c 0
 652.16796875 579.666015625 651.66796875 574.666015625 651.000976562 571.999023438 c 2
 577.000976562 274.999023438 l 2
 577.000976562 273.666015625 573.833984375 266.833007812 567.500976562 254.5 c 0
 561.16796875 242.166992188 553.500976562 227.5 544.500976562 210.5 c 0
 535.500976562 193.5 526.16796875 176.166992188 516.500976562 158.5 c 0
 506.833984375 140.833007812 498.666992188 126.666015625 492 115.999023438 c 2
 476 88.9990234375 l 1
 474 79.9990234375 l 1
 535 61.9990234375 l 1
 538.5 61.4990234375 l 2
 540.833007812 61.166015625 542.666015625 60.9990234375 543.999023438 60.9990234375 c 1
 541.999023438 53.9990234375 l 2
 539.999023438 47.33203125 533.666015625 41.33203125 522.999023438 35.9990234375 c 0
 512.33203125 30.666015625 499.33203125 25.9990234375 483.999023438 21.9990234375 c 0
 468.666015625 17.9990234375 451.999023438 14.4990234375 433.999023438 11.4990234375 c 0
 415.999023438 8.4990234375 398.666015625 6.166015625 381.999023438 4.4990234375 c 0
 365.33203125 2.83203125 350.499023438 1.4990234375 337.499023438 0.4990234375 c 0
 324.499023438 -0.5009765625 315.33203125 -1.0009765625 309.999023438 -1.0009765625 c 2
 274.999023438 -0.0009765625 l 2
 268.33203125 -0.0009765625 257.83203125 0.4990234375 243.499023438 1.4990234375 c 0
 229.166015625 2.4990234375 205.333007812 3.666015625 172 4.9990234375 c 0
 166.666992188 5.666015625 163 6.3330078125 161 7 c 0
 159 7.6669921875 153.333007812 9 144 11 c 0
 139.333007812 12.3330078125 135.333007812 13.3330078125 132 14 c 0
 128.666992188 14.6669921875 126 16 124 18 c 0
 120 18 115 19 109 21 c 0
 103 23 98.6669921875 24.6669921875 96 26 c 2
 92 29 l 1
 72.6669921875 34.3330078125 57.5 40 46.5 46 c 0
 35.5 52 30.6669921875 58.3330078125 32 65 c 2
 33 68 l 1
 29.6669921875 72.6669921875 28.6669921875 76.6669921875 30 80 c 0
EndSplineSet
EndChar

StartChar: K
Encoding: 75 75 45
Width: 574
GlyphClass: 2
Flags: W
LayerCount: 2
Fore
SplineSet
131 296 m 2
 131.666992188 297.333007812 130.99609375 299.165039062 128.99609375 301.498046875 c 0
 126.99609375 303.831054688 124.99609375 304.998046875 122.99609375 304.998046875 c 2
 72.99609375 304.998046875 l 1
 40.99609375 310.998046875 l 1
 62.99609375 319.665039062 84.1630859375 329.83203125 104.49609375 341.499023438 c 0
 124.829101562 353.166015625 143.662109375 366.666015625 160.995117188 381.999023438 c 1
 161.995117188 385.999023438 l 2
 163.328125 390.666015625 164.495117188 395.666015625 165.495117188 400.999023438 c 0
 166.495117188 406.33203125 167.995117188 413.33203125 169.995117188 421.999023438 c 2
 170.995117188 426.999023438 l 2
 172.995117188 432.33203125 175.162109375 437.999023438 177.495117188 443.999023438 c 0
 179.828125 449.999023438 182.995117188 456.666015625 186.995117188 463.999023438 c 0
 191.662109375 474.666015625 196.995117188 485.666015625 202.995117188 496.999023438 c 0
 208.995117188 508.33203125 214.662109375 518.999023438 219.995117188 528.999023438 c 0
 225.328125 538.999023438 230.328125 547.666015625 234.995117188 554.999023438 c 0
 239.662109375 562.33203125 242.995117188 567.665039062 244.995117188 570.998046875 c 0
 249.662109375 580.331054688 258.329101562 592.998046875 270.99609375 608.998046875 c 0
 283.663085938 624.998046875 296.663085938 640.998046875 309.99609375 656.998046875 c 0
 323.329101562 672.998046875 335.662109375 686.831054688 346.995117188 698.498046875 c 0
 358.328125 710.165039062 364.661132812 716.665039062 365.994140625 717.998046875 c 2
 398.994140625 729.998046875 l 1
 396.327148438 723.331054688 390.66015625 711.831054688 381.993164062 695.498046875 c 0
 373.326171875 679.165039062 363.993164062 661.83203125 353.993164062 643.499023438 c 0
 343.993164062 625.166015625 334.826171875 607.666015625 326.493164062 590.999023438 c 0
 318.16015625 574.33203125 312.66015625 561.999023438 309.993164062 553.999023438 c 2
 304.993164062 535.999023438 l 2
 303.66015625 529.33203125 302.827148438 521.665039062 302.494140625 512.998046875 c 0
 302.161132812 504.331054688 301.994140625 496.331054688 301.994140625 488.998046875 c 0
 301.994140625 481.665039062 302.161132812 475.33203125 302.494140625 469.999023438 c 0
 302.827148438 464.666015625 303.327148438 461.999023438 303.994140625 461.999023438 c 2
 309.994140625 449.999023438 l 1
 334.661132812 457.33203125 358.328125 470.999023438 380.995117188 490.999023438 c 0
 403.662109375 510.999023438 424.329101562 533.166015625 442.99609375 557.499023438 c 0
 461.663085938 581.83203125 477.99609375 606.33203125 491.99609375 630.999023438 c 0
 505.99609375 655.666015625 516.99609375 676.333007812 524.99609375 693 c 0
 526.99609375 694.333007812 529.829101562 695.833007812 533.49609375 697.5 c 0
 537.163085938 699.166992188 539.663085938 700 540.99609375 700 c 2
 546.99609375 700 l 2
 559.663085938 698 571.330078125 692.333007812 581.997070312 683 c 0
 592.6640625 673.666992188 602.331054688 662.833984375 610.998046875 650.500976562 c 0
 619.665039062 638.16796875 627.33203125 625.66796875 633.999023438 613.000976562 c 0
 640.666015625 600.333984375 645.999023438 589.666992188 649.999023438 581 c 1
 643.999023438 567 l 2
 637.33203125 556.333007812 626.665039062 544.166015625 611.998046875 530.499023438 c 0
 597.331054688 516.83203125 581.331054688 503.499023438 563.998046875 490.499023438 c 0
 546.665039062 477.499023438 528.998046875 465.499023438 510.998046875 454.499023438 c 0
 492.998046875 443.499023438 477.331054688 435.33203125 463.998046875 429.999023438 c 0
 458.665039062 426.666015625 448.498046875 421.333007812 433.498046875 414 c 0
 418.498046875 406.666992188 402.498046875 399 385.498046875 391 c 0
 368.498046875 383 352.331054688 375.666992188 336.998046875 369 c 0
 321.665039062 362.333007812 310.998046875 358 304.998046875 356 c 1
 299.998046875 346 l 2
 299.998046875 345.333007812 302.498046875 343.166015625 307.498046875 339.499023438 c 0
 312.498046875 335.83203125 318.665039062 331.33203125 325.998046875 325.999023438 c 0
 333.331054688 320.666015625 340.831054688 315.166015625 348.498046875 309.499023438 c 0
 356.165039062 303.83203125 362.665039062 298.999023438 367.998046875 294.999023438 c 2
 369.998046875 292.999023438 l 1
 407.331054688 268.999023438 443.831054688 246.999023438 479.498046875 226.999023438 c 0
 515.165039062 206.999023438 554.998046875 188.666015625 598.998046875 171.999023438 c 0
 602.331054688 168.666015625 604.331054688 165.999023438 604.998046875 163.999023438 c 0
 605.665039062 161.999023438 605.33203125 159.33203125 603.999023438 155.999023438 c 2
 600.999023438 149.999023438 l 2
 596.33203125 139.999023438 588.33203125 128.666015625 576.999023438 115.999023438 c 0
 565.666015625 103.33203125 552.833007812 90.83203125 538.5 78.4990234375 c 0
 524.166992188 66.166015625 509.166992188 54.9990234375 493.5 44.9990234375 c 0
 477.833007812 34.9990234375 463.333007812 27.666015625 450 22.9990234375 c 1
 434.666992188 31.666015625 420.5 42.3330078125 407.5 55 c 0
 394.5 67.6669921875 382.333007812 81.1669921875 371 95.5 c 0
 359.666992188 109.833007812 349 124.666015625 339 139.999023438 c 0
 329 155.33203125 319.333007812 170.33203125 310 184.999023438 c 2
 297 207.999023438 l 2
 294.333007812 216.666015625 291 220.999023438 287 220.999023438 c 0
 283 220.999023438 280 217.33203125 278 209.999023438 c 2
 277 205.999023438 l 2
 274.333007812 195.999023438 273.5 183.666015625 274.5 168.999023438 c 0
 275.5 154.33203125 277.166992188 139.499023438 279.5 124.499023438 c 0
 281.833007812 109.499023438 284.5 95.33203125 287.5 81.9990234375 c 0
 290.5 68.666015625 293 58.3330078125 295 51 c 1
 281 44 l 1
 91 5 l 1
 79 8 l 1
 79 7.3330078125 78.6669921875 15.3330078125 78 32 c 0
 77.3330078125 48.6669921875 80 77 86 117 c 2
 131 296 l 2
EndSplineSet
EndChar

StartChar: L
Encoding: 76 76 46
Width: 519
GlyphClass: 2
Flags: W
LayerCount: 2
Fore
SplineSet
186 19 m 1
 185.002929688 19.501953125 l 2
 184.3359375 19.8349609375 184.002929688 20.66796875 184.002929688 22.0009765625 c 0
 184.002929688 22.66796875 183.502929688 25.16796875 182.502929688 29.5009765625 c 0
 181.502929688 33.833984375 180.002929688 36.6669921875 178.002929688 38 c 2
 174.002929688 38 l 2
 142.002929688 38 111.8359375 36.8330078125 83.5029296875 34.5 c 0
 55.169921875 32.1669921875 25.0029296875 26 -6.9970703125 16 c 1
 -5.9970703125 19 l 1
 12.0029296875 36.3330078125 31.8359375 51.666015625 53.5029296875 64.9990234375 c 0
 75.169921875 78.33203125 97.3369140625 90.33203125 120.00390625 100.999023438 c 0
 122.00390625 102.999023438 125.170898438 104.499023438 129.50390625 105.499023438 c 0
 133.836914062 106.499023438 138.169921875 107.83203125 142.502929688 109.499023438 c 0
 146.8359375 111.166015625 150.668945312 112.833007812 154.001953125 114.5 c 0
 157.334960938 116.166992188 159.334960938 118.333984375 160.001953125 121.000976562 c 2
 160.001953125 125.000976562 l 1
 127.334960938 249.66796875 127.001953125 376.66796875 159.001953125 506.000976562 c 2
 172.001953125 559.000976562 l 1
 194.001953125 621.000976562 l 2
 194.668945312 621.66796875 196.168945312 624.500976562 198.501953125 629.500976562 c 0
 200.834960938 634.500976562 203.834960938 640.16796875 207.501953125 646.500976562 c 0
 211.168945312 652.833984375 214.668945312 659.166992188 218.001953125 665.5 c 0
 221.334960938 671.833007812 224.334960938 676.666015625 227.001953125 679.999023438 c 0
 227.668945312 683.33203125 229.501953125 687.499023438 232.501953125 692.499023438 c 0
 235.501953125 697.499023438 239.334960938 699.999023438 244.001953125 699.999023438 c 0
 250.668945312 699.999023438 260.001953125 698.166015625 272.001953125 694.499023438 c 0
 284.001953125 690.83203125 296.334960938 686.499023438 309.001953125 681.499023438 c 0
 321.668945312 676.499023438 333.8359375 671.666015625 345.502929688 666.999023438 c 0
 357.169921875 662.33203125 366.669921875 658.999023438 374.002929688 656.999023438 c 0
 377.3359375 655.666015625 383.168945312 653.499023438 391.501953125 650.499023438 c 0
 399.834960938 647.499023438 408.66796875 644.499023438 418.000976562 641.499023438 c 0
 427.333984375 638.499023438 436.166992188 635.499023438 444.5 632.499023438 c 0
 452.833007812 629.499023438 458.666015625 627.33203125 461.999023438 625.999023438 c 2
 464.999023438 623.999023438 l 1
 409.666015625 559.33203125 365.333007812 494.83203125 332 430.499023438 c 0
 298.666992188 366.166015625 273 297.666015625 255 224.999023438 c 2
 245 184.999023438 l 2
 245 183.666015625 244.833007812 181.166015625 244.5 177.499023438 c 0
 244.166992188 173.83203125 244 169.33203125 244 163.999023438 c 0
 244 153.33203125 243.333007812 145.33203125 242 139.999023438 c 0
 242.666992188 136.666015625 242.833984375 133.833007812 242.500976562 131.5 c 0
 242.16796875 129.166992188 244.000976562 128 248.000976562 128 c 0
 251.333984375 128.666992188 257.500976562 130 266.500976562 132 c 0
 275.500976562 134 285.000976562 136.166992188 295.000976562 138.5 c 0
 305.000976562 140.833007812 314.66796875 143 324.000976562 145 c 0
 333.333984375 147 339.666992188 148.333007812 343 149 c 0
 363 154.333007812 382.666992188 157.666015625 402 158.999023438 c 0
 421.333007812 160.33203125 439.666015625 160.999023438 456.999023438 160.999023438 c 2
 543.999023438 154.999023438 l 1
 542.999023438 152.999023438 l 1
 525.666015625 135.666015625 509.833007812 117.833007812 495.5 99.5 c 0
 481.166992188 81.1669921875 467.666992188 62.6669921875 455 44 c 0
 453 40.6669921875 450.333007812 36 447 30 c 2
 437 12 l 2
 433.666992188 6 430.666992188 0.8330078125 428 -3.5 c 0
 425.333007812 -7.8330078125 423.666015625 -10 422.999023438 -10 c 2
 421.999023438 -10 l 1
 389.999023438 1.3330078125 359.33203125 10 329.999023438 16 c 0
 300.666015625 22 268.333007812 27.3330078125 233 32 c 1
 228 32 l 2
 226 32 224.333007812 31.3330078125 223 30 c 2
 209 -30 l 1
 186 19 l 1
EndSplineSet
EndChar

StartChar: M
Encoding: 77 77 47
Width: 657
GlyphClass: 2
Flags: W
LayerCount: 2
Fore
SplineSet
652 139 m 1
 634.990234375 93.0009765625 l 2
 633.657226562 87.66796875 631.32421875 80.3349609375 627.991210938 71.001953125 c 0
 624.658203125 61.6689453125 621.325195312 52.501953125 617.9921875 43.501953125 c 0
 614.659179688 34.501953125 611.4921875 26.6689453125 608.4921875 20.001953125 c 0
 605.4921875 13.3349609375 603.659179688 9.66796875 602.9921875 9.0009765625 c 2
 591.9921875 0.0009765625 l 1
 572.659179688 7.333984375 552.9921875 13.6669921875 532.9921875 19 c 0
 512.9921875 24.3330078125 492.325195312 29.666015625 470.9921875 34.9990234375 c 2
 459.9921875 36.9990234375 l 1
 463.9921875 55.9990234375 l 2
 468.659179688 75.33203125 475.326171875 95.4990234375 483.993164062 116.499023438 c 0
 492.66015625 137.499023438 501.827148438 158.83203125 511.494140625 180.499023438 c 0
 521.161132812 202.166015625 530.328125 223.499023438 538.995117188 244.499023438 c 0
 547.662109375 265.499023438 554.329101562 285.666015625 558.99609375 304.999023438 c 2
 568.99609375 357.999023438 l 1
 558.99609375 353.33203125 548.663085938 345.165039062 537.99609375 333.498046875 c 0
 527.329101562 321.831054688 516.662109375 308.831054688 505.995117188 294.498046875 c 0
 495.328125 280.165039062 484.828125 265.165039062 474.495117188 249.498046875 c 0
 464.162109375 233.831054688 454.329101562 219.6640625 444.99609375 206.997070312 c 2
 434.99609375 187.997070312 l 2
 418.329101562 157.997070312 402.49609375 127.830078125 387.49609375 97.4970703125 c 0
 372.49609375 67.1640625 358.663085938 34.6640625 345.99609375 -0.0029296875 c 1
 338.663085938 2.6640625 332.99609375 12.1640625 328.99609375 28.4970703125 c 0
 324.99609375 44.830078125 321.49609375 64.9970703125 318.49609375 88.9970703125 c 0
 315.49609375 112.997070312 312.663085938 138.830078125 309.99609375 166.497070312 c 0
 307.329101562 194.1640625 303.99609375 220.6640625 299.99609375 245.997070312 c 0
 295.99609375 271.330078125 290.99609375 293.663085938 284.99609375 312.99609375 c 0
 278.99609375 332.329101562 270.99609375 345.329101562 260.99609375 351.99609375 c 1
 242.99609375 288.99609375 l 2
 238.329101562 269.663085938 235.162109375 250.330078125 233.495117188 230.997070312 c 0
 231.828125 211.6640625 230.661132812 192.1640625 229.994140625 172.497070312 c 0
 229.327148438 152.830078125 228.16015625 133.330078125 226.493164062 113.997070312 c 0
 224.826171875 94.6640625 221.659179688 75.3310546875 216.9921875 55.998046875 c 2
 210.9921875 36.998046875 l 1
 199.9921875 34.998046875 l 2
 176.659179688 29.6650390625 153.659179688 24.33203125 130.9921875 18.9990234375 c 0
 108.325195312 13.666015625 84.9921875 7.3330078125 60.9921875 0 c 1
 52.9921875 9 l 2
 52.9921875 9.6669921875 53.3251953125 13.333984375 53.9921875 20.0009765625 c 0
 54.6591796875 26.66796875 55.4921875 34.5009765625 56.4921875 43.5009765625 c 0
 57.4921875 52.5009765625 58.6591796875 61.66796875 59.9921875 71.0009765625 c 0
 61.3251953125 80.333984375 62.658203125 87.6669921875 63.9912109375 93 c 2
 75.9912109375 156 l 2
 83.32421875 185.333007812 91.82421875 214.333007812 101.491210938 243 c 0
 111.158203125 271.666992188 121.325195312 300.166992188 131.9921875 328.5 c 0
 142.659179688 356.833007812 152.826171875 385.333007812 162.493164062 414 c 0
 172.16015625 442.666992188 180.66015625 471.666992188 187.993164062 501 c 0
 190.66015625 511.666992188 190.327148438 521.333984375 186.994140625 530.000976562 c 0
 183.661132812 538.66796875 179.828125 547.16796875 175.495117188 555.500976562 c 0
 171.162109375 563.833984375 167.162109375 572.000976562 163.495117188 580.000976562 c 0
 159.828125 588.000976562 158.995117188 596.66796875 160.995117188 606.000976562 c 0
 161.662109375 607.333984375 168.829101562 611.833984375 182.49609375 619.500976562 c 0
 196.163085938 627.16796875 211.663085938 635.66796875 228.99609375 645.000976562 c 0
 246.329101562 654.333984375 263.329101562 663.333984375 279.99609375 672.000976562 c 0
 296.663085938 680.66796875 308.330078125 687.000976562 314.997070312 691.000976562 c 0
 318.330078125 692.333984375 322.830078125 694.166992188 328.497070312 696.5 c 0
 334.1640625 698.833007812 337.331054688 700 337.998046875 700 c 0
 343.331054688 698.666992188 348.6640625 690.333984375 353.997070312 675.000976562 c 0
 359.330078125 659.66796875 364.663085938 640.500976562 369.99609375 617.500976562 c 0
 375.329101562 594.500976562 380.329101562 569.16796875 384.99609375 541.500976562 c 0
 389.663085938 513.833984375 393.830078125 487.166992188 397.497070312 461.5 c 0
 401.1640625 435.833007812 404.1640625 412.5 406.497070312 391.5 c 0
 408.830078125 370.5 410.330078125 355 410.997070312 345 c 1
 413.997070312 345 l 1
 419.330078125 355 428.497070312 370.666992188 441.497070312 392 c 0
 454.497070312 413.333007812 469.1640625 437 485.497070312 463 c 0
 501.830078125 489 519.330078125 515.666992188 537.997070312 543 c 0
 556.6640625 570.333007812 574.331054688 595.5 590.998046875 618.5 c 0
 607.665039062 641.5 622.665039062 660.5 635.998046875 675.5 c 0
 649.331054688 690.5 658.998046875 698.666992188 664.998046875 700 c 0
 665.665039062 700 668.165039062 698.833007812 672.498046875 696.5 c 0
 676.831054688 694.166992188 679.998046875 692.333984375 681.998046875 691.000976562 c 0
 686.665039062 687.000976562 695.165039062 680.66796875 707.498046875 672.000976562 c 0
 719.831054688 663.333984375 732.498046875 654.333984375 745.498046875 645.000976562 c 0
 758.498046875 635.66796875 769.831054688 627.16796875 779.498046875 619.500976562 c 0
 789.165039062 611.833984375 793.665039062 607.333984375 792.998046875 606.000976562 c 0
 790.998046875 596.66796875 786.331054688 588.000976562 778.998046875 580.000976562 c 0
 771.665039062 572.000976562 763.665039062 563.833984375 754.998046875 555.500976562 c 0
 746.331054688 547.16796875 738.331054688 538.66796875 730.998046875 530.000976562 c 0
 723.665039062 521.333984375 718.665039062 511.666992188 715.998046875 501 c 0
 708.665039062 471.666992188 702.83203125 442.666992188 698.499023438 414 c 0
 694.166015625 385.333007812 689.999023438 356.833007812 685.999023438 328.5 c 0
 681.999023438 300.166992188 677.83203125 271.666992188 673.499023438 243 c 0
 669.166015625 214.333007812 663.333007812 185.333007812 656 156 c 2
 652 139 l 1
EndSplineSet
EndChar

StartChar: N
Encoding: 78 78 48
Width: 522
GlyphClass: 2
Flags: W
LayerCount: 2
Fore
SplineSet
188 503 m 2
 190.666992188 513.666992188 190.331054688 523.333984375 186.998046875 532.000976562 c 0
 183.665039062 540.66796875 179.83203125 549.16796875 175.499023438 557.500976562 c 0
 171.166015625 565.833984375 167.166015625 574.000976562 163.499023438 582.000976562 c 0
 159.83203125 590.000976562 159.33203125 598.66796875 161.999023438 608.000976562 c 0
 161.999023438 609.333984375 168.666015625 613.833984375 181.999023438 621.500976562 c 0
 195.33203125 629.16796875 210.83203125 637.66796875 228.499023438 647.000976562 c 0
 246.166015625 656.333984375 263.333007812 665.333984375 280 674.000976562 c 0
 296.666992188 682.66796875 308.666992188 689.000976562 316 693.000976562 c 0
 319.333007812 694.333984375 323.666015625 696.166992188 328.999023438 698.5 c 0
 334.33203125 700.833007812 337.33203125 702 337.999023438 702 c 0
 343.999023438 701.333007812 350.33203125 692.666015625 356.999023438 675.999023438 c 0
 363.666015625 659.33203125 370.166015625 638.499023438 376.499023438 613.499023438 c 0
 382.83203125 588.499023438 388.83203125 560.83203125 394.499023438 530.499023438 c 0
 400.166015625 500.166015625 405.166015625 470.999023438 409.499023438 442.999023438 c 0
 413.83203125 414.999023438 417.499023438 389.666015625 420.499023438 366.999023438 c 0
 423.499023438 344.33203125 425.33203125 328.33203125 425.999023438 318.999023438 c 1
 427.33203125 321.666015625 429.83203125 327.499023438 433.499023438 336.499023438 c 0
 437.166015625 345.499023438 440.999023438 355.499023438 444.999023438 366.499023438 c 0
 448.999023438 377.499023438 452.83203125 388.166015625 456.499023438 398.499023438 c 0
 460.166015625 408.83203125 462.666015625 416.665039062 463.999023438 421.998046875 c 0
 464.666015625 422.665039062 465.999023438 426.33203125 467.999023438 432.999023438 c 2
 470.999023438 443.999023438 l 1
 475.999023438 466.999023438 l 2
 484.666015625 499.666015625 489.999023438 532.999023438 491.999023438 566.999023438 c 0
 493.999023438 600.999023438 495.666015625 633.33203125 496.999023438 663.999023438 c 1
 507.666015625 665.33203125 519.833007812 667.499023438 533.5 670.499023438 c 0
 547.166992188 673.499023438 561.333984375 676.499023438 576.000976562 679.499023438 c 0
 590.66796875 682.499023438 605.000976562 685.166015625 619.000976562 687.499023438 c 0
 633.000976562 689.83203125 645.66796875 690.999023438 657.000976562 690.999023438 c 2
 661.000976562 690.999023438 l 2
 662.333984375 689.666015625 663.833984375 686.666015625 665.500976562 681.999023438 c 0
 667.16796875 677.33203125 667.66796875 674.33203125 667.000976562 672.999023438 c 2
 643.000976562 575.999023438 l 2
 630.333984375 525.999023438 615.833984375 475.999023438 599.500976562 425.999023438 c 0
 583.16796875 375.999023438 564.16796875 326.666015625 542.500976562 277.999023438 c 0
 520.833984375 229.33203125 495.833984375 181.83203125 467.500976562 135.499023438 c 0
 439.16796875 89.166015625 406.334960938 43.9990234375 369.001953125 -0.0009765625 c 1
 361.668945312 2.666015625 355.668945312 12.9990234375 351.001953125 30.9990234375 c 0
 346.334960938 48.9990234375 342.001953125 70.9990234375 338.001953125 96.9990234375 c 0
 334.001953125 122.999023438 330.001953125 150.999023438 326.001953125 180.999023438 c 0
 322.001953125 210.999023438 317.501953125 239.666015625 312.501953125 266.999023438 c 0
 307.501953125 294.33203125 301.501953125 318.33203125 294.501953125 338.999023438 c 0
 287.501953125 359.666015625 278.668945312 373.333007812 268.001953125 380 c 1
 232.001953125 291 l 1
 204.001953125 56 l 1
 198.001953125 37 l 1
 172.668945312 31.6669921875 147.501953125 26.1669921875 122.501953125 20.5 c 0
 97.501953125 14.8330078125 72.3349609375 8 47.001953125 0 c 1
 38.001953125 9 l 2
 38.001953125 9.6669921875 38.3349609375 13.333984375 39.001953125 20.0009765625 c 0
 39.6689453125 26.66796875 40.6689453125 34.5009765625 42.001953125 43.5009765625 c 0
 43.3349609375 52.5009765625 44.66796875 61.66796875 46.0009765625 71.0009765625 c 0
 47.333984375 80.333984375 48.6669921875 87.6669921875 50 93 c 2
 50 101 l 1
 64 156 l 1
 188 503 l 2
EndSplineSet
EndChar

